<svg viewBox="70 0 800 500" xmlns="http://www.w3.org/2000/svg"><style type="text/css"><![CDATA[
		.land { fill: #fff; stroke: #000; stroke-opacity: 0.1; }
		.state-boundary { fill: none; stroke: rgb(0, 0, 0); stroke-opacity: 0.1; }
		.college-vote { fill:none; stroke:#000; }
		{{ dotMapSelectors.r }} {
			fill:{{ color.rep }};
			stroke:none;
		}
		{{ dotMapSelectors.d }} {
			fill:{{ color.dem }};
			stroke:none;
		}
		{{ dotMapSelectors.l }} {
			fill:{{ color.lib }};
			stroke:none;
		}
		{{ dotMapSelectors.g }} {
			fill:{{ color.grn }};
			stroke:none;
		}
		{{ dotMapSelectors.n }} {
			fill:{{ color.nodata }};
			stroke:none;
		}
	]]></style><g class="map"><path class="land" d="M783.485 259.446l-.319.066 1.134 2.447 2.175 1.984 2.041 3.646-2.983-3.114-1.279-1.194 2.243 2.957-1.64-.082-3.838-2.741.483 1.327 2.882 2.204-1.44.834-2.129-1.337 1.794 1.752-.859.241-3.327-1.157 2.596 1.487-2.678.724 1.25.077-1.29 1.444-2.839-.574-.748-1.428.029-2.912-1.634-.884-2.524-.286 2.411.372 1.333 1.97-.122 1.803 1.667 2.775-.033 1.277 4.232-2.017.66.844 2.659-1.772 1.61-.259 1.452 5.523-1.79.219 2.295.026-.475-4.134 2.426-1.205 1.078.557 1.247 4.715-1.619 1.128-.696-.899.355 1.14-1.567 3.509-1.471 1.755-1.572.111-2.329-1.075-.955 1.283-2.245-2.159 1.432-.151-.322-1.282-1.881 1.527 1.398 2.084-6.32-.53-1.923-1.051-.103.175 2.404 1.761 5.419.676.385 1.168 1.493-1.082.528 1.739-2.199 1.483 1.641.019-.45 1.526-2.652 2.638-2.411-1.034-.043-.812-1.554-.577-1.27 1.456.275-.069.987-.718 2.676 2.294 3.359.349-.122-1.375 3.59-1.324-.347 1.19 2.711-.901-2.029 3.183-.528 1.884-.965.245-1.046-1.522-.728 1.985-2.982.444-2.888 1.57-1.18-1.514.855.954-2.767 4.017-2.316 2.102-2.79 3.375.324-.088.066.054-1.681 3.029-.544 1.979-1.089-2.481.818 4.025-.702 1.791-2.191-.082-3.946 1.037-1.917.962-.212-.141-.072-.056.201.447-3.345 2.749-2.307 3.694-1.555 3.991-.083 2.439-1.636-.869 1.731 2.379-1.059.793-2.2-.436 2.137.716-1.908 2.415-2.256.455-2.345 3.557-1.316 1.763-.787-.213 1.232-3.047-1.635 2.285-.657-1.425.773 2.834.87-.066-1.334 2.75-3.721 2.284-1.354.868-1.494-1.795.413 1.772-2.688-.656.374 1.137-3.105-.328-.713 1.121-.59-1.403.381 2.082.071.833.098.076-.082.201-.271.443 1.707 1.353-.611 2.767-1.725.725-.071 1.059-2.532-.415 1.278.523.794 2.115 1.378.766-.733 1.089-2.674-1.021-1.178 1.004 1.499.488.086 2.369-2.715-1.129 1.713 1.153.391 1.028-2.155.778 2.093.18.536.889-2.007.861.453 3.433.915.61-3.034.165.03.047.477.061 1.004.705-.844 2.165.8 2.523-1.961-.515 2.111 2.199-.284 4.188-1.628.456 2.877-.128.333 3.439-1.024-.784-1.663.364 2.31.354.434 1.946-2.722.826.222 1.419-1.369 1.183.738 1.322-.991 1.539 1.205-.202-.13 1.502 1.822 1.18.447 2.273.981 1.11-1.257 2.022-.023 4.468.612 1.191.694 1.684 1.637 1.377.115-2.071-.861-.794-1.921-1.322-.456-2.807 1.348-.667-.776-1.576 1.427-1.331-1.386-2.253.349-1.518-2.1-1.386 1.073-1.457-1.08.064.234-1.961-.78-.782.555-2.146 2.784.216.46 1.883 2.995 6.075.058 1.088 1.996 3.055-.081.013-.335.269 2.897 3.935.635 1.36 6.405 9.53 2.778 2.009-1.994-2.138.11-.018 3.152 3.335 1.235 2.278-.838.985-.566-3.02-1.092 3.875-.436-.032-.674-3.747-1.11-.434.649-1.632-1.987-1.339-.226.037 1.59 4.24 3.315 6.256 3.685 5.602-.035.559 2.539 2.902.655 1.795 2.923 5.054-.761.719.061.404 2.474 1.154 1.552 2.667-.374.061-.054.008-.22.035-.13.022 1.111.335 1.535 6.97.324 4.413.33 6.438.141 1.384-.653 2.764-1.433 2.713-.229 2.979.791 1.734-1.583 2.778-.097.015-.832.572.031.072-1.301-.39-2.115 1.819-2.74.167-.607.786-3.037.923-1.783-1.692.27-2.307 1.368 1.433 1.944.666.861-1.062-1.766-1.497-2.134.191-2.003-2.531-1.659-3.177 1.318-.809-1.399-.655-.286 1.408-1.068-1.826-3.058-1.404-1.343.4-2.665-1.541-1.417-1.611-1.38-4.203-.754-2.376-3.014-.785-1.146-2.635.151-1.742-1.01-2.514 1.658-1.285-2.189.32-.443.874-1.901-1.238.019.128 1.339.971.971 2.471-2.677-.537-1.122-1.698-1.808-1.847-2.875-5.793-2.273-1.337 1.317-.927.509-2.484 2.293-3.611-1.992-1.569.542 1.725-1.075-.157-.142-1.795-2.18-1.235-.95 1.686 2.2 1.035-.263 3.022-1.814-.615-2.054-1.796.545-2.462-.302-3.4 1.176-5.072-.05-4.903-.967-.568-.496-3.262-1.296-1.496-.019.03-.1-1.181-1.575-1.569-3.719.085-1.127-2.631-1.06.058-1.285-1.78-2.975-1.64-.106-2.424-2.426-.626-2.021-2.752-2.582-1.632-3.645-1.587-1.353.105-4.483 1.219.259 1.725-1.475.125 1.698 1.118-2.905.203-5.548 3.973-2.436-.553-.002.033 1.02 1.066-3.563.801-1.498.268-.057-2.058-1.681-2.207-5.194-3.086 1.032-.201 2.023 1.488 1.881-.132-.014-.122-1.47.21-.834-1.581-1.132.248-2.361-1.045.089 1.145-4.458-2.244-6.635-1.379-.03-.357 4.692-.348-2.628-1.526-2.135.83-1.06-.97-2.148 2.279-3.173.224-5.946 1.612 3.64-2.272-1.389-.839-.681 1.128-1.664-2.318-.277.69.285 2.07-1.353 1.783-3.064.935.459-1.783 1.291-.648-1.572-.863.742.648-2.422 3.491-4.396 1.226-2.103.04 3.473-1.31-2.762-2.052-.135-2.466-.842-3.175-1.347-.447-.053-.422.262-.383-1.175 5.474.134 2.302-4.645.203-1.239 1.386-1.125-1.191-3.255.96-2.245-1.293-6.361 2.786-.904-1.244.287 1.29-2.971 2.538-1.604.552-1.548 1.85-2.039 1.239 1.122 1.25 1.057-.557.464 1.557 1.614-.068.276-2.291 2.076-1.415.505 2.257.384.675 1.309.495-1.396.938 1.102.599-1.992-.246.499 1.06-3.366.229 1.842 1.706-.189-.125-.098.018-1.25.25-.061.486-1.461.413 1.304 1.771 2.188 1.05-.594.822 3.104.018 2.305 1.534.763-.891 2.017 2.91-.177 1.687-1.401 1.29-1.048-.508-2.441 2.612 2.198-3.964-.916-1.5-2.107.752-.957-2.566-1.859-1.063-2.974.269-.389-.584-.969-.511-1.744-.109-2.504-1.532.069-1.897-1.002-.542.313 2.06-.987 1.046 3.021 1.488.048 1.973-.479.496.417 1.704-.362.774-2.06 1.631-.774-.95-1.697-3.074-.749 1.706-.015-.261-.006-.103.069-.322.071-.091-3.12-.763.204 1.311-.458.61-.475-.213-1.073 1.781-2.077.013-1.771-.425 2.127-1.445-1.983-.705-.549-1.07-1.373 2.859-1.411-.755-.013-1.96-2.19-1.897.578-2.688-1.532 1.943-1.557-1.156-2.277.739-.139-2.093-1.189.14-.221-2.141-3.611.251.39-1.723-2.337.015-.167.737-2.886 1.87 1.053-.028-.064 1.572-3.024 1.685-5.189-.697-5.404-2.127-3.777-1.132-4.998.174-4.182.731-1.511.837-2.835.295-5.473 2.317-.266.116-6.28 3.082 3.145-2.571 1.526-.518-1.234-.251-3.136.889.664-4.303-1.759-.679-1.129 2.326-.858-.198-1.449-.549-.975-2.136-.431 1.082 1.96 1.678-.557 2.429 1.772.978-.683.537 1.146 1.64-.34 1.452-.605-.249-1.85 2.143-1.513.356-1.4 3.575-2.668 2.378-1.73.729-3.017 1.823-1.591-.332-2.401.946-.435 1.323 4.216-1.779-10.348 5.267 4.746-2.726 1.168-1.339-3.102.947-2.61-.712-1.117-.592-.616-.615-.12 1.859-1.872-.635-.394-1.198-1.347-.282-.047.008-.017-.031.003.376.8 1.963 3.485 2.884-4.163 2.207-2.229-2.343-1.223.599 1.12 1.794-.137.805.016.946-.202.084-.538.597-1.956 1.182-.945-1.485-3.743 2.56 1.356.28-.468 1.374.047.076 2.667-2.632-.058 1.492-1.828 2.385-.018.028-.091.155-.813 1.319-1.36-1.108-3.604.72 1.714.018.902 2.3 1.27.405-1.221 2.506-1.565 4.445-1.558.826.72-2.423-2.462 1.584-1.978-1.86 1.154 2.404-1.918.054 2.154.175 1.687.898 2.047-.593-.461 2.725-.401 1.833-1.437.77.087 2.78 1.257 1.273.426 2.916.29 1.578-.033 1.366-.353.562.944.018 1.555 4.008-.291 1.33 1.716 1.13-.71 1.784-2.144 1.058.018 1.258-2.483-.893-3.091-2.849-2.631-.661-5.601.195-3.238-2.013-.957-1.262-2.372-.68-1.518.279-2.094-2.41-5.144-1.256.357-.917-1.246-1.808-1.493-5.088-2.853-3.395.428-2.864-.401-1.677-.787-1.406.52-2.588-1.811-3.025-1.935-.444-2.652-2.732-.782-3.426-.906-.235-1.525-2.963-2.003-.999-1.276-1.693-1.507-5.71-1.521-1.42-.663-3.15-1.597-2.265-.129-2.635-1.678-1.768-.247-1.271-3.304-2.475-.812-1.789-3.176-1.651-.526-1.976-2.333-2.852-1.366.463-3.614-.648-5.72-.569-3.199-1.831-1.249 2.123-2.036-.568-2.493.555-2.587 4.028-1.329 3.003-.347 2.686-1.718.372-2.935 3.724-4.483-1.705-1.809-2.257-2.638-.658-1.068-1.596-2.863-.862-1.715-1.084-2.64-3.364-1.205-.218-2.587-2.56-2.25-5.257.298-4.97-2.403-4.192.014-2.251-1.517-2.378-3.432-3.65-2.76-1.262-2.335-2.694-.6-1.865-2.495-1.796-1.281-2.429-1.833-2.049-3.312-2.089-2.058-5.004-2.19-1.208-12.071-1.387-14.298-1.778-1.082 8.374-13.262-1.748-22.171-3.24-9.655-1.503-4.295-2.478-28.678-16.648-21.218-12.787.519-2.247 1.756-1.601-21.608-2.55-15.911-1.891.667-2.518-1.564-1.217-.279-2.081.665-.855-.116-4.674-1.933-4.803-1.011-1.11-2.194-3.489-2.786-2.858-1.276-2.04-1.5-.842-1.299.963-1.684-1.095.726-1.721-.438-2.547-.946-1.654-2.87-.586-1.227.328-1.888-1.327-3.517-2.822-.425-2.456-2.454-2.701-1.137-1.079-4.649-1.019-1.651-1.464-4.215-1.305-2.705-.276-.255-1.527-1.697-1.552 1.271-2.17.513-2.449-.598-1.362.658-1.226.81-3.158-1.496-.63-1.598-2.283 1.433-1.223-.395-1.982-1.57-.955-1.478-3.752-1.615-1.057-.226-2.613-1.226-2.168.066-1.803-.985-1.098-1.195-3.651-2.037-2.725.252-5.299 2.742-1.061 1.138-3.275-1.324-2.759-2.48-.271-1.873-3.504-1.138-2.072.901-2.946-.788-3.36 1.163-3.356.208-1.356 1.601-.124-.279 1.915-.113 2.237 1.268.753 1.526 2.518 1.805.57-1.528-1.223.1-3.242-1.674-3.007.748-1.71-.709-1.506 2.214-1.114 1.427 1.006 2.06-.123 3.75 1.791 2.205-.972.017 1.175.48-1.189-1.682-.012.869-1.651-2.655 1.601-1.833-.314-1.35-1.976-1.547 1.35-1.285-.891-.359-1.796-.119-.039.329 1.634-1.795-2.03-.003-.047-1.427.49-.524-1.054.547 1.18-1.131 3.153.663 1.09-1.594.79-1.379-2.22-.668.161-1.723-3.044-1.958-.272 1.637-2.553 1.177 1.879-1.204-4.505-.954-3.3-2.219-2.925-1.678-4.49-1.867-3.52 1.148-1.869-.174-6.319 1.737-3.102.479-2.213.04-3.548-1.375-3.703-.622-2.2-2.548-3.866.396-3.49 3.28-4.041.553.466 3.366-5.703-.375-1.039 3.397-6.673.222-5.302-1.003-1.165 1.778-3.728-1.283-2.457.299-4.454 1.823-4.164.147-1.643-.836-1.69.078-2.119 1.553-1.732 3.001-5.29 3.987-5.43 2.158-4.306 2.807-7.231 1.178-2.407 2.429-7.264 1.23-1.274.805-2.375 2.821-6.2 1.599-6.867.579-3.005 1.164-.883.026-4.274 1.114 1.259 1.872.121 2.095.995 1.411-.52 1.168 2.159 2.049-.009.006-.054-.947.203-1.584-2.755-3.25-1.402-2.108.349-1.375-1.883-1.017.584 2.423-5.356-.952 3.773.707.145 1.644-2.844-.44-1.388 2.043-1.414-2.029-.366-.746-1.953.118-2.108 1.05.531 3.087-.312-3.672-2.357.406-4.934-.655-1.622.561-3.302.238-4.111-1.44-2.986.131-5.547 2.33-3.514 2.397 2.679 1.581.925 2.685 2.754 3.312.94 3.471 2.068 3.556.322 1.846 2.216 1.538-.892 1.2 5.085-.932.141-1.928 2.587.225-2.505-1.966 2.779-1.253.757-.875 1.404 1.816-1.415 2.234-.257 1.511-2.091 2.499-1.475-.412 3.137-.828-.391-1.514 3.096 1.07 1.441-1.237 1.7-1.173 2.547-.9-.891 1.157-1.921-.088-.024-1.469.841-1.298 2.927-.465-1.604.955-1.963-1.932.951-.645 1.315-2.117 1.412 2.014-.832-1.234 1.529 1.192.336 1.623-1.514 1.036 1.845 1.833-1.165 1.299-2.172 1.439.337 1.278-.184-.024-4.394 1.13-.227-.887-1.352 1.102-1.927 1.955-2.746 1.748-1.157-1.453-1.632.044-2.509-1.285.676.754 1.912-1.367-1.281.352-2.129 1.535.416.488-.759-2.641-2.948-.196-1.608 1.223-.242 1.22 1.638.9-3.39.465-1.724-1.707-1.115-1.198-3.506 1.042-.908 11.889 3.463 10.879 2.91 9.508 2.517 14.705 3.692 7.717 1.864 9.272 2.158 4.788 1.112 11.932 2.588 16.031 3.324 8.047 1.608 22.875 4.172 11.288 1.912 6.468 1.005 15.382 2.27 15.405 2.111 13.01 1.603 13.163 1.492 13.015 1.321 12.467 1.113 13.724 1.095 11.354.783 6.494.383 16.28.833 8.146.329 6.52.214 13.02.33 8.944.15 10.214.095 13.443.002 2.093-.016-.063-7.106 2.419.239 1.642 1.378 1.86 7.539-.067 1.96 1.303 1.097 1.964.277 1.513-.199 1.072 1.104 4.699.248.734 2.099 4.058-.658v-.835l3.193-1.031 1.494.229 4.546 1.485 1.163-.099-.917 1.504 2.577.187 1.874 4.111 1.242-.534.012-1.976 2.59-.186.684 1.711 2.661 1.041 1.166 1.534 1.92.074-.052 1.204 3.962-.939 2.636-2.086 1.776-1.142 1.963 2.698 7.631-.757 3.402 2.102 1.297-.755 2.59.374-5.021 3.362-5.717 2.192-3.593 2.138-3.518 3.183-5.461 6.581-3.891 3.624-3.714 2.998-1.309 2.439 1.145-1.597 1.412 1.085 2.34-.252 3.391-1.376 3.753-1.74 1.85-.428 2.983-2.114 1.493 1.125-1.535 2.724.476 1.028-.845 2.17 2.82-1.636 2.032 1.407 1.727.232 4.91-2.36 1.647-1.781 1.228-1.075 4.724-.772 2.18-1.344 1.42-1.719 2.317-.861.488-1.346 3.101-2.593.191 1.802 1.479.276 1.024 3.098.065 3.49 2.641-3.567 2.527.155 2.939.143 2.461 1.245.937 1.643 3.477 3.891 2.757-.247 1.153-.837 2.81 1.523.765-.845 1.574 1.102 1.991-2.84 3.914-2.64 3.468-.686 4.909-.362 2.961-1.737 3.58-.657-.777 1.584.371 3.722 2.707.505 2.473-1.044.63 1.242 3.028-2.023 1.201 1.186 1.405 3.209-.306 1.681 1.252-.445.845 1.495 2.465 1.763-2.747.359-1.307.113-.222.03-5.624-.599-.825 2.131.07 1.975-3.648-2.724-5.625-1.135-1.157.297-1.505 2.517-2.733.285-.521.962-2.003-.617-3.15 1.16-.477 2.553-1.147.659-3.013 2.313 1.92-3.929-3.266.115-.889 2.902-2.242-.431-1.543 1.658-1.051 2.229-1.813 4.971-2.039 3.798.031 2.183-1.72.5-1.596 2.742-.908 2.89-.038.004-.047.005-.544 2.169 1.626.398 2.028-2.21.293-.64 1.372-3.114 2.577-1.528 1.783-5.07 1.506-.633.493-1.959 1.102-.112-2.118 6.336-.046 1.761-1.356 1.781-.544 2.141-1.155 3.202-.493 3.49.323 3.14-1.267 1.07-.848 4.136.731 3.774-.972 2.819-1.129 5.49.345 1.189 1.455 6.468.995 1.006-.431 2.23.299 3.283-.095 3.588 1.266 2.731 1.199 1.361 1.383 4.248 1.393 2.442 1.319.911 2.976.279 3.845-1.994 1.397-1.083 2.607-2.833 1.364-4.162 1.446-2.669.897-3.42.217-6.601-.664-4.095-.871-2.371-3.212-6.351-1.4-3.297 1.145-3.221-1.5-4.004 1.395-2.753 1.369-3.736.019-2.801-.418-3.448 2.02-1.613-.185-2.172 1.615-1.493 1.789.026 1.951-4.59.935 2.279-.681 3.428.283 1.972.616.086 1.157-4.294-.211 4.552.882-2.208.506-4.801-.524-1.744.148-1.307 1.964-1.829 1.367-.231 2.141-1.308-1.504-.065-1.371-2.333 1.977-3.217 2.562-1.453 3.797 2.076 3.402.083 1.493 2.063 2.673.053 1.945 1.226 2.736.776.995-.304 1.705 1.418.065 1.164 1.352 2.694-1.479.071.3 2.47 1.573 1.108 1.012 2.606-.115 3.821.158 3.406-2.087 1.361-.477 2.133.113 2.144-1.174 1.241-2.197.245-.669 1.662.495 4.368 3.053 1.24 2.083-3.02.677.044 2.115-4.958 2.677-.995 1.495-1.355 2.691 1.078 1.832 2.761.742 2.59 1.574 4.58 1.191 4.911 1.654 3.437-.528 1.713.107 4.963-1.725.162-.965-.913-1.351 1.518-.262 3.173-.218 1.288-2.245 1.665-.847 2.835-.083 2.582-2.994 5.099-.145 1.059.029-.005.147-.026.079-.011.127-.023 4.244 1.512 2.956 1.559 1.704-1.517 1.671 1.378-4.168 1.432-.246.038-.074.011 2.277.195 2.683-1.009 2.938 1.143 2.007-1.148 4.373-2.328.626.11 3.119-.129 3.104-3.218 2.419-2.882 3.576-2.284 6.208-3.366 2.387-1.511 6.979-5.634 2.617-2.255 2.614-3.095 2.231-1.689.78-2.447 2.291-2.26-1.352-2.982.161-1.323-2.691-.7-.533-3.291 3.232-1.736 4.365-1.709 6.263-1.069 3.213-.165 2.876 1.377 2.468-1.189 2.974-.852 2.147.108 3.282-2.193 1.105-1.7 2.324-2.5 2.291-.603.11-2.894-.144.019-.082.011-.991-2.522-.924-.11 2.005-1.523-1.358-1.284.542-1.892-1.647 1.497-1.922-1.542.802-1.828 5.103-4.998.771-2.31 4.907-7.454 3.474-3.365 3.126-.922 8.97-2.097 8.713-2.372 1.928-.523 8.187-1.928 8.387-2.142 5.029-1.421.558-5.061.815-.862 2.049.619.474-1.383.791-.994 2.518.648-.481-2.242 2.442-.311-1.698-2.024 1.382-3.415 1.773-1.785-.686-.956 1.466-2.258-1.332-2.151.348-2.562-.91-.617.49-3.198 1.327-1.661-.376-2.939-.291-2.268 5.605-16.367 2.384-.052.97 3.23 2.077.694 3.215-2.288.121-.813 2.47-.741-.179-1.251 1.563-.481 4.28 1.783 2.696 1.692 6.231 19.974 1.12 4.783 2.878.574 2.439-.212-.467 1.873 1.436 1.458-.125 2.19 2.706 2.226.313-1.297 1.733.021 2.736 3.159 1.556 2.401-1.782 3.717-3.957 1.378-.158 2.137-1.336-.258-.279 1.51-1.536-1.727-.594 1.008.271 3.194-1.713-1.565.034 3.304-1.326-2.389-3.135-.274 1.048.936-1.741 1.922-.365-1.74-1.349 2.192 1.479 2.998-4.751-2.104.281-2.087-1.688-1.737.059-1.166-.029.021-.193 1.706 1 .361.242 1.906-2.229 1.269 1.214 1.141-.473 2.219-.063 3.351.545.448-1.209 2.627-2.126-.048-.076-.959-.726-.996-.301 4.755-1.016-.874-1.139 1.165-.711-2.973-.492 1.627-.429 1.026 1.214 1-.436 1.307-.146.032-1.765-3.712.07-.865.054-2.24h-.035l-.173 2.686-.806 1.854.573-.714.328-.537 1.834 3.902-.773 1.006-1.302-3.337.343 1.964-1.06-1.207-2.238 1.919-.799 2.65 1.316 1.777-1.88 1.092-.204 3.573-1.3.926-.343 5.062-2.367-.596-.512 1.145.715-.878 1.782.967-.545 3.48 1.405 2.767 2.724.606-.569 1.115-2.838 1.828.283 1.424-1.032.835-.689.941-.308.125.237.352-.008.006.751 1.488 1.616.241 1.31-.687.669.284 2.674 2.251-.536 1.717 2.671.856.599 2.089 1.854.736 2.052-.18 3.241-2.49-2.87-3.991 2.492 1.544 1.396 3.007-.521 2.002-4.829 2.247-.933 1.651-2.303 1.054-.383-4.116-1.287.565-.06 1.616-1.036.756-.692 1.94-2.358 1.451-.806.998-1.078-3.959-.602-.579-.111 1.398-1.752-1.679-.581-.061.027 2.199 1 3.255-.39 2.02-4.715 2.532.028-.49-2.001.958-2.404.317-1.804 1.336-2.085-2.311 1.719 2.573-2.545.762.059.051.121.052-5.407 1.29-1.91 2.137-.306-1.077-.686 1.404-2.931 2.889-2.772 1.899.058.308-1.436 2.118.236 1.253-1.509.723-.908 2.093.421-3.563.034-.708-.097-3.087-.62-2.006-1.985-2.139-.083.038 1.843 3.017.678 2.626-.362 3.91-.443 2.757-.944.613-.033-1.756-.374 1.011-.266 1.833-.449 2.168.865.526 3.209.018.808 1.862.062 3.891-.937-.17.982.205.462 5.505-.743-2.142-.467 3.712.688.632-1.924 3.126-.993.317-.024.076.929 3.518-3.116 2.172.501.6-1.12 5.123-.841 1.359-1.506.342.363-3.011-.553-1.536-3.817-.258-3.173-1.42-.731-.549-.09-.026-.069-.052-2.193-1.62.059-.02-.697-1.965-.133-.418 1.212-3.252 3.686-2.743.641-2.196-.075-.034-.739 2.18-.948.575-2.612 1.794-1.894 4.103.954.845.041 1.94 1.412 1.561 1.994 1.63.91 3.631 1.6 1.72 2.371 2.311 1.375-.252.653 3.302 1.373 2.999-.289.065-.223.05-.091 1.023-.015 2.947-1.375 1.145-.88 3.834-.729 2.41.668.134-1.911 3.951.243 2.472-2.143 1.792-1.017 3.946-.02 3.695-1.342-2.458.219-5.683 1.296-.354-1.484.18 1.277-4.257 1.225-1.553.341-3.139-.037-.024-3.595 2.195-.004-2.83-.404-1.851-1.179 1.076 1.662-3.041-1.294 1.001-.411-1.118.596-2.676-1.172 3.594-3.247-.687-1.062-.266-1.837-2.059.852-1.449-.537-1.187 1.476-.564 1.931.724 1.047-2.445-1.143-1.234.745-.972-.885 1.553 1.044.743-.612 1.976-2.456-1.528-2.678-.651.693-2.111 1.68 1.545-.71-1.655.9-1.712-1.027 1.059-.436-1.615.376-2.357 1.595-3.386-1.338 2.908-.942-.398-.362 1.751-1.061-1.585 1.447-4.612 3.879-.883-2.963.331.327-3.328-1.423.595.053 2.075-1.838 1.699.024-1.951-1.614 1.772.561.95-.753 2.699-1.607-.326-.628.773.093.017.612-.166 1.976 1.86-1.323.575 2.052.774-1.035.798.378 1.282-.673 2.86.581.967.857 3.283 2.487 2.326-.304 1.345-3.654-2.062-1.581-3.502.429 2.265.183.835 3.74 2.617 2.97 2.865.293 1.651-2.176-1.625-4.108-1.576-.354 1.177-2.374-2.635.877 2.187-1.283-.187-2.256-2.507-2.027 2.028-1.407-2.074 2.023-4.399.412-2.377-1.497-1.587.931 1.086.147.961.375 1.283-1.327 1.784-1.302-.298-.217 3.208.27 3.168 1.296-.159 2.476-1.813.7 2.409 3.09 1.379 3.303-.393 1.694 1.659-.721.695 1.481-.3 3.824 1.734-.836 3.696.31 1.478-2.775-.176-1.733-2.465-1.292-.035-3.436-2.523-.885-1.571-2.104-1.152-.036.035.326.98 1.972.338.478 1.719 2.08 1.105 2.067 1.983 2.776 2.476 3.561.301-1.609 1.202-2.021-.642 1.804.713 1.022-.437 1.926 1.226.118 2.429-2.927-2.085 1.508 3.295-1.596.654-3.637-3.146-1.85-2.31-2.389.607 2.198.192 1.252 1.519 1.542 1.398 1.035.991 3.717 1.392-.132 1.074.675-.598-.109 1.001 1.697.171-1.318 2.104-3.971-1.819.092-.81-.674-.804-3.375.198-.573-2.308.369 1.992-2.158-.541-3.51.565-.108-1.187-.954.125.248 1.435.961.119 2.23-.722 1.513 1.112 3.112-.11 2.075.849.689 1.794 2.745 1.042-.372.998.143 1.262 1.593-1.413.547.978-.169.517 1.517-.639.7-.185.275-.112.232.016-1.865-.402-.329-1.646 2.258.319 2.789-.408 3.239 6.276 2.632 5.589 4.457 6.149-3.182-2.767-1.309-3.365-.885-.956-2.072-4.573-1.386-2.929zm-13.311-11.146zm14.042 10.992l-.081-.151.696.016zm-.731.154l1.345-.29-1.345.29zm.731-.154l-.261.054.261-.054zm-159.174 143.046l-.013-.083.013.083zm-574.964 85.076l.937.848-.002.343.604 1.26-.673-.747-.237-.752-.941-1.068zm9.859 2.715l-.075.587-.303-.351zm9.67 3.39l-.293.739-.432-.124.151-.725zm.414.011l.507.445-.353.237-.43-.292zm.8.077l-.032.443-.496-.448zm-7.982-2.936l.478.191.01.428.952.629-.715-.053-.355.593-.681.051-.249-.577.739-.125-.794-.942zm2.889 2.528l-.323.104-.327-.506-1.218-.309 1.682.151.438-.114.254-.629.525.377-.457.278-.181.593zm-15.573-8.2l.304.432-.445.13zm18.613 7.264l-.537.981.763.25-.384.603-.936-.075-.473.245-.004-.637-.669.667-.066-.462.668-.367-.054-.457.747.399-.101-.992zm-14.171-5.63l.315.501-.69.418-.419-.339.07-.578zm16.103 5.553l.398.449-.337.309-.501-.132zm-23.354-9.478l.008.451-.626.325-.19.43-.755-.311-.37.413-.224-.591.865-.202.41.141zm33.461 12.485l-.187.178.705.431.736.059.804.338-1.991-.282-.872-.436-.613.036-.592-.592.555-.103.263.346zm4.631-.233l.389.496-.526.208-.795-.063.293-.567zm-6.524-2.16l.416.815-.466.482-.58.025.296.476-1.256-.088-1.489.116-.501-.407-1.365-.198 1.626-.129.93.249 1.189-.13.572-.408-.392-.415.511-.439zm-44.393-19.147l-.547.857-.268-.432-.891-.537 1.165-.093zm58.251 21.193l.345.252-.274.416-.814.205.043-.635zm3.768-.356l.232.535-.299.221-.862-.748zm-63.712-25.355l.928.562.148 1.03.54.382-1.075-.126-.268-.453-.81.203-.441-.589.487-.399-.701-.25.288-.297-.684-.349.946-.096zm66.236 26.34l1.613-1.292-.016-.532.894-.584 1.029.204-.311-.366.247-.593.837-.539.885-.041.76.509-.385.768-1.837.563-.973 1.029zm12.782-4.077l-.691.751-.177-.538zm-1.916-1.488l.07 1.187.854-.813.518.141-.022.644-.453.055-.884.794.877-.298.146.596-.979.125-.315.489-.343-.277-.061.658-.533-.198-2.776.723-.739.34-.808-.614 1.623-.541 1.586-.11-.187-.666.663.012-.104-.554 1.312.092-1.157-.414-.325-.791.595-.49zm-7.605-19.057l.925.317-.458.321zm-.334-4.279l-.713.545-.383-.509zm14.353 23.667l.106.414-.748-.115-.14-.289zm-3.42-1.149l.885.751-.894.474-.642-.17.011-.847zm1.782-.172l-.318.472.478.105-.632.552-.321-.831.316-.376zm10.312.298l.862.639-.876-.102zm2.269-2.968l.141.686-.353.319-.326-.657zm-5.4-1.189l.844.119.276.596.247 1.485.52-.082.217.554-.653-.109-.121-.347-.426.55-.648.183-.796-.273-1.129-.043-.948.416-.151.42-1.158.304-.74-.296-.251-.805.174-.451.841-.234.764-1.293.533-.293.675.289 1.438-.666zm7.347.154l.616.537-.414.295-.527-.774zm8.584.542l-.004.598-.623.515zm-1.249-.319l-.171 1.065-.989.635.126-1.141.499.313.192-.852zm-1.775-.842l-.048.776-.648-.553zm-1.326-.394l.059.667.366-.041.375.853-.286.358-1.179-.618.142-.857zm1.712-.213l.261.426-.628-.183zm5.709-8.779l-.032.446.961.355-.156-1.428.306-.555 1.173-1.401.842-.486.566-.665.768-.542.527.686-.094-1.032-.316.055-.002-.726.491-2.344.271-.511.42-.039-.458-1.057.309-.976.767-.808.739-.724.298-1.058-.127-.447-.459.606-1.358.626-2.046.798-.576-.282-.09-.502-.686-.539.327-1.266-.453.531-.547.157-.154.979-.916-.767.576.541.373 1.334.196.542-.716.569-.51-.354-.976-2.21-.812-.594.138-.609-.378.115-.291.694-.391.147-.28-.709-.787-.157-.021-.851-.322-.249-1.673 1.072-.657.117-.135.102-.955.468-.224.495-1.362.519-.063-.466-1.232-.307 1.09-.295.811-.49-.363-.099.004-1.128.902-.746-.857-.156-.286.288-.334-1.07.353-.985.902-.677-.415-.93-.192-1.117-.341-.564-.321-1.363.208-.378-.747-1.201.508-.383.492-1.285-.123-.22-.644 1.407-.541.286.242.932-.216 1.051-.518.318-2.006.599-1.812.043-1.133-.452-.187-.773.332-.102-.771-.818-.626-1.202-.034-.426.527-.485-.052-.469.473-.06-.127-.54.416.048.4-.499.482-.047.352-.571.785.16-.185 1.13.494-.013.815-.772-.357-.607-1.14-.469.717.054.5-.284-.66-.191-.611.388.043-1.237-.61.56.148.489-1.427-.02-.158-.568-.638.12-.143-.355-.859.02-.126-.419.789-.164-1.067-1.325-.144.753-.568-.164-.104-.937.18-.272-.643-.319-.094-.777.534-.329-.442-.579-.673.302.064-.936 1.223-.062-.537-.311-.327-.749 1.536.069-.29-1.133.427-.836 1.508-1.628.784-.617.6.142 1.214-1.222.823.449.812 1.56.017-1.629-.388-.698.075-.415.927-.088.172-.588.851-.511.48.566.839-.048.766-.845.755-.345.818-1.096.203-.548.821.471-.449.285 1.826.09 1.16-.224 1.244-1.627-.314-2.082.028-.99-.686-1.05-.727-.154.221-.709 1.084.206.85-.68.123-.69-.247-.719-.632-.661.391-.086-.437-.026-.681.952-.888-.13-.651.422-.723.053-.245.381-.91.457-.373.885-.502.357-.014-1.127-.814-1.117-.513.332.604.622-.077.625-1.225-1.192-2.012-.283-2.137.455-.752-.449-2.377-1.063-.497-1.091.37-.461-.011-.518-.614-.747-.399-1.095.609.308.639-.326.41-.575.795.425.401 1.108.466.198.705-.356-.321-.351-.792-.211-.205.216-.483-1.008-1.763-.912-1.437-.46-1.154-1.25-.407-.252.922-.679.549.107.113-.547.919-.434.243.374 1.103-.668.519-.573 1.085-.39.537.465 1.145.171.346-.218-.879-.709.584-.551.741-.294h1.05l.06.251.952-.848.804-.108 1.47.153.056.912-.352.381-.001.771-.301.319.111.641.495.497.381-.136 1.052.306.945-.119.249.449.625.137.965-.162.434.76.263-.69.907-1.134.713.417.594-.122-.396-.712-1.36-.512-.703.365.317-1.102-.634-1.298-.738-.371-.279-.886.424-.502.41.042.672 1.173-.247.85.335.715.79.777 1.11-.521.89 1.201 1.428.024.182-.605-.239-.783-.872-.029-.385-.475-.83.005-.306.622-.678.025-.879-1.341.34-1.035.86-.434-.822-.699-1.069.248-.944-.066-.299-.479-.507.131-1.948-.919-.077-1.95-.417-1.326-.86-.869-1.739-2.315-1.346-.985-.189-.582-.965-1.117.506-.188.542-.995.392-1.924 2.017.508 2.523-.044.82-.25 1.173-.849 1.199-1.353.72-1.964-.24-.259 1.162-1.057.401-.778.771-.621.635-.818.354.593-.787.239.485.106.58-.533.667.066 1.388-.688 1.287-1.082.717-.117-.355 1.25.284.932.055-1.192.331-.307-.319-.869-.427-.054 1.094-1.033 1.109-.326-.439.312.303.318 2.627-.301 1.154-.663.584-.635 1.095-1.526.325-.264.466.495.7.185.077.463 1.005.06.107.543-.475.613-1.002.406.472.149-.328.443 1.025.047.363-.2-.065-.576.56-.458.233-.577.186.45.554-.31.526.608-.219.676 1.078.759.546-.72.951-.034.772-.246.766.273.236.88.217-.926.787.349-.422.876.017.527.807.159-1.175.264 1.97-.114-.373.798 1.248.085.278.361.169-.561 1.018-.141-.113.866.697-.579.665-.218.5-.536 1.574.04.752.531.548-.061.268.502.854-.234.771.667 1.72.376 1.129-.395 1.244.215.321-.261 1.463.94 1.453-.065.246-.353 2.636-1.056 1.197.27 1.015.582.403.456 1.089.171 1.109.831.309-.36.52.12 1.44 7.266 3.355 16.926 5.017 25.312 1.926 9.719.109.549 1.637.249.079-.608 1.68.492.696-1.18 1.92-.546-.007 1.78.596.493 1.231.311.465.819 4.087 2.547.763 1.556.042.524 1.846-2.196.779-.248.145-.677-.312-1.316.551-.141.044-.658-.433-.157 1.165-.745.612-.626.641-.655.959.419.891.645.022.924.374.446.347.345.886-.045.175.336.741.193.793.895.446.583 1.602.407.661.598 1.431.795-.187.355 1.417 1.161.642.843.989.784 1.753 1.788.923.71.693.717-.153.881 1.185-.082.1 1.153.991.128.57 1.236.835-.382 2.199.669 1.052-.126.764.417.583-.049.374.57.716.049.425-.344.606.574.232.616-.184 1.056.51 1.103 1.224 1.629-.243.716.002.905-.224 1.096-.771 1.295-.504-.538-.116.812-.42-.095-.764-1.289.417-.781-.621.403-.428-.573.473-.981-.989-2.429-1.704-1.287-.545.369-.191-.256-.892 1.218-.48.21.618.4-.073 1.99-.929-.3-.466-.897.419-.654-.24-.919.246-.099-.463-1.303.635-.452-.632.023-.479-.649-.702-.027-.232-.396-.691-.282.015-.976-.604.227-.294-.409-1.138-.26-.885-.799.497.061-.374-.791-.052.495-1.496-.082-.901-.185-.21-.609 1.219-.63-1.01.094-.648-.803-.009-.573-.762-.156.099-.705 1.672.488-1.136-.636-.587-.079-.207-.754.071-.216.038-.11-.219.662-.237.353-.707-.808-.998-.701-.393-1.123.281-.35-.301-.471-.289 1.433-1.28-.65-.728.093-.548-.876-.693-.727-.581-1.941-.031.005.231.386-.012 1.175-.576-.554-.349-.813-1.241-2.146-.125-.045.06.831-.442.016.85.732.183.857 1.481 1.97.018.368.747 1.236.091.744-.6.195-.543-.458-.652-1.015.279.761-.57-.189-.888.57.015-.757-.766-1.263-.572-.57.928-.725-.972.072-.732-.868.634 1.237-.032.751-1.182-.255-.345-.805-.188.599-.925-.244-.353.507.93-.078.912.273-.36.277 1.053.292-.389.751.554-.459.448.064.94 1.311-.645.615-.1-.305-.63.583-.452-.268.289.878-1.093-.68-.804.094-2.098-.945-1.421-1.005-.24-.602-1.025-.671-1.074-.211.071-.55-.612.373-2.78-1.096-.618-.069-1.055-.476.466-.425.139.141.427-1.034-.756-1.133.256-.641.8.736.175-.103-.752-.783-.474-.197-.057.688-.363.888-1.518 1.191-1.835.111-2.057-.576.466-.84-.634-1.009-.373.378.609.463-.632.577-3.317-.223-3.061.763-1.017.512-1.321-.768.014-.278-1.153.179-.4-.531-.804-.04.271-1.155-.107-.92-.62.642-.137.517-.661.807-.591-.458-.865-.271-.64.206.91-1.463-1.235.424.222-.627-.986.671.517-.807-1.109.445-.773.065-.138-.269 1.112-.465.459-.449-1.159.384-.656-.577.234-1.165 1.18-.155-.235-.293-.824.195-1.125 1.324-.457-.457-.164.537-.623.459-.441-.101-.112-1.218-.269.501.14 1.029-.447.192-.335.08-.73-.668.283-.942.5-.784.079-.624-.749 1.317-.17.563-.347-.406-.332 1.591-1.014.787.03.394.733-.805.048 1.056.367-.916.36.914-.4.559-.503-.245-.514.541-.009.265.623-.625.625.307.542-.713.369.443.096.671-1.058 1.109.731.301-.765.85-.171.961-.727.208-1.476-.172.242-.539-.429.091-.399.748-.331-1.284.026.845-.522.624-.162.623-.275-.907-.111 1.888-1.069-1.119-.012.546.51.252-.412.415-.048.557-.734.345.168-1.365-.694 1.878-.457-.497.062.734-.46.03-.834 1.454-.12-.739-.381.804-.802-.297-.195.31-.944.347-.035-.369-.751-.228.214-.973.633-.445.853-.04.001-.464.858-.374-.091-.293.854-1.07-.436.011-1.402 1.104-.46-.07-.769-.776.483-1.737.871-1.224.092-.961.26-.178.074-1.07-.516-1.117 1.085-.488 1.084-1.038.924-.694.622.663.516.094.879-.426.409.261 1.712.194.243.21-.542-.642-.514.145-1.24-.506-1.071-.806.728-1.121 1.197-1.05.517-.143-.465-.179-.808.217-.704.759-.26.935-1.503.041-.406-.743.01.535-1.161.633-.555.961-.994.29-.976 1.067.334.785h-.461l-.613.491-.163.464-.652.585-.232 1.346-.539.533-1.202-.122.83.495.371.617-.425 1.036-.331.246-1.348.117-.182.351.935-.013-.182.787-.53.383-.666-.097.265-.466-.401-.494.043.699-.463.912-.795.073.332.692-1.255.601-.073.974-.315.171.196 1.008.333-.369 1.231-.015.5.589.732.404.075.434.192-.008-.31.061-.33.906-.784.646-.746.034-.213.779-.419.015.129.847-.475.228.265.299-.745.78-.063.488-.436-.629.063.555-.401-.1-.598.617-.982-.096-.149.794-1.033.69-.17.362-.741-.328.065.829-.499.191-.004.53-.968-.163-.069.854-.647-.251-1.171.918-.042.369.733-.259-.272.66.167.357-.721 1.11-.619-.374-.4.914-.192-.448-1.18 1.26-.626-.679-.149.605-.563.487.358.449-.618.063-.349-.445-1.106.441-.333.436 1.086-.117-.156.524-.979-.371.037.376-.749-.163-1.4 1.334.979-.432.828.426-1.289 1.912-.409-.901-.053.838-.729-.251-.306.563-1.559.202-.318.555-.104-.711-.279.036.06.82-.324.797-.184-1.279-.596-.223-.338.44-.281-.217-.225.612-1.303.568-.75.83-.2-.712-.285.764-.43.013-.464-.52-.338.512-1.242.405-.695-.109.219-.737.495-.699-.814-.269-.48.515-.046.821-.847 1.114-.549-.171.223.782-.465.281-.371-.577-.37.836-.794-.304.001-1.325-.468-.398-.302.302.336.565-.004 1.448-.352-.659-.19.559-.782-.068-.191-.872-.694-.436-.152.662.64.611-1.344.729.476-1.404-.031-.531.435-.285 1.256.059.401-.798.559-.373.518.105-.085-.65 1.299-1.329 1.777-1.07 1.616-.238 1 .063.857-.16-.632.612.762 1.21.394.24-.231-1.271.857.186.156.522.79.258.147-.455-.984-.774-.15-.433.939-1.719 2.06-1.548 1.871-.673 1.641-1.248zm98.123-3.456l.81.393.087 1.305-.824-.994zm.881-4.006l.857.554.919 1.128.336 1.356.027 1.007-.37.601-1.14-.313.279-1.258-.476 1.315-1.376-.542.355-1.208-.419-.12-.218-.548.502-.642-.406-.567zm-104.127-5.689l-.784 1.407-.669.121.167-.977zm10.911 15.416l.873.233-1.203.02zm5.888 5.568l-.659-.278.721-.452zm6.188-5.195l-.262.383-.657.006zm-2.169-.24l-.326.705-.682.589.262-.807zm1.46.129l-.564.6-.466-.339.483-.458zm3.064-4.075l.829.086.234.395-.949.226-.462.678-.277-.749zm-.898-4.979l.584.386.28.69-.892-.532zm.659-.217l.941.554.173-.285.505.307-.386.563.619-.003.32-.666 1.09.61-.789.687.319.002.006.783 1.098-.148-.627 1.303-.615-.059-.801-.461-.251.228.658.416-.257.854-.39.072-.677-.47-.316.196.546.324-.463.324-.675-.071-.802 1.04-.571-.119.415.588-1.265 1.482-.888.153.27-.625.776-.798-.41.043.183-.693-.553.585-.236-.154.57-.801-.878-.281-.852.234.149.501.439-.397.731-.073-.669 1.375-.853-.535-.037-1.31-.751-.654.117-.853.329-.584.956-.85 1.218-.033.08.655.793 1.569-.187-.726.095-.984-.257-.546.884.083-1.161-.627.008-.518.73-.551.525.407.093.859.209-.874.983.31-.12-.697.661.496-.783-.918zm.206-.7l.369.081.487.698-.963-.437-.649-.053.533-.569zm3.004-2.142l.262.52.49-.226-.165.694.618-.431-.055.764-.313.395-.858-.581.226.726-.586-.014-.403.369-.066-.874-.187.928-.519.09.007.464-1.327-.736-.15-.643.729.082-.381-.399.186-.336.885.154-.102-.802.499-.51.608.103.439.878zm-1.187-.953l1.045-.442-.434 1.078-.512-.155zm60.684-7.242l.152.391.93-.322.335.159.019-.014.438-.332-.103.281 1.688 1.645.264.75-.264.048-1.695-2.081.289.613-.358-.078 1.218 1.466.837.556.286.701-.648.121 1.016.531-.219.611-.815-.362.417 1.13-.416.391-.09.559-.534.63-.445-.639-.193-.867.358-.416-.163-.527-1.429-1.762-.124-.722-.762-1.309.078-.289-.105-.601.054.597-.58-.48-.586-1.303zm.348-.92l1.143.59-1.274.105-.289-.267zm5.529 14.977l.53-.184-.424.612zm-4.257-4.342l-.526.207-.046-.513-.657.1-.303-.774.384-.726-.708-.244-.153-.982-.548.225-.754-.567.708-.223-.478-.172-.015-.724.705-.409.025.431.451-.225.839.369.593-.178.14.836 1.257 2.154.768 1.571.547 2.454.161.543-.629-.312-1.402-1.556.181-.657-.516.286zm9.851-.39l.364.643 1.194.454-.346.351.553.591-.677.529-.511-.288.18-.327-.753-.236-.271.346-.544-.959.356-.271.009-.64zm-1.266-.361l.433.276.098.771-.641.504-.875-.41.027-.677zm2.35 1.067l-.811-.408-.158-.765-.366-.505.552.102.603.551.378-.203.677.792-.36.703zm-3.77-3.058l1.723.975-.76.869-.472.057-.183-.813-.521-.977zm-3.131 1.424l-.197-.345.606.016-.043 1.838.161 1.703.216-.213.196 1.265-.31-.13-.518-1.184.433 2.003-.478-.316-.543-1.173-.12-1.037.645-.217-.454-.633-.765.109.024-.362-.635-.622-.283-.807.492.129.001-.805.796.139zm-.752-2.167l1.723.045 1.107-.314.575.352.702 1.586-.121.458-.822-.445-.795-.919.733 1.404.506-.022.224.478-.211.693-.922-.084.113.295-.728.345-.728-1.44-.013-.814-.383.077-.338-.514-1.031-.581zm-7.809-4.164l-.223.466.443-.004.479-1.002.339-.256 1.348.1.314.393-.121.626-.857-.182 1.176.671-.877.438-.674-.3-1.966-.467 2.095.763.653.483.319-.466.601-.182.824 1.646-.798.359-.423-.264-2.609-.954 1.18.874.288.863-.38.703-.486-.022-.792-.726.802.358-1.511-.94.029-.296-.804-.484-.213-.222-.135.04-.08.024-.08-1.122 1.382.733.006-.033-1.732-1.127-.008-.816.484.147.231-.451.547-.081.362-.652 1.284.406zm-2.774.424l.667.402-.104 1.148-.447-.324zm3.058-2.356l-.012-.042.012.042zm.728 6.441l.687.616.402.782-.063.551-.706.338-.595-2.177zm-95.313-29.566l.784.318-1.067.816.064-1.207zm1.197-1.392l.808.918-.02.679.352.827-.133.6-.62-.957-1.79-.834.2-.618.597-.723zm1.385-1.323l.89.481.503.665-.833.526-.475.742-.593-.089-.618-.951-.606-.386.088-.448.776-.504zm2.545 20.514l.244.487-.34.194zm-12.024-3.286l.081.714.684-.005.581.443-.415 1.506.369.925-1.533.141-.698.633-.661-.841-.577-.063-1.033-1.16-.378-.043-.626-.691-.081-.807.371-.233 1.42.508.151-.431 1.287-.509 1.014.257zm-20.858-6.153l-.033.631.677.988.667.258.368.604-1.139-.348-.806-1.365-.318-.231zm25.327 3.619l.088.41.753-.087-.196.497.731.103.547.374.056.682-.647.553-.512.109.168.494-.458.131-.523.931-.475-.126-.744-.987.614-.604-.738.152-.666-.471 1.59-.794-.145-.51.485-.13zm66.045 6.7l-.951 1.363.025-.358zm-11.684.85l-.152.641-.479.189zm-.667.224l.189-.796.301.313zm-.062-.994l-.33 1.131-.42-.376zm2.824-1.264l.415-.038-.223.563.556-.285-.833 1.04-.807 1.472.226.417-.738.565-.804.163.103-.533 1.31-1.65.689-1.116zm-2.806.012l-.024.66-.398-.254zm4.621-1.145l.599.061-.013.454.742-.264.172.232-1.034.607-.556.583-.285-.262.624-.625-.733.216-.062-.31zm-4.257 1.936l.163-1.216.7.038-.309 1.798zm6.532-2.902l.013.192-1.221.883-.303-.393zm-5.29-.073l.455.158-.556.328zm-3.862.357l.006.049-.006-.049zm1.426-.585l.38.619-.497-.168zm.404-1.125l.435.71-.699.164zm-16.933 10.753l.282.389-.688.15zm9.281-.173l-.294.747.065-.845zm-4.407-6.647l-.375.447.23-.936zm.876-65.634l-.123.509-.338-.456zm-31.999 43.233l.069.549-.925-.254zm-25.979-6.146l-.023.693 1.58 1.211 1.625-.495.51.213.385.632-.033.805 1.023.627.201.521 1.491.467.863.464-.678.875-1.247-.528-1.017.822.054.348-.651-.012.249-.486-.428-.84-.953-.514.232-.518-.805-1.021-.685-.599-1.329.196-.527.321-.764-.604-.102-.843zm22.407-13.527l-.396.223-1.673.322zm106.46 65.604l.458.221.036.711-.811-.79zm5.1-2.27l.374.47-.419.565-.698-.275zm-6.002.762l.824.848-.165.301-.582-.129.182-.452zm-1.1-.004l.572.608.084.571 1.719 1.348.313.46-.621.132-1.284-1.095-.958-.989-.215-.891zm5.712-1.972l.598.367.279.922-.979.232.154-.849-.398-.329zm-6.786 1.607l.589.344-.021.361-.611.241-.219-.743zm-.888-.179l.427.086-.568.798zm.301-.601l-.567.441.168-.584zm-1.143-.097l.54-.048-.111.704-.479-.223zm1.268-.507l.382.35-.168.403-.483-.406zm-1.285-1.411l.974.135-.759.193.223.498-.765-.361zm.801-.791l.429.82-.503-.329zm6.408-2.413l-.595.356.485-.651zm-7.357 1.001l.507-.067.25.841-.334-.029-.746.701-.173.501-.395-.137.322-1.235zm-1.003-1.01l.62.017.92-.317.78.777-.078.569.676.453.511-.266.814.382.862.682.417 1.045.252-.357.433.581.661.413-1.299-.318-.535.71.796-.484.465.712.321-.289.878.736-.483.507.615-.079.091-.581.472 1.006-.452.462.562-.002.413.787-.5.193.672.212.05.903-.866.035-1.062-1.247-.714.252.035-.989-.34.376-.035-.663-.326.294-1.168-.447-.951.212-.175-.662.654-.204-.637-.408-.01-1.038-.457.471-.652-.084.428-1.442-.457-.391-.744-1.666-1.043.221-.432-.556zm-107.732-176.583l.786 2.055-2.456.281-1.18-2.522zm2.392-.115l4.849 2.738-2.64.064-1.886-.62zm1.866 15.819l1.246 1.32-1.624-.393zm13.088 8.172l2.492 4.289-1.908-.709zm1.758-8.247l3.264 2.175.169 2.112-1.881-.887-.316-2.202zm494.093 92.232l-1.879.475-.006-.065 1.881-.515zm86.073-8.283l-.421-2.652 1.191 2.52 2.109 5.421zm7.53 14.435l-2.482-4.217.075-.012 2.487 4.214zm-65.149 3.959l.39.993-2.115-.609zm40.36 23.385l.053-.008-.053.008zm42.944 4.999l.182-.032-.182.032zm-37.537 8.927l.065-.008-.065.008zm40.443-3.87l.166-.027-.166.027zm-34.836 11.392l.042-.007-.042.007zm37.851-6.391l.024-.004-.024.004zm-35.755 9.021l.065-.011-.065.011zm2.14 1.262l2.217 3.577-.582.24zm14.561 14.705l.078-.013-.078.013zm20.956 5.144l-1.708 4.723-1.87 2.332 2.565-4.183zm-33.32-117.305l1.447.402-1.185 1.988-.967-1.62zm1.186-4.308l1.457.913-1.025 1.153zm-.85 7.198l-.342 2.685-.53-1.984zm-2.043 7.702l.11-.035.822 1.602-1.348 1.783-.813-1.177.383-2.158zm1.456-4.595l-.784 3.127-1.073-1.705zm-1.577 11.691l-.582 3.867-.879-2.656zm-407.475 74.985l1.718.272 3.549.352-2.868 1.896-3.305-1.007-4.33-.014 1.009-2.272zm20.443 16.941l4.663 2.737 2.29.377 3.094 1.461 3.526 3.17-.136 2.085 1.538-.024.362 1.734 3.128 2.26-2.971 3.245-2.71 1.396-2.865.205-3.822 2.522-2.549 3.877-3.991-2.109-.667-1.5.553-4.224-1.873-5.435-1.247-1.711 2.168-2.272 1.996-3.342-1.196-1.767-.148-2.011zm-62.056-36.49l1.446.821-.351 4.11-2.004 1.697-3.329-.885-2.12-1.206-.421-1.621 1.07-1.545 2.464-1.324zm-12.022 4.137l.135 1.786-1.464.662-.817 1.585-.446-1.948zm54.14 20.135l1.556.291 1.538 1.955-.522.857-2.212.533-1.626-3.316zm7.272 6.036l.28 1.242-2.207.602.049-.963zm-.586-7.958l2.152 2.469 2.757-.906 1.657.347 2.028 1.904 1.962.591.233 1.553-1.011 1.023-4.486 1.329-2.461-.405-.354-3.213-2.894-.61-1.079-1.321.369-2.287zm-24.14-12.62l2.557 3.424-.123 1.213 1.351-.018 1.972 3.025-2.543.776-1.7-1.419-3.65.688-3.074-5.213 2.733-.155zm297.664-26.604l-.603-.453.232.153zm0 0l-.067-.037.067.037zm-.067-.037l-.304-.263.304.263zm-38.698 2.195l3.018 1.37-2.112 1.479-3.007-1.513zm24.536 6.673l.008.134-.008-.134zm11.135-3.827l.734 1.263-2.337.018zm-24.752 1.6l1.279.872-.527 1.853-1.867-1.481zm281.922-330.3l.872 1.883-1.499-.763zm3.702-4.379l1.823.724-1.125 3.27-1.659-1.272zm-81.623 126.566l-.857 2.703.197-3.589zm18.211 14.523l.263-.094-.263.094zm-10.886 3.759l.106-.029-.106.029zm.563-.119l-.29-.331.159-.155.29.454zm-.333.068l.043-.399.054.377zm59.529-82.32l2.309 1.399-3.652 1.277.055-1.944zm8.394-.364l1.087 1.635-1.987.765zm-261.709-65.712l.989-1.627 2.501-1.69 4.614-.859 1.87 1.182-3.078.54.297.745-3.448 3.01-2.004 4.292-.46-2.125-2.361-.427-.276-1.832zm-2.981-15.506l2.785-1.292-3.076 3.684-3.802 2.067.682.499-2.556 1.222-.866-1.561zm68.921 34.087l-3.714-.293 2.094-1.621-.718-1.153 1.755-.01 1.657 1.727zm-9.549-10.281l.896.008-.509 2.23-1.38-1.226zm-3.058 13.861l2.791.515-1.715.896zm-12.448 2.68l.869 2.569-1.616.67zm-4.185 13.361l-1.324-.565.789-1.037zm97.507 23.846l1.497.471-.369 1.35zm84.775 29.003l.06.226-.06-.226zm-4.664 1.185l.234-.391-1.603.126.028 1.279-2.33.035.513-2.569.448-1.145 2.285-.333.048-1.747 1.802-1.321 1.65.691-.737-1.062 3.826-.612.577-1.317 5.235-1.246 1.758-.749 3.649-4.037-1.437 3.327-1.463 1.817 1.514.007 1.367-2.356 2.361-1.539 1.253.746 2.235-2.416.557.51-6.645 5.497-1.053-.226-1.579 2.072-1.212-.057-1.764 1.831-1.925.374-1.488 1.351-1.25-.062-2.342 1.716-4.015 2.179zm-.943.089l.049.249-.049-.249zm-3.448.385l.046 1.854-1.73 1.497.253-2.892zm-1.181 105.71l3.102-2.16-.463-5.883-.596-1.635.653 1.39.451 7.044-3.099 1.335zm-27.926 29.916l.032.078-.032-.078zm-9.137 3.01l.117.083-.117-.083zm72.434-166.406l.318 2.836-1.142-.223zm-81.253 181.771l.464.188-.464-.188zm-19.249 19.937l1.023.882-1.885 2.311zm.431-4.405l1.49-.087 1.804 1.262-1.471 1.253-.636 1.942-1.091-1.824zm-1.526-.493l.994.161.929 4.096-1.772-1.18-.984-1.787zm-221.195 72.602l.069-.044-.069.044zm4.002 6.328l-.969 1.002-5.213 3.647 4.28-3.902zm-34.342 22.964l.677-1.472 1.34-.114 1.842-1.654 3.196-1.159-7.229 4.763zm-3.822 4.43l-.081.357.081-.357zm3.104-3.706l-1.963 2.703.247-1.453zm-8.509 21.71l-.279-4.79.324-1.658.195-.631.079-1.762 1.888-3.848.417.099-2.162 5.515-.539 3.278zm3.564-15.328l1.506-1.921-2.091 3.944zm-2.768 20.834l.072.002-.072-.002zm1.022 1.743l-.143-.129-1.124-.873.409-.738-.421-1.392.452.474.301.92zm-.828-2.658l-.831-1.398-.348-3.02.189-.173zm1.022 4.43l.224.003-.224-.003zm-310.355-461.978l-.022 2.41-1.255-1.089zm-2.892-2.213l1.259 1.569-.768 1.764-.971-1.075zm3.446-.735l1.601 1.499-2.783.415-.458-1.229zm2.06 6.726l.56 1.995-1.889-.224-1.239.737 1.422.762-.18 3.67.602-1.38 1.488 1.619-.658 2.277-2.158-3.017.562-2.264-1.538-1.745 2.197-2.775zm-2.895 12.609l.092 2.206-1.088-.565zm-.278 5.54l-1.424.793 1.51-2.771zm400.895 54.404l.575.459-2.665 1.922z"/><path class="state-boundary" d="M105.582 130.614l5.128 1.616 4.037 1.104 3.814 1.071 12.472 3.531 11.124 3.305 7.534 2.115 11.739 3.067 8.53 2.181.483.129 15.102 3.627 15.716 3.583 6.936-30.794.665-2.936.715-.591 1.075-1.826-.11-1.948 1.272-.96-.644-1.88-2.932-1.786.716-3.347 1.277-.891 2.204-3.389 2.166-1.284 1.251-1.511.154-1.648 1.059-.862 2.008-3.168 2.627-3.981 1.617-1.72-.535-2.747-2.715-2.581-.978-2.886-.129-2.005.754-1.175-.967-3.581.533-1.416.478-2.103 2.391-10.624.534-2.395.435-1.933 2.458-11.066.286-1.232 3.365-14.42.618-2.749m251.481 85.584l-.154-1.615.22-1.766-.505-4.001-1.74-2.941-.566-2.65-.189-.003-.025-3.116.527-2.541-.962-1.377-.004-2.647.124-1.61-.194-4.872-.557-3.248-1.529-3.679-1.514-5.599.063-.364.349-2.422-.536-4.047.869-2.655-.727-1.31-.863-4.488m125.485 67.682l-1.795-1.655 1.003-2.76-3.146.028.996-2.856-.643-1.061.51-2.16-.928-.838-2.834-.847-1.059-.711.072-1.846-3.97-.681-1.578-.732-1.928.284-3.313-.864-.785-.385-1.361-.669-11.022-2.258.018.216-2.531-.752-1.622-3.127-2.458-.89m-419.671-40.71l1.222.114 2.148 2.604.267 4.605-.347 2.276-.266 1.493 1.269 1.168 4.519 2.426 4.622-.665 1.726-.623 3.681.659.889.776 2.72 1.334-.036.955 3.66.513 3.77-.846 1.958 1.334 3.518.357 3.126-.891 1.766.002 2.596.261 1.555-.925 1.732.576 3.92.699 2.057-.778 12.51 3 .24.058 4.733 1.14 1.55.377 7.126 1.661m263.464 76.451l.026-6.55.041-6.503v-.002l.04-6.494.013-1.644.016-3.275.01-3.2.012-5.448-.226-1.078-2.945-1.77-1.802-3.111-.023-1.16 2.417-1.799 1.196-3.529-8.639-.08-9.758-.177-.383-.009-9.307-.283-3.657-.131-9.258-.349-2.103-.094-8.209-.406-19.299-1.085-.023.001-12.212-.842-.698-.053-13.603-1.082m441.709 12.125l-.186-1.724-3.072-2.195-.468-2.982-1.561-4.418-2.684-8.878-2.914-9.255-2.992-8.935m-27.426 12.701l.319 3.263.692.457.145 3.598.578.867.375.234 1.076 2.022.505 3.042-.676 1.557.039 2.852 1.794 4.097.466.96-.356 2.199 1.698-.069 1.034 1.161.978 4.354 1.396 6.832.998 3.578 3.224-.698 1.239-.269 6.294-1.337-1.866-1.997.746-3.225-.791-2.71-.091-1.371-.855-6.332.519-.684-.101-1.827.926-1.695.354-7.535-.676-3.009 2.388-1.151.675-1.294 1.93-2.427.137-1.576-1.994-2.649.981-3.416-.571-1.814m-419.185-36.902l-.567 6.728-.365 4.507-.584 7.254-.948 11.061-.11 1.245-1.082 12.757-.158 1.864-.415 4.838-.523 6.221-.086 1.179-1 12.452-.576 3.994-12.875-1.217-.669-.066-12.286-1.11-3.13-.339-21.572-2.67-4.423-.531-4.86-.655-15.375-2.186-11.846-1.604-4.392-.864-1.134 6.167-.483 3.566-1.426 9.08-1.402 8.935-.539 3.438-.865 5.484-1.54 9.398-1.516 9.498-1.236 7.837-.983 6.097-.758 4.718 13.794 2.133.66.098 13.159 1.828 15.685 2.047 8.333 1.006 6.372.752 7.476.904 1.798.217 12.702 1.299 4.644.448 12.393 1.051.644-7.349.267-3.208.208-2.507.484-5.694.97-11.426.62-7.353.728-8.855.045-.475.546-6.547.466-5.37.062-.734.6-7.29.652-7.952m-100.333 44.324l-6.28-.978-8.191-1.338-.755-.131-11.338-2.011-14.107-2.543-3.257-.639-10.22-2.067-14.932-3.164-11.724-2.599-.118-.04m605.143-21.302l2.345-.49 4.718-1.032.402-.088 8.043-1.831.317-.845.106-.155 2.067-1.792.186-1.077 2.738-.988m-31.558 24.042l-.125.029-.313-.644.201-8.234.113-4.591m-242.42 79.89l.743-.462-.719-2.815.686-1.064 2.338-.705.966-1.154.187-2.43 1.687-1.997.041-2.732-.002-.039-.648-1.53-1.801-1.495.483-1.786v-.004l.36-1.619 3.485-.835 1.797-.274 4.193-2.612.219-2.67.954-1.079 1.079-2.817-.139-1.935-.226-1.581-2.216-1.318-1.071-.566-1.276-2.83-2.568-1.679.15-.57m-182.513-11.886l7.433.679 6.81.521 2.824.219 9.615.664 11.585.717 13.97.679 9.011.379 3.786.133 10.277.3 2.511 2.244 2.11.869 1.587 1.444 1.102-.07 1.202-1.679 3.157.212 2.051.055 2.413-.287 1.992 1.3 1.953.738 2.857 1.107 1.466 1.022.896 2.374 2.515.662-.7-1.337-.14-1.313-1.554-1.447-.081-1.109 1.272-2.672.395-2.65.768-.622-.274-2.562-1.079-.758.436-2.507-1-2.012 1.97.011 5.391.019 2.589.001 5.478-.03.9.001 6.383-.061.794-.017 5.565-.07 2.628-.041 3.736-.064 4.345-.101 2.042-.049 6.047-.178.324-.01 6.35-.225 1.402-.056 4.976-.2 4.7-.204 1.615-.073 5.298-.254.238 1.446.089 1.369 2.052 1.627-1.432 3.409.36 1.713 1.472 4.363 2.369 1.324 2.697.687.971 2.251 2.928-.145 6.833-.395 1.21-.077 5.959-.301.485-.031 5.816-.322 2.237-.111.943-.102 5.491-.453 1.468-.13 5.348-.404m182.503 19.303l.948-1.28 3.039-2.595-3.821-2.89-1.971-1.11-.57-2.174-1.882-.554-.167-.286-.359-3.189 1.294-2.075-1.363-1.582 1.575-2.789-.328.117 1.318-3.869 1.548-1.843-1.024-1.125-3.309-.305-1.695-1.982-.39-2.811-1.591-1.57-1.632.173-1.962-2.221-1.608.378-8.398 1.789-.556.118-5.543 1.162-4.976 1.022-.528.107-8.706 1.738-1.884.417-6.188 1.137-1.366.258-8.278 1.583-1.936.299-7.438 1.366-2.066.33-.865-5.012m-61.712 69.152l-.66 1.492.389 2.423 1.174.688-.135 1.41-2.922.767-2.4 1.611-1.979-.63-1.648.684.599 2.279.058 1.177-2.658 3.015-1.251 2.265-.772-.301-1.349 2.235-.354 3.29-.714.21-2.634.057-1.363-.728-1.148-2.242-1.786 1.326-.289 1.457-.062 2.27-1.95 1.776.067-1.029-1.56-.126-1.086-1.538-2.279 1.508-1.219 2.693-2.894-1.336-.525-.327-2.236-.597-.823.727-1.385-1.154.006 2.686-1.356-1.124-3.294.211.439 1.752-1.749.298-1.692 2.71.511 1.646 1.162 1.209-.28.63-2.82.61-1.087 1.009-.864-.287-.835.743-.327 2.421 1.43 1.976-.842 1.63-1.132-.143-5.528-2.342-.072.034-2.163 1.378-1.063 1.885.6 1.546-1.947-1.441-.747 1.074-.974-.48-1.902-3.875-.046-1.589.817-1.26-1.661-3.04-.008-.112-.004-2.142-2.366-1.222-.15-.832-2.6-1.762-1.333.66-.968-1.605-3.199-2.163-.707-.705-1.693-1.818.104-2.983.941-2.622.119-.178.95-2.491.088-2.121.659-.666-.018-.874-2.388-1.205-2.58-.676-1.278 1.866-1.753-1.064-1.113-5.413-.749-1.343-2.504-1.795-1.337-.712-2.296-2.845-1.889-1.524-.931-1.365-1.061-1.551-.097-1.912-.922-1.695-.298-3.062.073-.914.981-2.49-4.378-3.949-3.182.002-3.323.237-2.397.156-4.03.27-1.073.064-5.378.277-3.892.182-2.563.07-3.056.126-3.389.144-3.047.098-3.361.079-2.261.024-3.978-.018-4.043-.024-2.413-.02-5.506-.063-1.664-3.061.694-.678.288-2.221-.928-2.854-.018-2.007-.601-.582.438-2.439-.64-1.324-.813-2.186-1.28-.444-.469-2.87.796-2.152-1.015-1.297.097-2.032-1.936-1.376.077-1.194-1.222-1.965.009-1.156-.753-1.217.203-2.703-.677-.096m347.515-26.26l-.967-2.917-.917-.044m-166.862 32.098l-3.824.664-1.602.273-6.557 1.079-.535.081-5.566.854m18.26-2.981l-.147.026m.353-.06l-.127.023m136.559-11.182l-1.427-1.764 2.832-2.849-1.518-2.609-.51-2.991-.456-2.593-1.274-7.1 5.849-1.237.604-.13 6.693-1.578 5.006-1.197.452-.088 4.138-.667 1.473 5.127.43 1.533.18.791.744 3.313-.265 1.759m-38.663 8.942l5.198 1.78 2.06.616.288.112 4.797 1.505m-633.326-24.542l-3.822 14.773-6.894 26.657-1.322 5-.682 2.395-.664 2.757-.239.968-.198.83-.298 1.239 1.032 1.561 3.479 5.236 2.714 4.067 1.872 2.822 7.975 12.016 6.603 9.925 7.483 11.278 14.559 21.92 2.819 4.252 11.984 18.022.178-1.9 1.373-.888.213-3.112-.521-3.684.844-6.334.106-4.483 2.05-.678 3.816.744 1.539 2.793 1.213.036 2.214-2.84 2.218-12.048.555-2.913 16.721 3.111 5.221.922 16.426 2.772 9.659 1.513 10.939 1.768 13.974 1.98 1.279-9.067 1.049-7.404.691-5.08.643-6.516 2.366-16.17.333-2.447.42-3.04 1.455-10.495 1.146-8.038.87-6.478m451.698 24.553l-3.363-1.686-1.967.043-1.195-1.135.698-1.62-1.817-1.218-1.632-.046-.565.187-2.122-2.908-1.047-.908.466-1.147-2.624.25-2.482-1.007-.93 1.601-1.016-.091-1.34.568-.123 2.017-2.712.149-2.195-1.013-1.819 3.594-1.566-.507-2.363 3.336-2.637 2.799-1.532-9.588-4.025.707-2.145.368-7.084 1.183-1.382.222-.731-4.482-.16-1.005-.443-2.664-.716-4.449-.255-1.456-.493-2.997m-302.269 26.919l9.065.557 1.209.065 8.022.434.284.017 7.72.371.224.012 7.783.315.041.002 6.326.221 1.587.048 4.826.146 3.143.089 3.266.075 4.853.119 1.562.031 6.41.11 6.421.085 1.567.015 4.849.04 3.18.015 3.241.008 3.155.001 6.355-.021.448-.003-1.604-1.052.332-1.295-2.211-2.567-.036-.054-.83-.929-1.375-3.943-.786-1.154m230.676-4.103l1.176-.216 6.457-1.18 1.718-.315 5.988-1.103.528-.093 3.403-.641 8.813-1.67.14-.028 3.392-.672 3.024-.614 2.96-.617 3.03-.632 4.589-.963.095-.02 1.36-.284 4.826-1.053 2.238-2.707.01-.003.184-.065 2.29.108m-.336 6.06l-.059.02m-.771-2.403l.133.418m11.309 19.811l-3.616.79-5.019.941-.514-1.83-.379-1.358-.99-3.515-1.608-5.718-.526-1.872-.257-.919-.413-1.471-1.677-6.285m-158.799-14.036l4.135-.395 4.102-.431 2.246-.236 3.828-.38 1.717-.186 5.049-.577 1.312-.145 5.102-.599.402 1.162.387 3.099.24 1.944.347 2.892.041.35.587 4.92.153 1.249.44 3.636.34 2.917.466 4.108.1.798.574 5.719.17 1.653.396 3.565.347 2.978.091.855.424 4.064.432 3.742.991-.915 1.882 1.163 1.626-.589 2.829 1.048 1.591 2.593.131.883 2.673.732 2.133-.209 3.161 2.073.866-.095 1.709-1.433 3.744 1.055 1.588-.218 1.524-2.245 1.968-.816 1.509 3.281 2.325.911 1.221 1.428.343 3.267-.149 2.112 1.407 1.103 1.076 2.208 1.436 1.526 1.483 1.942 3.545 3.113 2.311-.096.664.384-.848.671 2.545 3.366 1.791.683 2.691.184 2.521-2.889 2.292 1.605 3.371-1.651 1.759-1.301-.398-1.512.024.017 1.449.836 3.414-2.645.7 1.007 2.284-2.01-.589-.973 1.359-1.44-1.287-1.009 1.359-3.733 1.287-1.687 1.02-2.333.2-2.276 1.531-1.872-.344-.738 1.316-2.592.084-3.069 1.718.489 1.151 1.571 2.447.431 1.083-1.451 1.434-5.699.606-1.797 2.059 1.294.754-2.519.918-.496 1.929-3.278.396-.688 1.201-1.736-.528-1.62.775-1.998-.492-2.063 1.924 1.072 3.196 1.823 3.356 1.893.868-3.784m10.271 5.904l-.429-.429 1.537-.917 1.585 1.083-1.196 1.85m29.2.677l-.289.065m-.699 8.341l-.263.094m-1.621.564l-3.376 1.137m-5.782 2.029l-.106.029m.722-.151l-.159.032m-.236.046l-.097.022m-279.271-8.134l3.19 2.577 1.293-.692 1.678 1.438-.086 1.77-1.025-.342-1.386 2.314-.669 1.707 1.934 2.138 1.297.8-.276 1.436 1.812 1.878 2.491.707-.07.871.019 1.307.044 3.713.015 2.057.015 4.913.024 1.675.075 6.198.006.434.048 6.864.005.368.079 5.457.007.486.077 5.309.011 1.092-5.752.061-.976.009-4.936.045-1.697.01-3.902.014-2.624.007-.535.004-7.751-.018-3.314-.027-5.879-.06-4.644-.058-5.025-.086-4.57-.083-3.477-.083-2.915-.086-6.725-.209-6.729-.229-1.256-.049-6.811-.31-1.281-.065-8.026-.328-4.608-.201-1.79-.084-7.208-.354-6.973-.384-.206-.021m186.994 8.772l1.171-2.592 1.238 1.191.96-1.741-.427-1.191 1.049-1.352.107-2.998-.544-.675m-77.98 66.448l.042-5.702.035-4.685.041-5.98.036-4.172.035-3.861.095-8.42.011-.308-.696-4.538-.344-2.268-.982-6.452-.178-1.122-.918-6.349-.046-3.176-.032-1.86-.058-4.381m.137 9.417l8.043-.127 3.127-.067 4.199-.104 4.002-.093.277-.01 6.578-.195 1.211-.037 3.616-.146 5.627-.217.448-.023 6.654-.299 3.307-.12.635-.019 4.168-.22 5.079-.285 3.091-.174 5.276-.298.98-.062 1.233 1.769.344 1.815-1.763 2.03-2.563 4.038 1.324-.093 4.925-.356 3.766-.296 1.05 1.772-1.478.067.71 1.355-1.708 1.537-1.945.508 1.579 1.852-1.46.952.787.881-1.975-.052.156 2.836-.186.15-.279-1.335-1.115.559 1.086.893-1.009 2.482 1.226.561.205 1.541-1.565.496-.523 1.782-1.422.659 1.09 1.249-.861 1.298-1.544.6-1.193-.502.607 2.164-1.72.54 1.593.843-1.74.704.333 2.184.015 2.081-2.674 1.024.272 1.146-1.513 1.828-1.411-.327 1.798 1.663-1.974.518.012.024 1.107 1.619-3.018 1.426 1.216 3.696-1.694-.298.296 1.456-1.518.903 1.371 1.209-1.459.681.28.594-.242 1.704 1.565-.822.035 3.392.987 2.925-1.735.693 1.305.928-.672.862.013.136-1.518.058-2.685.112-.374.021-9.466.38-10.207.271-4.099.078-3.891.108-3.919.1-.469.009-4.417.094-.162.003-3.546.08-.098-4.735-.114-5.283-1.783-.673-3.522.909-1.559-1.721-4.033-1.164-.491-1.124-1.301.377-1.689-2.198-2.874-1.382-.981-.478-1.407 1.597-3.696-.18-.739-.975-2.47 1.27-1.33.639-1.366-.896-2.37.571-1.385 1.815-3.09.649-.688-.961-3.133-1.294.614-.945-1.019-.36-1.823 1.484-1.478-.405-.998-1.878-.15.098-2.351 2.89-.198 1.371-1.481-1.524.3-1.885-1.892.217-.996 1.289-1.37-.413-.315-1.421-1.192.273-1.914-1.672-2.847 2.542-1.653-.8.535-1.869-2.096-.279-.789-2.67-.491.534-2.975-.878-.944 1.375-.974.351-1.852-1.823-2.394.322-2.823-1.517-3.611-.144-.268-2.324-2.46-2.379-.373 1.533-1.166-.407-1.586-.455-1.788.658-2.168-2.495-1.168-1.337-1.143.217.103-3.498.226-5.361.12-2.849.19-4.51.156-3.704.207-4.922.139-3.299.299-8.365-8.052-.356-6.061-.308-1.946-.096-7.999-.456-6.061-.391-1.928-.12-12.465-.866m400.208-28.515l-.615.136m1.037-.228l.36-.077m-1.658.36l-.469.1m-112.302 18.316l2.995-.327 7.172-.902 2.276-.315 3.256-.464 4.629-.695.744-.107 1.432-.192 4.638-1.061 2.647-.356-.381.511 4.797-.48 6.664-.806.945-.1 3.315-.513 2.543-.279 5.691-.797.384-.065 4.581-.775 2.994-.499.588-.104 1.868-.34 1.811-.327 1.176-.212 5.002-.905.907-.171 4.048-.757 1.94-.391 4.055-.776 2.136-.419 1.93-.389 6.858-1.338 1.93-.413 3.621-.688-.025-.152 5.449-1.092.731-.152 2.596-.539 2.776-.588 1.262-.271m-89.481-2.735l-4.321 5.192-3.288 2.307-.15.146-2.143 1.846.237 1.308-1.953 1.615.081 1.545-2.743 1.101-.647 2.216-4.584 2.097-2.991 1.612-3.738.732-1.18.103-3.194.365-.508.065-7.646.714-.106.011-2.822.1-4.46.305-.301.045-2.06.374-5.198.505-2.732.164-3.445.148-3.079.105-2.205.542-2.986.012-4.386.528-.8.089-3.261.318-4.51.471-.779.087-5.633-.294.533 3.369-6.458.46-.416.024-4.445.323-.149.007-.117.013-7.586.543-1.065.153-.984.089m-10.541 29.045l8.853-.542 1.211-.09 4.418-.275 2.334-.178 2.742-.208 2.937-.224.548-.042 6.138-.487.272-.019 2.458-.203 3.239-.465 5.704-.447 5.797-.448.201-.012 5.682-.404.78-.077 7.023-.685.13-.012 6.737-.651 3.91-.356 1.979-.187 1.65-.192 1.49-.201 4.3-.543 2.526-.295.546-.07 2.324-.286 4.513-.552-.062-4.135 1.041-1.261 1.367.305 1.344-1.135-.152-2.109.766-1.231.126.044 2.461-2.232 1.61-.355 2.474-.208 3.307-2.969-.067-.377 2.442-1.726 1.736-.266.54-3.006 1.205.273.353-1.319 1.999-1.75.574.413.075 1.368 1.537-.413 1.059-1.961 2.65-1.989 2.243.693 1.736-3.35.158-.43 2.5-2.365.193-3.784m-502.431 60.144l3.087-.123 1.531-2.587-.37-2.344-2.354-.734-.34-.981 1.117-3.267-.706-.759.498-1.897 1.593-.264 1.963-1.824.945-2.585.259-4.339 1.86-1.591.272-1.099 2.978-1.058 2.225-2.058-2.506-3.33-.904-2.965-.132-2.274-1.81-3.343.467-2.435m547.496 24.204l-1.372-.983-7.54-5.405-.026-.02-6.735-4.929-.203-.144-3.951-2.645-3.599.585-.032.006-5.884.851-3.667.539-3.513.527-.112-2.166-1.054-1.096-1.218-1.239-1.934.897-.187-1.938-4.457.408-.578.063-6.053.628-1.6.172-1.427.153-3.72.382-2.044.396-3.206 1.332-2.619 1.83-1.968.502-1.603.764-1.425.707m-72.807 95.004l-.785-6.482-.598-4.888-.276-2.158-.758-5.985-.622-4.879-.432-3.654.162-6.297.031-1.529.106-5.084.108-6.624.023-1.173.105-5.611.085-4.642.075-3.988.157-5.928.011-.533.098-4.437.042-2.688.067-2.245.153-5.879-1.708-1.813m148.909 1.639l-.117-.083m-.021-.024l-.212-.141m-231.705 102.604l-1.506-2.035 1.188-1.187 2.065-3.535.11-3.607-.951-1.833.361-1.11.685-.795-.712-1.795 1.669-2.612 1.075-3.602.713-3.019-.768-2.916-.755.195-1.394-2.321-.598-3.969-1.92-1.305.586-2.185-1.394-2.637-2.212-2.498-.508-4.047-.082-3.684-.116-5.647-.073-3.532-.053-2.596m-133.786-78.461l-.699 9.396-.585-.044-.605 8.37-.446 5.937-.169 2.198-.623 8.252-.325 4.302-.288 3.883-.622 8.159-.014.191-.72 8.956-.432 4.768-.321 3.412-.721 8.039-.609 8.184-.601 8.147-.121 1.619-4.118-.309-6.232-.491-4.043-.333-.693-.058-12.926-1.159-1.104-.102-16.929-1.725-5.947-.621-3.78-.403-.557 2.472 1.524 1.724m53.61-169.151l6.676.543 2.677.201 10.162.751.451.029 7.929.531-.288 4.751-.062.978-.309 4.842-.109 1.707-.42 6.509-.484 8.072-.007.11-.486 8.187-.093 1.622-.403 6.577-.094 1.551-.41 6.52-.013.119-.586 9.862-.108 1.774-.306 4.801-.479 7.446-14.141-1.096-1.237-.095-13.578-1.004-16.878-1.51-.966-.092-7.311-.744-4.241-.431-6.898-.717-13.849-1.721-.89-.108-13.157-1.651-9.748-1.303-2.582 18.613-2.688 19.46-.986 7.096-2.074 14.932-1.47 10.604-1.109 8.031-.908 6.533-2.849 20.331m383.472-65.372l2.882-.343 1.886-.232 1.031-.137 5.814-.849 1.002-.148 5.609-.893.005-.004-.128 1.201-1.591 1.372-1.245 3.237.289.512 3.921 2.332.896.69.975.089 1.953.196 1.802 2.941.717 1.434 2.732 3.318.613 1.017 3.64 1.764 2.131 2.391 2.051 1.54 1.47.765.277.202 1.466 1.063.021 1.76 1.76 2.104 1.598.698.35 1.012 2.134.566 1.255.752 2.967 5.26.674 2.738 1.783.465 2.997 3.675.082 2.115.742 1.95m-96.906 46.573l.013.083m21.005-90.884l.586 2.291 1.232 4.345.176.647.335 1.183 1.28 4.364 1.041 3.777.6 2.142.317 1.145 1.259 4.565.882 3.122.276 1.006 1.518 5.477.107.394 1.255 4.351 1.022 2.227 1.144 2.487 1.45 1.677.741 2.423-.43.984 1.991 1.012-.48.653-1.949 2.102.238 1.268-.037 1.352-.849 2.624.16 1.445.252.307 1.815 4.426-.214 3.959.098 2.698 1.334 1.532.577 1.347-7.699.943-.153.02-8.513.988-2.417.239-3.197.325-4.76.469-1.55.105-6.002.533-6.923.659-.354 2.505 1.88 2.149 2.072 1.084-.091 3.595m37.707-13.613l2.817 5.121.017-.002 7.726-.522 1.575-.105 3.183-.219 1.218-.084 4.225-.285 2.117-.139 4.078-.276.259-.016.507-.031 2.769-.178 7.177-.497 1.686-.123 1.991-.146.656-.048 3.278-.224.515 2.85.76.927 1.904-.345.156-3.828-.952-1.596-.062-1.874 1.876-1.671 5.03 1.341m-154.42-27.39l-.074 1.956 1.162-1.68.444 1.88-.985.995.13 1.877 1.284.191-1.371 1.506 1.732 1.203-.413.285-.193 2.037 1.725.034-.297 1.638 1.462.337-1.303 2.257-1.887.323-.586 1.47 1.781.101.353.051.017.115-.622 1.866-1.715 1.129-.858 1.763-1.51.563.523 1.741-.961.338-.242 2.153-1.492-.392 1.372 1.442-1.54.677.251 3.134-1.203-.699 1.109 2.331-2.188.628 1.089 1.057-.518 1.417 1.032.891-1.097 1.315 7.335-.349 1.854-.092 3.729-.207 4.123-.237.309-.018 3.196-.2 1.395-.089 6.75-.448 1.714-.117-1.41 6.395.528 1.475 2.162 2.234 1.459 4.252 1.568.807m-351.205-375.661l-1.929 9.006-1.12 5.186-.916 4.28 1.896 4.697 1.037 1.312.045 1.906-.979.607 1.3 1.634-1.354.743 1.826 1.817.077.976 2.217 1.153 1.862 3.435.693 2.646.995.901-.136 1.37 2.994 2.922.627 2.077 3.413.163-.631 2.554-2.069 4.222-.948 3.207-.835 1.084 1.025 1.217-.426 2.315-1.148-.191-1.133 1.226.485 2.088-1.235 1.874 1.219.101 1.233 2.232.972-.219 5.105-3.08.173 1.444 1.186.593-.278 3.637.575 2.867 1.26 3.089 1.148 1.246-.716 3.544 1.228 1.762 1.351-.472 1.315 1.174.796 4.856-.203 1.391 2.225 1.817.809-1.922 4.014.802 1.013.772 1.698-1.973 2.361 1.258 3.122-.249.436 1.116 2.793-.32 1.394.509.986-3.124 1.371-.581 1.686 2.732-.226.83 2.017 2.263m248.012-25.987l-1.151-.012.169 4.577.18 4.84-.634 2.654-4.562 2.433-1.629 3.134-.546 1.621.079 1.271 1.45.097 1.744 2.307-1.204 2.761-.11 1.621-.37 2.457.44 4.043-.378 2.161.971.583 2.522 2.647 3.105.394 1.05 1.584 2.139.793 1.704.845 1.467 3.039 4.138 2.959 1.826.682 2.014 2.477.477 2.205-.059 2.102.799 2.139m147.993 12.899l.39 2.376 1.067 6.496.032.195 1.091 6.607.021.161.687 4.181.157.893.645 3.956-1.895 1.382 1.356 2.071-.246 1.318.636 1.32-.741 2.703-.205.575-.063 2.371.097 2.286-.783 1.353.238 2.409-1.22 2.368-1.136 1.456-.923 1.706-3.185 2.712-1.182-1.096-1.405 1.468-.058 1.49-1.506.113-.508 1.146-.342.73.357 1.537-.013 3.299-1.656 1.116-.06-1.103-1.688-1.491-1.19 1.439-.303 2.411-.94 1.081 1.137 3.336-.54.325-1.008.317-.128 2.553-2.533 1.089-1.329-.001m-76.437-53.465l.379 4.518.267 3.157.221 2.478.271 2.919.458 5.129.407 4.61.024.264.481 6.184.419 4.977.478 5.174.223 2.444.217 2.424-.886 1.755-.179 1.947 1.941 4.653-.034.95.698 2.052-1.958 3.442.177 1.005-1.51 1.102.261.897-2.17 2.957-1.114.311.094.489 1.178 1.177-2.2 5.333 1.074 1.646m222.557-113.295l-1.518-.822-1.855-3.573-1.709-.174-3.975 1.219m-577 18.966l-3.534 18.364-3.204 16.323-.755 3.903-1.302 6.722-3.11 16.017-.372 1.934-1.511 7.858-1.972 10.063-2.126 11.197m361.034 31.448l.81-.05-.81.05.116 3.041-.97.564 1.235.971-2.391.196 1.068 1.201.607 1.041-1.219.904-.314 1.585"/></g>
	<g class="cells"><circle class="college-vote" r="3" cx="539.778" cy="260.235" id="MO_0"/><circle class="college-vote" r="3" cx="528.757" cy="198.985" id="IA_0"/><circle class="college-vote" r="3" cx="521.938" cy="193.106" id="IA_1"/><circle class="college-vote" r="3" cx="523.622" cy="184.272" id="IA_2"/><circle class="college-vote" r="3" cx="532.148" cy="181.322" id="IA_3"/><circle class="college-vote" r="3" cx="530.443" cy="190.153" id="IA_4"/><circle class="college-vote" r="3" cx="525.351" cy="175.434" id="IA_5"/><circle class="college-vote" r="3" cx="624.91" cy="363.756" id="AL_4"/><circle class="college-vote" r="3" cx="633.415" cy="366.688" id="AL_5"/><circle class="college-vote" r="3" cx="628.226" cy="340.207" id="AL_6"/><circle class="college-vote" r="3" cx="629.972" cy="349.012" id="AL_7"/><circle class="college-vote" r="3" cx="640.216" cy="360.787" id="AL_8"/><circle class="college-vote" r="3" cx="540.158" cy="322.597" id="AR_0"/><circle class="college-vote" r="3" cx="546.983" cy="316.712" id="AR_1"/><circle class="college-vote" r="3" cx="541.883" cy="331.422" id="AR_2"/><circle class="college-vote" r="3" cx="545.277" cy="307.88" id="AR_3"/><circle class="college-vote" r="3" cx="548.684" cy="325.527" id="AR_4"/><circle class="college-vote" r="3" cx="538.472" cy="313.771" id="AR_5"/><circle class="college-vote" r="3" cx="258.689" cy="335.906" id="AZ_0"/><circle class="college-vote" r="3" cx="250.13" cy="338.701" id="AZ_1"/><circle class="college-vote" r="3" cx="262.383" cy="318.309" id="AZ_2"/><circle class="college-vote" r="3" cx="249" cy="306.295" id="AZ_3"/><circle class="college-vote" r="3" cx="251.977" cy="329.919" id="AZ_4"/><circle class="college-vote" r="3" cx="243.432" cy="332.671" id="AZ_5"/><circle class="college-vote" r="3" cx="253.837" cy="321.118" id="AZ_6"/><circle class="college-vote" r="3" cx="245.27" cy="323.888" id="AZ_7"/><circle class="college-vote" r="3" cx="255.695" cy="312.314" id="AZ_8"/><circle class="college-vote" r="3" cx="247.133" cy="315.087" id="AZ_9"/><circle class="college-vote" r="3" cx="260.511" cy="327.104" id="AZ_10"/><circle class="college-vote" r="3" cx="148.542" cy="226.873" id="CA_0"/><circle class="college-vote" r="3" cx="138.922" cy="238.829" id="CA_1"/><circle class="college-vote" r="3" cx="144.384" cy="253.165" id="CA_2"/><circle class="college-vote" r="3" cx="141.634" cy="221.259" id="CA_3"/><circle class="college-vote" r="3" cx="151.259" cy="258.804" id="CA_4"/><circle class="college-vote" r="3" cx="130.74" cy="241.896" id="CA_5"/><circle class="college-vote" r="3" cx="155.512" cy="282.11" id="CA_6"/><circle class="college-vote" r="3" cx="133.295" cy="224.379" id="CA_7"/><circle class="college-vote" r="3" cx="133.265" cy="273.852" id="CA_8"/><circle class="college-vote" r="3" cx="158.255" cy="264.476" id="CA_9"/><circle class="college-vote" r="3" cx="123.398" cy="285.9" id="CA_10"/><circle class="college-vote" r="3" cx="130.347" cy="291.525" id="CA_11"/><circle class="college-vote" r="3" cx="127.785" cy="259.453" id="CA_12"/><circle class="college-vote" r="3" cx="148.549" cy="276.446" id="CA_13"/><circle class="college-vote" r="3" cx="147.722" cy="294.086" id="CA_14"/><circle class="college-vote" r="3" cx="134.592" cy="215.607" id="CA_15"/><circle class="college-vote" r="3" cx="147.139" cy="285.13" id="CA_16"/><circle class="college-vote" r="3" cx="156.887" cy="223.672" id="CA_17"/><circle class="college-vote" r="3" cx="159.695" cy="255.796" id="CA_18"/><circle class="college-vote" r="3" cx="131.745" cy="282.671" id="CA_19"/><circle class="college-vote" r="3" cx="116.514" cy="280.209" id="CA_20"/><circle class="college-vote" r="3" cx="162.512" cy="238.068" id="CA_21"/><circle class="college-vote" r="3" cx="142.939" cy="212.391" id="CA_22"/><circle class="college-vote" r="3" cx="122.388" cy="245.063" id="CA_23"/><circle class="college-vote" r="3" cx="112.496" cy="256.989" id="CA_24"/><circle class="college-vote" r="3" cx="155.531" cy="232.41" id="CA_25"/><circle class="college-vote" r="3" cx="111.058" cy="265.742" id="CA_26"/><circle class="college-vote" r="3" cx="117.941" cy="271.424" id="CA_27"/><circle class="college-vote" r="3" cx="136.15" cy="256.339" id="CA_28"/><circle class="college-vote" r="3" cx="138.706" cy="288.343" id="CA_29"/><circle class="college-vote" r="3" cx="140.132" cy="279.554" id="CA_30"/><circle class="college-vote" r="3" cx="119.508" cy="262.627" id="CA_31"/><circle class="college-vote" r="3" cx="113.972" cy="248.209" id="CA_32"/><circle class="college-vote" r="3" cx="126.235" cy="218.762" id="CA_33"/><circle class="college-vote" r="3" cx="147.13" cy="235.601" id="CA_34"/><circle class="college-vote" r="3" cx="131.922" cy="233.259" id="CA_35"/><circle class="college-vote" r="3" cx="124.998" cy="277.061" id="CA_36"/><circle class="college-vote" r="3" cx="115.191" cy="239.354" id="CA_37"/><circle class="college-vote" r="3" cx="161.121" cy="246.935" id="CA_38"/><circle class="college-vote" r="3" cx="149.924" cy="218.067" id="CA_39"/><circle class="college-vote" r="3" cx="154.13" cy="241.223" id="CA_40"/><circle class="college-vote" r="3" cx="137.494" cy="247.543" id="CA_41"/><circle class="college-vote" r="3" cx="124.879" cy="227.532" id="CA_42"/><circle class="college-vote" r="3" cx="129.297" cy="250.633" id="CA_43"/><circle class="college-vote" r="3" cx="141.567" cy="270.893" id="CA_44"/><circle class="college-vote" r="3" cx="126.381" cy="268.227" id="CA_45"/><circle class="college-vote" r="3" cx="134.697" cy="265.06" id="CA_46"/><circle class="college-vote" r="3" cx="120.886" cy="253.834" id="CA_47"/><circle class="college-vote" r="3" cx="143.066" cy="261.837" id="CA_48"/><circle class="college-vote" r="3" cx="156.891" cy="273.306" id="CA_49"/><circle class="college-vote" r="3" cx="123.648" cy="236.447" id="CA_50"/><circle class="college-vote" r="3" cx="145.78" cy="244.452" id="CA_51"/><circle class="college-vote" r="3" cx="149.958" cy="267.567" id="CA_52"/><circle class="college-vote" r="3" cx="152.709" cy="250.196" id="CA_53"/><circle class="college-vote" r="3" cx="140.231" cy="230.066" id="CA_54"/><circle class="college-vote" r="3" cx="348.162" cy="238.428" id="CO_0"/><circle class="college-vote" r="3" cx="347.064" cy="229.503" id="CO_1"/><circle class="college-vote" r="3" cx="349.275" cy="247.351" id="CO_2"/><circle class="college-vote" r="3" cx="357.59" cy="250.844" id="CO_3"/><circle class="college-vote" r="3" cx="354.245" cy="224.069" id="CO_4"/><circle class="college-vote" r="3" cx="362.535" cy="227.594" id="CO_5"/><circle class="college-vote" r="3" cx="355.334" cy="232.997" id="CO_6"/><circle class="college-vote" r="3" cx="363.635" cy="236.53" id="CO_7"/><circle class="college-vote" r="3" cx="356.448" cy="241.947" id="CO_8"/><circle class="college-vote" r="3" cx="824.886" cy="187.238" id="CT_0"/><circle class="college-vote" r="3" cx="821.032" cy="179.116" id="CT_1"/><circle class="college-vote" r="3" cx="826.14" cy="171.7" id="CT_2"/><circle class="college-vote" r="3" cx="828.778" cy="195.34" id="CT_3"/><circle class="college-vote" r="3" cx="829.992" cy="179.831" id="CT_4"/><circle class="college-vote" r="3" cx="835.122" cy="172.448" id="CT_5"/><circle class="college-vote" r="3" cx="833.88" cy="187.937" id="CT_6"/><circle class="college-vote" r="3" cx="795.964" cy="253.244" id="DC_0"/><circle class="college-vote" r="3" cx="791.462" cy="245.439" id="DC_1"/><circle class="college-vote" r="3" cx="800.462" cy="245.437" id="DC_2"/><circle class="college-vote" r="3" cx="790.103" cy="225.56" id="DE_0"/><circle class="college-vote" r="3" cx="785.66" cy="217.722" id="DE_1"/><circle class="college-vote" r="3" cx="794.66" cy="217.787" id="DE_2"/><circle class="college-vote" r="3" cx="711.81" cy="420.305" id="FL_0"/><circle class="college-vote" r="3" cx="720.71" cy="421.306" id="FL_1"/><circle class="college-vote" r="3" cx="742.185" cy="431.503" id="FL_2"/><circle class="college-vote" r="3" cx="719.059" cy="436.737" id="FL_3"/><circle class="college-vote" r="3" cx="733.267" cy="430.503" id="FL_4"/><circle class="college-vote" r="3" cx="717.294" cy="452.176" id="FL_5"/><circle class="college-vote" r="3" cx="720.143" cy="460.631" id="FL_6"/><circle class="college-vote" r="3" cx="704.838" cy="442.935" id="FL_7"/><circle class="college-vote" r="3" cx="736.834" cy="438.654" id="FL_8"/><circle class="college-vote" r="3" cx="734.969" cy="415.037" id="FL_9"/><circle class="college-vote" r="3" cx="729.077" cy="461.588" id="FL_10"/><circle class="college-vote" r="3" cx="738.026" cy="462.539" id="FL_11"/><circle class="college-vote" r="3" cx="715.481" cy="428.488" id="FL_12"/><circle class="college-vote" r="3" cx="731.235" cy="406.845" id="FL_13"/><circle class="college-vote" r="3" cx="722.584" cy="444.919" id="FL_14"/><circle class="college-vote" r="3" cx="717.095" cy="413.09" id="FL_15"/><circle class="college-vote" r="3" cx="713.778" cy="443.957" id="FL_16"/><circle class="college-vote" r="3" cx="726.014" cy="414.119" id="FL_17"/><circle class="college-vote" r="3" cx="708.447" cy="451.181" id="FL_18"/><circle class="college-vote" r="3" cx="706.542" cy="427.533" id="FL_19"/><circle class="college-vote" r="3" cx="738.559" cy="423.304" id="FL_20"/><circle class="college-vote" r="3" cx="726.12" cy="453.148" id="FL_21"/><circle class="college-vote" r="3" cx="740.471" cy="446.875" id="FL_22"/><circle class="college-vote" r="3" cx="724.317" cy="429.529" id="FL_23"/><circle class="college-vote" r="3" cx="731.505" cy="445.911" id="FL_24"/><circle class="college-vote" r="3" cx="727.914" cy="437.704" id="FL_25"/><circle class="college-vote" r="3" cx="729.644" cy="422.301" id="FL_26"/><circle class="college-vote" r="3" cx="710.196" cy="435.758" id="FL_27"/><circle class="college-vote" r="3" cx="735.084" cy="454.125" id="FL_28"/><circle class="college-vote" r="3" cx="677.447" cy="341.793" id="GA_0"/><circle class="college-vote" r="3" cx="683.384" cy="324.839" id="GA_1"/><circle class="college-vote" r="3" cx="689.251" cy="331.649" id="GA_2"/><circle class="college-vote" r="3" cx="683.307" cy="348.557" id="GA_3"/><circle class="college-vote" r="3" cx="671.507" cy="358.725" id="GA_4"/><circle class="college-vote" r="3" cx="671.564" cy="335.034" id="GA_5"/><circle class="college-vote" r="3" cx="680.403" cy="333.345" id="GA_6"/><circle class="college-vote" r="3" cx="686.265" cy="340.107" id="GA_7"/><circle class="college-vote" r="3" cx="668.614" cy="343.491" id="GA_8"/><circle class="college-vote" r="3" cx="680.37" cy="357.03" id="GA_9"/><circle class="college-vote" r="3" cx="674.548" cy="326.545" id="GA_10"/><circle class="college-vote" r="3" cx="677.398" cy="365.52" id="GA_11"/><circle class="college-vote" r="3" cx="692.167" cy="346.89" id="GA_12"/><circle class="college-vote" r="3" cx="674.517" cy="350.245" id="GA_13"/><circle class="college-vote" r="3" cx="686.235" cy="363.864" id="GA_14"/><circle class="college-vote" r="3" cx="689.2" cy="355.367" id="GA_15"/><circle class="college-vote" r="3" cx="335.491" cy="482.004" id="HI_0"/><circle class="college-vote" r="3" cx="340.011" cy="489.793" id="HI_1"/><circle class="college-vote" r="3" cx="339.999" cy="474.209" id="HI_2"/><circle class="college-vote" r="3" cx="344.505" cy="482" id="HI_3"/><circle class="college-vote" r="3" cx="168.04" cy="425.204" id="AK_0"/><circle class="college-vote" r="3" cx="163.48" cy="417.433" id="AK_2"/><circle class="college-vote" r="3" cx="623.202" cy="354.927" id="AL_0"/><circle class="college-vote" r="3" cx="631.705" cy="357.861" id="AL_1"/><circle class="college-vote" r="3" cx="636.753" cy="343.12" id="AL_2"/><circle class="college-vote" r="3" cx="638.485" cy="351.952" id="AL_3"/><circle class="college-vote" r="3" cx="247.847" cy="121.854" id="ID_0"/><circle class="college-vote" r="3" cx="238.832" cy="121.854" id="ID_1"/><circle class="college-vote" r="3" cx="243.331" cy="129.644" id="ID_2"/><circle class="college-vote" r="3" cx="243.331" cy="114.063" id="ID_3"/><circle class="college-vote" r="3" cx="582.216" cy="212.336" id="IL_0"/><circle class="college-vote" r="3" cx="586.132" cy="229.824" id="IL_1"/><circle class="college-vote" r="3" cx="579.524" cy="235.895" id="IL_2"/><circle class="college-vote" r="3" cx="577.56" cy="227.167" id="IL_3"/><circle class="college-vote" r="3" cx="599.366" cy="217.653" id="IL_4"/><circle class="college-vote" r="3" cx="573.64" cy="209.638" id="IL_5"/><circle class="college-vote" r="3" cx="595.449" cy="200.158" id="IL_6"/><circle class="college-vote" r="3" cx="588.089" cy="238.587" id="IL_7"/><circle class="college-vote" r="3" cx="594.687" cy="232.52" id="IL_8"/><circle class="college-vote" r="3" cx="584.154" cy="221.06" id="IL_9"/><circle class="college-vote" r="3" cx="588.812" cy="206.263" id="IL_10"/><circle class="college-vote" r="3" cx="601.308" cy="226.393" id="IL_11"/><circle class="college-vote" r="3" cx="597.398" cy="208.93" id="IL_12"/><circle class="college-vote" r="3" cx="590.764" cy="214.981" id="IL_13"/><circle class="college-vote" r="3" cx="586.851" cy="197.54" id="IL_14"/><circle class="college-vote" r="3" cx="575.603" cy="218.391" id="IL_15"/><circle class="college-vote" r="3" cx="578.25" cy="194.845" id="IL_16"/><circle class="college-vote" r="3" cx="580.233" cy="203.624" id="IL_17"/><circle class="college-vote" r="3" cx="592.722" cy="223.765" id="IL_18"/><circle class="college-vote" r="3" cx="593.372" cy="191.413" id="IL_19"/><circle class="college-vote" r="3" cx="632.479" cy="207.41" id="IN_0"/><circle class="college-vote" r="3" cx="627.11" cy="214.616" id="IN_1"/><circle class="college-vote" r="3" cx="628.782" cy="238.336" id="IN_2"/><circle class="college-vote" r="3" cx="625.274" cy="230.09" id="IN_3"/><circle class="college-vote" r="3" cx="616.343" cy="229.005" id="IN_4"/><circle class="college-vote" r="3" cx="634.189" cy="231.126" id="IN_5"/><circle class="college-vote" r="3" cx="618.149" cy="213.563" id="IN_6"/><circle class="college-vote" r="3" cx="636.026" cy="215.67" id="IN_7"/><circle class="college-vote" r="3" cx="621.713" cy="221.809" id="IN_8"/><circle class="college-vote" r="3" cx="623.534" cy="206.366" id="IN_9"/><circle class="college-vote" r="3" cx="630.65" cy="222.876" id="IN_10"/><circle class="college-vote" r="3" cx="478.691" cy="265.331" id="KS_0"/><circle class="college-vote" r="3" cx="480.469" cy="256.517" id="KS_1"/><circle class="college-vote" r="3" cx="473.688" cy="250.572" id="KS_2"/><circle class="college-vote" r="3" cx="482.219" cy="247.691" id="KS_3"/><circle class="college-vote" r="3" cx="471.933" cy="259.382" id="KS_4"/><circle class="college-vote" r="3" cx="475.457" cy="241.752" id="KS_5"/><circle class="college-vote" r="3" cx="660.064" cy="268.677" id="KY_0"/><circle class="college-vote" r="3" cx="660.423" cy="250.68" id="KY_1"/><circle class="college-vote" r="3" cx="652.361" cy="264.031" id="KY_2"/><circle class="college-vote" r="3" cx="652.154" cy="272.995" id="KY_3"/><circle class="college-vote" r="3" cx="660.236" cy="259.684" id="KY_4"/><circle class="college-vote" r="3" cx="652.692" cy="246.046" id="KY_5"/><circle class="college-vote" r="3" cx="652.554" cy="255.034" id="KY_6"/><circle class="college-vote" r="3" cx="644.662" cy="259.361" id="KY_7"/><circle class="college-vote" r="3" cx="547.074" cy="393.449" id="LA_0"/><circle class="college-vote" r="3" cx="554.718" cy="388.698" id="LA_1"/><circle class="college-vote" r="3" cx="546.581" cy="375.457" id="LA_2"/><circle class="college-vote" r="3" cx="539.422" cy="398.163" id="LA_3"/><circle class="college-vote" r="3" cx="539.142" cy="389.189" id="LA_4"/><circle class="college-vote" r="3" cx="546.816" cy="384.461" id="LA_5"/><circle class="college-vote" r="3" cx="538.901" cy="380.177" id="LA_6"/><circle class="college-vote" r="3" cx="547.349" cy="402.413" id="LA_7"/><circle class="college-vote" r="3" cx="819.166" cy="155.554" id="MA_0"/><circle class="college-vote" r="3" cx="819.38" cy="124.388" id="MA_1"/><circle class="college-vote" r="3" cx="810.292" cy="139.921" id="MA_2"/><circle class="college-vote" r="3" cx="823.745" cy="147.822" id="MA_3"/><circle class="college-vote" r="3" cx="810.156" cy="155.422" id="MA_4"/><circle class="college-vote" r="3" cx="814.749" cy="147.713" id="MA_5"/><circle class="college-vote" r="3" cx="805.914" cy="132.069" id="MA_6"/><circle class="college-vote" r="3" cx="823.884" cy="132.187" id="MA_7"/><circle class="college-vote" r="3" cx="828.279" cy="140.046" id="MA_8"/><circle class="college-vote" r="3" cx="814.873" cy="132.147" id="MA_9"/><circle class="college-vote" r="3" cx="819.294" cy="139.986" id="MA_10"/><circle class="college-vote" r="3" cx="770.136" cy="224.483" id="MD_0"/><circle class="college-vote" r="3" cx="762.507" cy="219.731" id="MD_1"/><circle class="college-vote" r="3" cx="754.861" cy="214.965" id="MD_2"/><circle class="college-vote" r="3" cx="762.183" cy="228.705" id="MD_3"/><circle class="college-vote" r="3" cx="763.091" cy="201.719" id="MD_4"/><circle class="college-vote" r="3" cx="754.553" cy="223.932" id="MD_5"/><circle class="college-vote" r="3" cx="770.723" cy="206.483" id="MD_6"/><circle class="college-vote" r="3" cx="770.414" cy="215.493" id="MD_7"/><circle class="college-vote" r="3" cx="762.789" cy="210.743" id="MD_8"/><circle class="college-vote" r="3" cx="755.157" cy="205.974" id="MD_9"/><circle class="college-vote" r="3" cx="844.329" cy="76.022" id="ME_0"/><circle class="college-vote" r="3" cx="844.329" cy="60.418" id="ME_1"/><circle class="college-vote" r="3" cx="839.829" cy="68.222" id="ME1_0"/><circle class="college-vote" r="3" cx="848.829" cy="68.222" id="ME2_0"/><circle class="college-vote" r="3" cx="651.177" cy="167.094" id="MI_0"/><circle class="college-vote" r="3" cx="640.756" cy="132.744" id="MI_1"/><circle class="college-vote" r="3" cx="631.039" cy="154.376" id="MI_2"/><circle class="college-vote" r="3" cx="642.409" cy="165.041" id="MI_3"/><circle class="college-vote" r="3" cx="654.72" cy="152.014" id="MI_4"/><circle class="college-vote" r="3" cx="645.96" cy="149.939" id="MI_5"/><circle class="college-vote" r="3" cx="643.36" cy="141.34" id="MI_6"/><circle class="college-vote" r="3" cx="652.096" cy="143.431" id="MI_7"/><circle class="college-vote" r="3" cx="633.623" cy="162.979" id="MI_8"/><circle class="college-vote" r="3" cx="649.511" cy="134.811" id="MI_9"/><circle class="college-vote" r="3" cx="644.989" cy="173.632" id="MI_10"/><circle class="college-vote" r="3" cx="634.58" cy="139.283" id="MI_11"/><circle class="college-vote" r="3" cx="648.53" cy="158.545" id="MI_12"/><circle class="college-vote" r="3" cx="639.789" cy="156.477" id="MI_13"/><circle class="college-vote" r="3" cx="637.179" cy="147.863" id="MI_14"/><circle class="college-vote" r="3" cx="636.228" cy="171.573" id="MI_15"/><circle class="college-vote" r="3" cx="507.525" cy="117.741" id="MN_0"/><circle class="college-vote" r="3" cx="513.536" cy="124.406" id="MN_1"/><circle class="college-vote" r="3" cx="510.347" cy="109.212" id="MN_2"/><circle class="college-vote" r="3" cx="519.175" cy="107.355" id="MN_3"/><circle class="college-vote" r="3" cx="510.74" cy="132.94" id="MN_4"/><circle class="college-vote" r="3" cx="525.17" cy="114.043" id="MN_5"/><circle class="college-vote" r="3" cx="513.197" cy="100.667" id="MN_6"/><circle class="college-vote" r="3" cx="516.348" cy="115.902" id="MN_7"/><circle class="college-vote" r="3" cx="519.548" cy="131.138" id="MN_8"/><circle class="college-vote" r="3" cx="522.359" cy="122.588" id="MN_9"/><circle class="college-vote" r="3" cx="172.48" cy="417.364" id="AK_1"/><circle class="college-vote" r="3" cx="536.961" cy="244.915" id="MO_1"/><circle class="college-vote" r="3" cx="533.955" cy="253.397" id="MO_2"/><circle class="college-vote" r="3" cx="545.834" cy="243.314" id="MO_3"/><circle class="college-vote" r="3" cx="540.037" cy="236.467" id="MO_4"/><circle class="college-vote" r="3" cx="542.777" cy="251.781" id="MO_5"/><circle class="college-vote" r="3" cx="551.647" cy="250.167" id="MO_6"/><circle class="college-vote" r="3" cx="545.606" cy="267.097" id="MO_7"/><circle class="college-vote" r="3" cx="536.756" cy="268.679" id="MO_8"/><circle class="college-vote" r="3" cx="548.633" cy="258.628" id="MO_9"/><circle class="college-vote" r="3" cx="588.929" cy="370.284" id="MS_0"/><circle class="college-vote" r="3" cx="582.118" cy="364.397" id="MS_1"/><circle class="college-vote" r="3" cx="590.627" cy="361.454" id="MS_2"/><circle class="college-vote" r="3" cx="583.813" cy="355.566" id="MS_3"/><circle class="college-vote" r="3" cx="585.526" cy="346.72" id="MS_4"/><circle class="college-vote" r="3" cx="592.327" cy="352.614" id="MS_5"/><circle class="college-vote" r="3" cx="305.825" cy="77.046" id="MT_0"/><circle class="college-vote" r="3" cx="310.257" cy="84.89" id="MT_1"/><circle class="college-vote" r="3" cx="301.257" cy="84.812" id="MT_2"/><circle class="college-vote" r="3" cx="775.755" cy="308.113" id="NC_0"/><circle class="college-vote" r="3" cx="781.323" cy="284.947" id="NC_1"/><circle class="college-vote" r="3" cx="774.038" cy="290.19" id="NC_2"/><circle class="college-vote" r="3" cx="783.051" cy="302.863" id="NC_3"/><circle class="college-vote" r="3" cx="767.597" cy="304.403" id="NC_4"/><circle class="college-vote" r="3" cx="765.857" cy="286.503" id="NC_5"/><circle class="college-vote" r="3" cx="780.416" cy="276.013" id="NC_6"/><circle class="college-vote" r="3" cx="759.412" cy="300.672" id="NC_7"/><circle class="college-vote" r="3" cx="772.205" cy="272.309" id="NC_8"/><circle class="college-vote" r="3" cx="764.899" cy="277.583" id="NC_9"/><circle class="college-vote" r="3" cx="766.718" cy="295.416" id="NC_10"/><circle class="college-vote" r="3" cx="773.105" cy="281.279" id="NC_11"/><circle class="college-vote" r="3" cx="774.886" cy="299.143" id="NC_12"/><circle class="college-vote" r="3" cx="782.188" cy="293.883" id="NC_13"/><circle class="college-vote" r="3" cx="758.559" cy="291.693" id="NC_14"/><circle class="college-vote" r="3" cx="440.557" cy="78.167" id="ND_0"/><circle class="college-vote" r="3" cx="436.028" cy="85.955" id="ND_1"/><circle class="college-vote" r="3" cx="445.028" cy="85.989" id="ND_2"/><circle class="college-vote" r="3" cx="459.867" cy="194.873" id="NE_0"/><circle class="college-vote" r="3" cx="459.837" cy="212.879" id="NE_1"/><circle class="college-vote" r="3" cx="459.862" cy="203.872" id="NE1_0"/><circle class="college-vote" r="3" cx="452.064" cy="199.361" id="NE2_0"/><circle class="college-vote" r="3" cx="452.051" cy="208.361" id="NE3_0"/><circle class="college-vote" r="3" cx="813.578" cy="92.348" id="NH_0"/><circle class="college-vote" r="3" cx="813.578" cy="107.952" id="NH_1"/><circle class="college-vote" r="3" cx="818.078" cy="100.148" id="NH_2"/><circle class="college-vote" r="3" cx="809.078" cy="100.148" id="NH_3"/><circle class="college-vote" r="3" cx="794.18" cy="201.006" id="NJ_0"/><circle class="college-vote" r="3" cx="800.463" cy="178.034" id="NJ_1"/><circle class="college-vote" r="3" cx="785.21" cy="200.299" id="NJ_2"/><circle class="college-vote" r="3" cx="777.476" cy="184.061" id="NJ_3"/><circle class="college-vote" r="3" cx="781.349" cy="192.17" id="NJ_4"/><circle class="college-vote" r="3" cx="782.537" cy="176.656" id="NJ_5"/><circle class="college-vote" r="3" cx="790.284" cy="192.897" id="NJ_6"/><circle class="college-vote" r="3" cx="791.519" cy="177.323" id="NJ_7"/><circle class="college-vote" r="3" cx="787.632" cy="169.225" id="NJ_8"/><circle class="college-vote" r="3" cx="786.427" cy="184.759" id="NJ_9"/><circle class="college-vote" r="3" cx="799.258" cy="193.592" id="NJ_10"/><circle class="college-vote" r="3" cx="796.605" cy="169.921" id="NJ_11"/><circle class="college-vote" r="3" cx="795.366" cy="185.448" id="NJ_12"/><circle class="college-vote" r="3" cx="804.339" cy="186.14" id="NJ_13"/><circle class="college-vote" r="3" cx="330.217" cy="314.458" id="NM_0"/><circle class="college-vote" r="3" cx="338.05" cy="309.992" id="NM_1"/><circle class="college-vote" r="3" cx="330.281" cy="305.458" id="NM_2"/><circle class="college-vote" r="3" cx="330.212" cy="323.457" id="NM_3"/><circle class="college-vote" r="3" cx="338.018" cy="318.978" id="NM_4"/><circle class="college-vote" r="3" cx="193.287" cy="188.228" id="NV_0"/><circle class="college-vote" r="3" cx="200.106" cy="194.106" id="NV_1"/><circle class="college-vote" r="3" cx="198.422" cy="202.94" id="NV_2"/><circle class="college-vote" r="3" cx="189.896" cy="205.891" id="NV_3"/><circle class="college-vote" r="3" cx="196.693" cy="211.779" id="NV_4"/><circle class="college-vote" r="3" cx="191.601" cy="197.06" id="NV_5"/><circle class="college-vote" r="3" cx="765.465" cy="138.322" id="NY_0"/><circle class="college-vote" r="3" cx="741.361" cy="116.304" id="NY_1"/><circle class="college-vote" r="3" cx="771.398" cy="123.972" id="NY_2"/><circle class="college-vote" r="3" cx="742.95" cy="145.859" id="NY_3"/><circle class="college-vote" r="3" cx="764.279" cy="129.51" id="NY_4"/><circle class="college-vote" r="3" cx="754.734" cy="117.274" id="NY_5"/><circle class="college-vote" r="3" cx="752.468" cy="158.198" id="NY_6"/><circle class="college-vote" r="3" cx="764.358" cy="103.223" id="NY_7"/><circle class="college-vote" r="3" cx="755.589" cy="105.332" id="NY_8"/><circle class="college-vote" r="3" cx="748.506" cy="110.878" id="NY_9"/><circle class="college-vote" r="3" cx="760.773" cy="161.57" id="NY_10"/><circle class="college-vote" r="3" cx="772.527" cy="132.847" id="NY_11"/><circle class="college-vote" r="3" cx="744.176" cy="154.735" id="NY_12"/><circle class="college-vote" r="3" cx="757.222" cy="134.956" id="NY_13"/><circle class="college-vote" r="3" cx="770.15" cy="115.096" id="NY_14"/><circle class="college-vote" r="3" cx="766.654" cy="147.136" id="NY_15"/><circle class="college-vote" r="3" cx="740.506" cy="128.096" id="NY_16"/><circle class="college-vote" r="3" cx="759.573" cy="152.702" id="NY_17"/><circle class="college-vote" r="3" cx="741.745" cy="136.994" id="NY_18"/><circle class="college-vote" r="3" cx="747.64" cy="122.622" id="NY_19"/><circle class="college-vote" r="3" cx="761.73" cy="111.796" id="NY_20"/><circle class="college-vote" r="3" cx="751.241" cy="149.314" id="NY_21"/><circle class="college-vote" r="3" cx="767.868" cy="156.044" id="NY_22"/><circle class="college-vote" r="3" cx="773.753" cy="141.743" id="NY_23"/><circle class="college-vote" r="3" cx="748.861" cy="131.532" id="NY_24"/><circle class="college-vote" r="3" cx="763.094" cy="120.662" id="NY_25"/><circle class="college-vote" r="3" cx="758.392" cy="143.767" id="NY_26"/><circle class="college-vote" r="3" cx="755.95" cy="126.135" id="NY_27"/><circle class="college-vote" r="3" cx="750.043" cy="140.406" id="NY_28"/><circle class="college-vote" r="3" cx="677.851" cy="208.558" id="OH_0"/><circle class="college-vote" r="3" cx="673.936" cy="226.124" id="OH_1"/><circle class="college-vote" r="3" cx="667.341" cy="220.049" id="OH_2"/><circle class="college-vote" r="3" cx="675.176" cy="184.944" id="OH_3"/><circle class="college-vote" r="3" cx="682.504" cy="223.414" id="OH_4"/><circle class="college-vote" r="3" cx="666.602" cy="187.626" id="OH_5"/><circle class="college-vote" r="3" cx="664.619" cy="196.382" id="OH_6"/><circle class="college-vote" r="3" cx="675.891" cy="217.314" id="OH_7"/><circle class="college-vote" r="3" cx="686.405" cy="205.889" id="OH_8"/><circle class="college-vote" r="3" cx="688.382" cy="197.133" id="OH_9"/><circle class="college-vote" r="3" cx="671.255" cy="202.492" id="OH_10"/><circle class="college-vote" r="3" cx="684.454" cy="214.637" id="OH_11"/><circle class="college-vote" r="3" cx="681.784" cy="191.002" id="OH_12"/><circle class="college-vote" r="3" cx="660.715" cy="213.96" id="OH_13"/><circle class="college-vote" r="3" cx="662.699" cy="205.156" id="OH_14"/><circle class="college-vote" r="3" cx="679.818" cy="199.81" id="OH_15"/><circle class="college-vote" r="3" cx="669.322" cy="211.251" id="OH_16"/><circle class="college-vote" r="3" cx="673.186" cy="193.726" id="OH_17"/><circle class="college-vote" r="3" cx="478.115" cy="305.113" id="OK_0"/><circle class="college-vote" r="3" cx="477.984" cy="323.094" id="OK_1"/><circle class="college-vote" r="3" cx="478.06" cy="314.089" id="OK_2"/><circle class="college-vote" r="3" cx="470.221" cy="318.54" id="OK_3"/><circle class="college-vote" r="3" cx="470.279" cy="309.56" id="OK_4"/><circle class="college-vote" r="3" cx="470.323" cy="300.568" id="OK_5"/><circle class="college-vote" r="3" cx="478.152" cy="296.127" id="OK_6"/><circle class="college-vote" r="3" cx="139.855" cy="82.684" id="OR_0"/><circle class="college-vote" r="3" cx="140.773" cy="98.204" id="OR_1"/><circle class="college-vote" r="3" cx="148.844" cy="82.116" id="OR_2"/><circle class="college-vote" r="3" cx="149.779" cy="97.687" id="OR_3"/><circle class="college-vote" r="3" cx="145.743" cy="105.709" id="OR_4"/><circle class="college-vote" r="3" cx="153.796" cy="89.636" id="OR_5"/><circle class="college-vote" r="3" cx="144.812" cy="90.172" id="OR_6"/><circle class="college-vote" r="3" cx="730.954" cy="203.997" id="PA_0"/><circle class="college-vote" r="3" cx="734.24" cy="165.021" id="PA_1"/><circle class="college-vote" r="3" cx="739.49" cy="188.178" id="PA_2"/><circle class="college-vote" r="3" cx="717.199" cy="196.642" id="PA_3"/><circle class="college-vote" r="3" cx="721.964" cy="204.253" id="PA_4"/><circle class="college-vote" r="3" cx="734.748" cy="180.582" id="PA_5"/><circle class="college-vote" r="3" cx="729.411" cy="157.42" id="PA_6"/><circle class="college-vote" r="3" cx="730.508" cy="188.431" id="PA_7"/><circle class="college-vote" r="3" cx="721.019" cy="173.238" id="PA_8"/><circle class="college-vote" r="3" cx="735.179" cy="196.082" id="PA_9"/><circle class="college-vote" r="3" cx="721.5" cy="188.777" id="PA_10"/><circle class="college-vote" r="3" cx="738.968" cy="172.66" id="PA_11"/><circle class="college-vote" r="3" cx="712.05" cy="173.509" id="PA_12"/><circle class="college-vote" r="3" cx="712.497" cy="189.004" id="PA_13"/><circle class="college-vote" r="3" cx="726.199" cy="196.377" id="PA_14"/><circle class="college-vote" r="3" cx="725.265" cy="165.323" id="PA_15"/><circle class="college-vote" r="3" cx="716.788" cy="181.111" id="PA_16"/><circle class="college-vote" r="3" cx="725.77" cy="180.879" id="PA_17"/><circle class="college-vote" r="3" cx="716.283" cy="165.604" id="PA_18"/><circle class="college-vote" r="3" cx="730.001" cy="172.936" id="PA_19"/><circle class="college-vote" r="3" cx="863.942" cy="131.479" id="RI_0"/><circle class="college-vote" r="3" cx="863.942" cy="147.083" id="RI_1"/><circle class="college-vote" r="3" cx="868.442" cy="139.279" id="RI_2"/><circle class="college-vote" r="3" cx="859.442" cy="139.279" id="RI_3"/><circle class="college-vote" r="3" cx="733.081" cy="342.508" id="SC_0"/><circle class="college-vote" r="3" cx="736.955" cy="315.798" id="SC_1"/><circle class="college-vote" r="3" cx="726.004" cy="336.94" id="SC_2"/><circle class="college-vote" r="3" cx="734.336" cy="333.597" id="SC_3"/><circle class="college-vote" r="3" cx="741.424" cy="339.119" id="SC_4"/><circle class="college-vote" r="3" cx="727.288" cy="328.03" id="SC_5"/><circle class="college-vote" r="3" cx="742.709" cy="330.223" id="SC_6"/><circle class="college-vote" r="3" cx="728.572" cy="319.108" id="SC_7"/><circle class="college-vote" r="3" cx="735.642" cy="324.677" id="SC_8"/><circle class="college-vote" r="3" cx="442.504" cy="138.914" id="SD_0"/><circle class="college-vote" r="3" cx="438.015" cy="146.726" id="SD_1"/><circle class="college-vote" r="3" cx="447.015" cy="146.714" id="SD_2"/><circle class="college-vote" r="3" cx="624.134" cy="287.562" id="TN_0"/><circle class="college-vote" r="3" cx="619.444" cy="302.426" id="TN_1"/><circle class="college-vote" r="3" cx="636.613" cy="307.829" id="TN_2"/><circle class="college-vote" r="3" cx="617.527" cy="293.644" id="TN_3"/><circle class="college-vote" r="3" cx="632.731" cy="290.273" id="TN_4"/><circle class="college-vote" r="3" cx="621.383" cy="311.196" id="TN_5"/><circle class="college-vote" r="3" cx="626.074" cy="296.334" id="TN_6"/><circle class="college-vote" r="3" cx="630.777" cy="281.517" id="TN_7"/><circle class="college-vote" r="3" cx="629.977" cy="313.906" id="TN_8"/><circle class="college-vote" r="3" cx="628.019" cy="305.127" id="TN_9"/><circle class="college-vote" r="3" cx="634.668" cy="299.062" id="TN_10"/><circle class="college-vote" r="3" cx="444.691" cy="407.34" id="TX_0"/><circle class="college-vote" r="3" cx="441.456" cy="353.765" id="TX_1"/><circle class="college-vote" r="3" cx="443.038" cy="380.566" id="TX_2"/><circle class="college-vote" r="3" cx="444.136" cy="398.444" id="TX_3"/><circle class="college-vote" r="3" cx="428.695" cy="399.345" id="TX_4"/><circle class="college-vote" r="3" cx="419.032" cy="368.544" id="TX_5"/><circle class="college-vote" r="3" cx="450.522" cy="375.658" id="TX_6"/><circle class="college-vote" r="3" cx="445.166" cy="416.308" id="TX_7"/><circle class="college-vote" r="3" cx="434.558" cy="367.638" id="TX_8"/><circle class="college-vote" r="3" cx="427.12" cy="372.477" id="TX_9"/><circle class="college-vote" r="3" cx="443.611" cy="389.462" id="TX_10"/><circle class="college-vote" r="3" cx="426.023" cy="354.616" id="TX_11"/><circle class="college-vote" r="3" cx="429.752" cy="417.295" id="TX_12"/><circle class="college-vote" r="3" cx="426.553" cy="363.679" id="TX_13"/><circle class="college-vote" r="3" cx="429.235" cy="408.265" id="TX_14"/><circle class="college-vote" r="3" cx="434.011" cy="358.715" id="TX_15"/><circle class="college-vote" r="3" cx="421.75" cy="413.24" id="TX_16"/><circle class="college-vote" r="3" cx="452.11" cy="402.408" id="TX_17"/><circle class="college-vote" r="3" cx="413.214" cy="400.301" id="TX_18"/><circle class="college-vote" r="3" cx="436.168" cy="394.455" id="TX_19"/><circle class="college-vote" r="3" cx="418.542" cy="359.625" id="TX_20"/><circle class="college-vote" r="3" cx="412.721" cy="391.365" id="TX_21"/><circle class="college-vote" r="3" cx="450.075" cy="366.729" id="TX_22"/><circle class="college-vote" r="3" cx="451.585" cy="393.484" id="TX_23"/><circle class="college-vote" r="3" cx="435.103" cy="376.533" id="TX_24"/><circle class="college-vote" r="3" cx="451.078" cy="384.499" id="TX_25"/><circle class="college-vote" r="3" cx="419.678" cy="377.382" id="TX_26"/><circle class="college-vote" r="3" cx="427.64" cy="381.395" id="TX_27"/><circle class="college-vote" r="3" cx="442" cy="362.702" id="TX_28"/><circle class="college-vote" r="3" cx="437.238" cy="412.289" id="TX_29"/><circle class="college-vote" r="3" cx="420.164" cy="386.387" id="TX_30"/><circle class="college-vote" r="3" cx="412.198" cy="382.408" id="TX_31"/><circle class="college-vote" r="3" cx="420.748" cy="395.38" id="TX_32"/><circle class="college-vote" r="3" cx="428.177" cy="390.488" id="TX_33"/><circle class="college-vote" r="3" cx="421.287" cy="404.329" id="TX_34"/><circle class="college-vote" r="3" cx="435.685" cy="385.524" id="TX_35"/><circle class="college-vote" r="3" cx="436.713" cy="403.304" id="TX_36"/><circle class="college-vote" r="3" cx="442.561" cy="371.685" id="TX_37"/><circle class="college-vote" r="3" cx="266.901" cy="192.909" id="UT_0"/><circle class="college-vote" r="3" cx="263.734" cy="216.511" id="UT_1"/><circle class="college-vote" r="3" cx="261.931" cy="207.701" id="UT_2"/><circle class="college-vote" r="3" cx="260.158" cy="198.874" id="UT_3"/><circle class="college-vote" r="3" cx="268.688" cy="201.721" id="UT_4"/><circle class="college-vote" r="3" cx="270.474" cy="210.542" id="UT_5"/><circle class="college-vote" r="3" cx="731.859" cy="252.311" id="VA_0"/><circle class="college-vote" r="3" cx="729.311" cy="234.537" id="VA_1"/><circle class="college-vote" r="3" cx="746.033" cy="241.237" id="VA_2"/><circle class="college-vote" r="3" cx="738.931" cy="246.777" id="VA_3"/><circle class="college-vote" r="3" cx="736.372" cy="228.973" id="VA_4"/><circle class="college-vote" r="3" cx="744.732" cy="232.348" id="VA_5"/><circle class="college-vote" r="3" cx="733.078" cy="261.186" id="VA_6"/><circle class="college-vote" r="3" cx="723.537" cy="248.97" id="VA_7"/><circle class="college-vote" r="3" cx="741.439" cy="264.557" id="VA_8"/><circle class="college-vote" r="3" cx="747.274" cy="250.131" id="VA_9"/><circle class="college-vote" r="3" cx="737.675" cy="237.881" id="VA_10"/><circle class="college-vote" r="3" cx="740.172" cy="255.66" id="VA_11"/><circle class="college-vote" r="3" cx="730.592" cy="243.433" id="VA_12"/><circle class="college-vote" r="3" cx="792.566" cy="98.602" id="VT_0"/><circle class="college-vote" r="3" cx="797.063" cy="90.794" id="VT_1"/><circle class="college-vote" r="3" cx="788.063" cy="90.797" id="VT_2"/><circle class="college-vote" r="3" cx="158.557" cy="38.438" id="WA_0"/><circle class="college-vote" r="3" cx="175.254" cy="55.406" id="WA_1"/><circle class="college-vote" r="3" cx="159.683" cy="56.364" id="WA_2"/><circle class="college-vote" r="3" cx="159.127" cy="47.388" id="WA_3"/><circle class="college-vote" r="3" cx="174.721" cy="46.451" id="WA_4"/><circle class="college-vote" r="3" cx="167.749" cy="60.358" id="WA_5"/><circle class="college-vote" r="3" cx="166.632" cy="42.456" id="WA_6"/><circle class="college-vote" r="3" cx="174.14" cy="37.483" id="WA_7"/><circle class="college-vote" r="3" cx="173.533" cy="28.487" id="WA_8"/><circle class="college-vote" r="3" cx="165.413" cy="24.546" id="WA_9"/><circle class="college-vote" r="3" cx="166.053" cy="33.524" id="WA_10"/><circle class="college-vote" r="3" cx="167.198" cy="51.399" id="WA_11"/><circle class="college-vote" r="3" cx="580.877" cy="151.953" id="WI_0"/><circle class="college-vote" r="3" cx="573.929" cy="129.168" id="WI_1"/><circle class="college-vote" r="3" cx="581.538" cy="133.968" id="WI_2"/><circle class="college-vote" r="3" cx="581.202" cy="142.968" id="WI_3"/><circle class="college-vote" r="3" cx="572.919" cy="156.156" id="WI_4"/><circle class="college-vote" r="3" cx="565.292" cy="151.362" id="WI_5"/><circle class="college-vote" r="3" cx="573.265" cy="147.169" id="WI_6"/><circle class="college-vote" r="3" cx="565.971" cy="133.36" id="WI_7"/><circle class="college-vote" r="3" cx="565.64" cy="142.371" id="WI_8"/><circle class="college-vote" r="3" cx="573.598" cy="138.167" id="WI_9"/><circle class="college-vote" r="3" cx="708.526" cy="246.226" id="WV_0"/><circle class="college-vote" r="3" cx="708.496" cy="228.219" id="WV_1"/><circle class="college-vote" r="3" cx="708.521" cy="237.226" id="WV_2"/><circle class="college-vote" r="3" cx="700.71" cy="232.737" id="WV_3"/><circle class="college-vote" r="3" cx="700.723" cy="241.737" id="WV_4"/><circle class="college-vote" r="3" cx="336.224" cy="170.014" id="WY_0"/><circle class="college-vote" r="3" cx="340.716" cy="162.204" id="WY_1"/><circle class="college-vote" r="3" cx="331.716" cy="162.213" id="WY_2"/></g>
	</svg>