<svg id="Layer_1" data-name="Layer 1" xmlns="http://www.w3.org/2000/svg" viewBox="0 0 60 38"><defs><style>.cls-1{fill:#3c5e5e;}</style></defs><title>US map</title><polygon class="cls-1" points="4.005 23.789 3.999 23.624 3.731 23.442 3.844 23.717 4.005 23.789"/><polygon class="cls-1" points="3.642 24.382 3.805 24.447 3.618 24.105 3.642 24.382"/><polygon class="cls-1" points="2.311 22.372 2.264 22.211 2.045 22.203 2.128 22.398 2.311 22.372"/><polygon class="cls-1" points="2.828 22.425 2.443 22.201 2.487 22.377 2.828 22.425"/><polygon class="cls-1" points="41.979 30.781 42.11 30.745 42.109 30.737 41.979 30.781"/><polygon class="cls-1" points="48.658 28.532 48.652 28.791 48.766 28.652 48.702 28.526 48.658 28.532"/><polygon class="cls-1" points="48.935 27.722 48.798 27.696 48.827 27.885 48.935 27.722"/><polygon class="cls-1" points="48.663 28.274 48.73 28.416 48.781 28.166 48.663 28.274"/><polygon class="cls-1" points="38.745 32.111 38.74 32.113 38.746 32.119 38.745 32.111"/><polygon class="cls-1" points="37.743 32.772 37.742 32.764 37.74 32.763 37.73 32.779 37.743 32.772"/><polygon class="cls-1" points="37.699 32.806 37.701 32.83 37.73 32.779 37.698 32.798 37.699 32.806"/><polygon class="cls-1" points="38.838 32.136 38.792 32.124 38.838 32.144 38.838 32.136"/><polygon class="cls-1" points="36.56 32.765 36.703 32.886 36.646 32.666 36.56 32.765"/><polygon class="cls-1" points="35.637 32.42 35.87 32.545 36.046 32.425 35.814 32.317 35.637 32.42"/><polygon class="cls-1" points="57.619 11.335 57.875 11.239 57.723 11.124 57.619 11.335"/><polygon class="cls-1" points="58.29 11.287 58.435 11.23 58.358 11.094 58.29 11.287"/><polygon class="cls-1" points="53.118 17.636 53.117 17.628 53.111 17.605 53.118 17.636"/><polygon class="cls-1" points="58.761 6.399 58.904 6.488 58.983 6.231 58.85 6.172 58.761 6.399"/><path class="cls-1" d="M60.136,5.814l-0.161.1-0.207-.176L59.711,5.3,59.32,5.265l-0.588-1.96L58.2,3.032,58.1,3.164l-0.465.313-0.165-.058-0.073-.258-0.183,0-0.45,1.3,0.046,0.168,0.029,0.238-0.113.131-0.042.259L56.83,5.683l-0.044.252-0.151.141-0.116.271L56.674,6.5l-0.217.036L56.5,6.712l-0.257.03L56.2,6.853l-0.222.02-0.013.389-0.424.121L54.9,7.55,54.256,7.7l-0.141.043-0.676.181L52.762,8.1l-0.247.073-0.281.268-0.365.586-0.075.188-0.41.4-0.047.14L51.693,10l-0.087.133,0.078,0.195,0,0.008L51.7,10.559l-0.182.047-0.19.2-0.087.14-0.273.171-0.373.059-0.211.1-0.214-.112-0.266.011-0.482.085-0.565.268L48.9,11.783l0.2,0.059,0.1,0.339-0.2.183-0.044.187-0.6.561-0.721.57-0.464.263-0.283.183-0.2.226-0.235.255-0.233.011-0.405.174-0.143.093-0.248-.093-0.184.083-0.2-.013,0.039-.006,0.335-.12-0.132-.11-0.139.124-0.25-.118-0.328-.125-0.038.006,0.247-.485,0.1-.433,0.2-.237,0-.242,0.1-.119,0.2,0.059,0.04-.529L45.3,12.253,45.082,11.5l-0.21-.428-0.2-.085-0.314.188-0.175.393-0.235.233-0.2-.1-0.043-.34,0.022-.131,0.285-.118-0.022-.174,0.189-.274,0-.273-0.067-.5L43.991,9.8l0.085-.2-0.1-.21-0.137-.206-0.643-.139-0.13-.16-0.258-.007L42.531,8.71l-0.207.113-0.154.257,0.069,0.287-0.275.168-0.026.107L41.991,9.78l-0.032.38-0.092.178L41.752,10.3l0.029-.427L41.724,9.7l-0.146.36-0.283.119,0.018,0.173-0.135.127L41.2,10.746l-0.134.526-0.092.209L41.086,11.8,41,12.056l0.1,0.262,0.277,0.5,0.09,0.511L41.48,13.85l-0.088.274-0.216.544-0.211.222-0.107.091-0.3.157-0.319-.1L39.919,14.4l-0.1-.216,0.015-.282-0.023-.263-0.059-.251-0.082-.521-0.045-.093,0.077-.431,0.093-.224-0.063-.3,0.151-.413-0.022-.246,0.139-.531,0.157-.31-0.012-.142,0.174-.5-0.238.214-0.148.4-0.211.123-0.089.248-0.033.051-0.134.171-0.151-.027,0.06-.173,0.184-.446,0.144-.045-0.014-.166L40,9.334l0.191-.3,0.186,0.03,0.087-.232,0.218-.006-0.116.307,0.2-.18,0.157-.255,0.425-.117,0.217-.024,0.194-.221,0.447,0.091,0.28,0.214,0.071-.328L43,8.357l0.108-.014,0.215-.028-0.2-.134L42.8,7.616l-0.235.157-0.477-.054L42.114,7.3l-0.247.045-0.237.139-0.392.036-0.283.055-0.3.206L40.529,8l-0.41-.134-0.1.065L39.8,7.953l-0.514-.541L39.036,7.4l-0.18-.009-0.193.278L38.642,7.4l-0.127-.248,0.109,0.02,0.049,0.17L38.825,7l0.265-.244,0.24-.1-0.15-.1-0.385.073L38.531,6.9l-0.061.163-0.039-.076L38.17,7.3l-0.21.07-0.269.241-0.457.142L37.1,7.9l-0.384.19-0.145-.015-0.15-.119-0.208.131,0.023-.254,0.131-.214-0.112-.089-0.242.164-0.422.171-0.673.173,0.1-.194L35.331,7.6l0.308-.291,0.4-.518,0.269-.252L37.03,6.2l0.406-.264-0.315.029L36.866,5.8l-0.593.059L36.12,5.648l-0.135.086-0.2.168-0.313.07-0.22-.218-0.289-.216-0.175.008-0.1.2-0.151-.324-0.565-.24-0.381.059-0.31.118L33.208,5.2,32.651,5.1,32.406,5l-0.148-.757-0.311-.122,0,0.556-0.172,0-1.037,0-0.794-.007-0.691-.012-1-.027-0.518-.018-0.621-.025L25.84,4.522l-0.482-.03-0.9-.062-1.068-.086L22.43,4.255l-1-.1L20.4,4.034,19.373,3.9l-1.2-.166-1.2-.183L16.5,3.486l-0.884-.159L13.848,3,13.2,2.87l-1.218-.256L11.041,2.4,10.67,2.316,9.963,2.148,9.359,2,7.484,1.51,6.615,1.277,5.687,1l-0.058.081L5.813,1.575l-0.077.271L5.664,1.719l-0.112.139L5.6,1.91l-0.224.183L5.468,2.414,5.621,2.647l0.051-.181-0.134-.3,0.139-.107L5.629,1.94,5.776,2.1l-0.053.059,0.026,0.04L5.841,2.515l-0.27.314-0.115.147L5.469,3.455l-0.113.008-0.1-.022L4.994,3.7,4.923,3.558,4.78,3.672,4.652,3.6,5,3.3,5.184,3.29,5.252,3.31l0.032-.245,0.2-.465-0.3.281-0.332.131L4.926,2.9l0.262-.275-0.019.2L5.378,2.6l-0.1-.408-0.1.078-0.167-.18L4.762,2.073l-0.28-.167-0.27-.075-0.506-.5L3.511,1.6l0.01,0.449L3.635,2.285l-0.023.322L3.6,3.395,3.877,3.58,3.548,3.561l-0.012.161,0.1,0.412L3.4,4.417,3.511,4.566,3.669,4.54,3.936,4.655l0.205,0.2,0,0.007-0.152,0-0.1-.178-0.126.044L3.452,4.639l-0.083-.1L3.379,4.881,3.248,5.2l-0.123.542L2.9,6.226l-0.163.29-0.267.765-0.247.564-0.143.347-0.326.431-0.245.415-0.121.137L1.46,9.607l-0.141.332-0.026.351,0.1,0.2-0.129.294,0.055,0.085-0.005.424-0.279.523,0.054,0.093-0.259.454-0.068-.046-0.26.32,0,0.284,0.2,0.3-0.142.169-0.055.3v0.284L0.508,14.39l0.1,0.507-0.08.138,0.189,0.286,0.121,0.342L1.03,15.9l0.094,0.269-0.013.2-0.141.2,0.163,0.024L1.439,17l0.156-.4-0.057-.1,0.156,0.045,0,0.008,0.117,0.034L1.956,16.8l-0.149-.056-0.1.212-0.078.127,0.144,0.241,0.012,0.262,0.1,0.095L1.731,17.63l-0.186-.245L1.552,17.2l-0.117-.034-0.115.258,0.053,0.265-0.064.231L1.39,18.089l0.178,0.284,0.167,0.015,0.11,0.222-0.072.262-0.237.082-0.028.416,0.2,0.222,0.053,0.281,0.1,0.1,0.089,0.315,0.237,0.579L2.34,20.947l-0.108.244,0.245,0.233-0.067.255-0.016.4-0.13.163,0.155,0.249,0.539,0.127,0.148,0.113L3.548,22.9,3.716,23.1l0.04,0.2,0.3,0.231,0.151,0.1,0.3,0.018,0.179,0.553,0.221,0,0.469,0.654,0.11,0.1,0.137,0.376-0.044.6,0.156,0.1-0.045.2,1.217,0.15,1.693,0.2-0.158.123-0.035.18L10.042,27.9l2.234,1.318L12.6,29.409l0.743,0.119,1.753,0.26,1.009,0.138,0.085-.664,1.135,0.144,0.919,0.108,0.166,0.1,0.179,0.4,0.25,0.164,0.231,0.352,0.209,0.142,0.232,0.368,0.215,0.093,0.242,0.287L20.089,31.6l-0.016.182,0.195,0.329,0.009,0.4,0.144,0.412,0.3,0.218,0.205,0.265,0.352,0.157,0.081,0.126,0.224,0.05,0.123,0.177,0.355,0.139,0.249-.29,0.139-.029,0.015-.214,0.311-.558,0.317,0,0.1-.169,0.262,0.145L23.9,32.985,24.265,33l0.214,0.227,0.037,0.161,0.566,0.468,0.125,0.236,0.164,0.389L25.4,34.726l0.132,0.117,0.2,0.588,0.181,0.079,0.174,0.252,0.035,0.271,0.36,0.252,0.177,0.236-0.011.315-0.013.362,0.224,0.268,0.127,0.4,0.087,0.215,0.373,0.1,0.277,0.173,0.187,0.052,0.324,0.26,0.471-.013L28.9,38.7l0.232,0.224L29.321,39l0.241-.327-0.141-.088-0.088-.427-0.09-.276-0.135-.333,0.2-.636-0.187.044-0.277-.084,0.421-.174,0.044,0.127,0.144-.353,0.1-.2-0.139-.033-0.043-.183-0.232,0,0.369-.073V35.971l0.187-.306-0.187.211V35.867l0-.135,0.3-.2,0.1,0.12L29.8,35.509l-0.3-.079V35.367l0.351-.189L30.14,35.36l0.4-.172L29.9,34.957l-0.4-.151V34.775L30.034,34.8l0.336,0.142,0.146-.15,0.095,0.047,0.116,0.047,0.195,0.056,0.281-.135,0.323-.048,0.229-.143,0.364-.24,0.089-.286,0.136-.025,0.225-.272-0.184-.244,0.089-.2,0.179-.169,0.136,0.053-0.04.342,0.316-.052-0.709.244,0.145-.246V33.515l0.8-.183,0.4-.021,0.177-.066,0.764-.075,0.753,0.262,0.421,0.055,0.226-.136-0.092-.123,0.264-.2,0.181-.008-0.039.137,0.27-.021,0.009,0.175,0.142,0.152L37.047,33.5l0.128-.158-0.035.216,0.245,0.369,0.125-.23L37.7,33.835l-0.176.112,0.32,0.03,0.173-.169-0.051-.1,0.273,0.055,0.043-.074,0.2,0.321,0.129-.127,0.042-.066-0.02-.324-0.234-.12,0.076-.243,0.056,0.187,0.189,0.123L39.369,33.6l0.06,0.211,0.178-.061,0.061,0.226,0.224-.064-0.162-.362-0.041.066-0.563-.27-0.1-.137,0.215-.092L39.1,32.986l0.27-.019,0.168-.187L39.4,32.742,39.34,32.6l-0.16.4H39.044l-0.192-.275,0.255-.288,0.132-.073L39.5,32.15l-0.052-.106,0.1,0.094,0.478-.221,0.187,0.1,0.443-.091,0.358-.014,0.04-.61,0,0.024,0,0.04,0.092,0.032,0.082,0.448L41.464,32l-0.307.107,0.532-.1,0.2-.282-0.095-.047,0.141,0.067-0.118.194,0.341-.215-0.06-.161,0.191,0.125-0.165.16,0.483-.127,0.269-.019,0.214-.1,0.174-.066,0.193,0.123-0.358.021,0,0.032,0.506,0.106,0.379,0.175L43.526,31.9,43.5,32.08v0.008l0.081-.094L44.2,32.238l0.376,0.321,0.322-.063-0.027-.089,0.2,0.042,0.424-.315,0.23-.012-0.1-.1,0.075-.138,0.351-.1,0.09,0,0.486,0.256,0.164,0.21,0.19,0.055L47,32.492l0.31,0.269,0.092,0,0.074,0.214,0.32-.013,0.123,0.222,0-.008,0.2,0.427,0.007,0.383-0.083.4,0.037,0.266-0.066.2,0.306,0.188,0.014-.233-0.152-.09,0.075-.131,0.36,0.243-0.194.284-0.1.27,0.155,0.105,0.206,0.464L48.836,36.1,48.9,36.229l0.242,0.036L48.964,36l0-.016L49.294,36l-0.127.1,0.075,0.2,0.1,0.343,0.2,0.073,0.074,0.18,0.1,0.336,0.324,0.252,0.346,0.073,0.381,0.607,0.189-.015,0.079,0.194-0.266-.163-0.019.185,0.118,0.14,0.314-.146,0.463-.124,0.04-.047,0.047-.008,0.109-.218-0.061-.371,0.109-.21,0.041-.334,0.01-.512-0.149-.9-0.1-.023,0.046-.008-0.287-.31-0.005-.032,0.04-.047-0.207-.4-0.248-.374-0.311-.485-0.264-.493-0.1-.336,0.155,0.1,0.12,0.461,0.134-.327-0.273-.26-0.045.007-0.532-.748-0.019-.117-0.231-.309,0-.016L49.7,31.9l-0.174-.237-0.223-.567-0.068-.15-0.184-.02-0.032.391,0.089-.006-0.073.116,0.153,0.112L49.28,31.83l-0.12.107,0.013,0.4,0.154,0.1,0.034,0.227-0.109-.112-0.065-.126-0.06-.095,0.047-.609-0.027-.18L49,31.456l-0.033-.22,0.044-.312,0.217-.066L49.2,30.706l0-.271-0.529.01L48.5,30.409V30.392l0.045-.3-0.045.035V30.08l0.142-.176,0.336,0.275L49.022,30H48.5V29.513l0.408-.059,0.077-.275,0.228-.067-0.163-.09,0.184-.059-0.153-.176,0.2,0.1,0.016-.2-0.137-.035,0.121-.084,0.191,0.082-0.094-.316L49.237,28.3l0.214-.051,0.123-.061,0.054-.218-0.106-.112,0-.032,0-.016L49.5,27.742l-0.026-.165,0.36,0.046-0.014-.087,0.185,0.05-0.023-.142L50.1,27.587l0.121-.069,0.28-.178-0.03-.44,0.166-.061L50.59,27.1l0.324-.43,0.169-.039,0.143-.188-0.185-.056,0.259-.022-0.011-.315,0.12-.313,0.426-.543L51.881,25.2l0.45-.159,0.176,0.006,0.061-.142-0.061-.321,0.1,0.046,0.129-.237,0.209-.27,0.184-.168,0.187-.3,0.021,0.039,0.234-.13,0.252-.036,0.054-.158,0.15,0.1,0.178-.4-0.176-.02-0.282.1,0.023,0.109L53.5,23.233l-0.176-.156,0.1-.032,0.2,0.139,0.236-.328L53.847,22.6l-0.113.082-0.019-.094-0.438-.047-0.2-.139,0.04-.017,0.145,0.085,0.479,0.039-0.119-.163,0.147-.121-0.063.112,0.163,0.169,0.067-.1,0.315,0.071,0.215-.407-0.019-.093,0.208-.03-0.121-.366-0.287.055,0.068,0.321-0.172,0,0.127-.011-0.134-.438-0.309.157-0.055-.062-0.309.155-0.15-.32,0.014-.142-0.092-.123,0.117,0.036,0.068,0.337,0.221,0.044-0.023-.11,0.36-.109-0.156-.139,0.264,0.041-0.23-.286,0.3,0.222,0.129,0-0.176-.231,0.326,0.338-0.348-.44-0.083-.195,0.04-.009,0.04-.009,0.082-.018,0.219,0.435-0.179-.444-0.272-.489-0.205.028-0.174-.028,0.16,0.161-0.04.009-0.039.017-0.116.05-0.008-.04L53.5,20.267l-0.165.019L53.4,20.2l-0.225-.075-0.071-.14-0.388-.059-0.081-.074,0.233-.006,0.006,0.031,0.3,0.051,0.294,0.207,0.132-.176-0.169,0-0.008-.039-0.016-.079-0.12-.059,0.1-.042-0.1-.266,0.2,0.169,0-.189-0.223-.066,0.145-.105-0.3-.018-0.207-.194-0.339-.24-0.028-.142-0.186-.1,0.038-.016,0.144,0.1,0.066,0.125,0.373,0.2,0.123,0.195,0.188-.1,0.064-.3-0.277-.138-0.12.025-0.079-.188-0.243.026-0.268-.1-0.039-.2-0.175.093,0.162-.156,0.164,0.2,0.05-.165,0.189,0.124,0.479,0.12L52.7,18l-0.013-.063-0.036-.18,0.1,0.283L53.03,18.2,52.8,17.65l0.067-.472-0.214-.249-0.039.008,0.03-.055L52.765,16.9l0.022-.29,0.26-.122,0.006-.165,0.112-.049-0.026.268,0.238-.028-0.311.068-0.127.371,0.106,0.116,0.217-.333-0.191.459L53.2,17.244l-0.026.268-0.109-.132-0.048.165,0.367,0.184,0.052-.34,0.037,0.173-0.084.19-0.249-.011-0.04.2,0.205,0.193,0.259,0.051,0.106-.286-0.019.3,0.106-.081-0.049.158,0.036,0.369,0.3-.172-0.225.705,0.123-.01-0.12.026-0.03.457,0.123,0.186-0.018-.283,0.1-.317,0.178-.146-0.04-.188,0.141-.318,0-.2,0.1-.309,0.1-.089,0.014-.315,0.039-.009-0.19-.49-0.283-.165-0.112-.139-0.062-.289-0.151-.131-0.2-.342,0.134-.324,0.211-.146L54,15.429l0,0.008-0.043.174-0.279.211-0.106.261,0.006,0.031,0.075,0.156L53.8,16.4l0,0.008,0.039-.009,0.281,0.166,0.29,0.016,0.038,0.36,0.175-.139,0.064-.45,0.208-.164-0.064-.281,0-.008,0.223-.275L55,15.58l0.072-.568,0.008-.314-0.072-.138-0.244-.008-0.024-.107,0.111-.218-0.113.035-0.013.119-0.009-.04,0.008-.142,0.061-.088,0.092-.121,0.047-.315-0.221-.44,0.234,0.321-0.021.252,0.011,0.047,0.029,0.124,0.123-.161,0.075-.191,0.243-.158,0.28-.333,0.593-.192-0.037.009,0-.008,0.224-.066-0.131-.2,0.165,0.18,0.468-.2,0.361-.154-0.029-.422-0.007-.18,0.043,0.013,0.126,0.024L57.5,11.974l0.083,0.317,0.058-.082,0.208-.123,0.041-.144,0.178-.232,0.046,0.319,0.225-.2,0.39-.185,0.037-.159-0.1-.236-0.193-.12,0.206,0.315-0.228.189L58.121,11.6l-0.046-.169L57.9,11.353l0.043-.136-0.206-.174-0.084-.018-0.1.053-0.123-.016-0.033-.123-0.045-.021L57.38,10.9l0.06-.074,0.069-.184,0.255-.228-0.21-.049-0.1-.221L57.5,9.866l-0.2,0,0.016-.087,0.207,0.042,0.01-.4,0.1-.069,0.038-.292,0.134-.079L57.69,8.838l0.06-.207L58,8.418l0.075,0.268,0.091-.093-0.189-.26-0.023.056,0.056-.355L58.02,8.206l0.14,0.365-0.034-.264L58.382,8.39,58.455,8.1l0.178,0.08,0.1-.211-0.047-.3,0.063-.184-0.1-.085,0.165-.1-0.09-.313L58.86,7.214l-0.03.166,0.394,0.155L59.08,7.3l0.432-.24,0.132,0.184-0.037-.254,0.152,0.119,0.017-.329,0.119,0.138,0.15-.272,0.315-.108,0.141-.3ZM2.545,16.971L2.38,16.958,1.962,16.8,2.073,16.7l0.245,0.178,0.2-.125L2.609,16.89Zm50.3,2.377,0.121,0.187,0.256,0.211-0.19-.093-0.107-.116-0.276-.131Zm-0.46.413,0.019,0.094,0.138,0-0.13.043-0.085-.007-0.023-.118ZM52.21,17.805l-0.137.347,0.073,0.169-0.111.059-0.008-.252-0.009-.252L52.147,17.9l0.075-.244-0.016-.078-0.058-.086,0.106,0.125Z" transform="translate(-0.5 -1)"/><polygon class="cls-1" points="41.161 8.115 41.266 8.064 41.208 7.863 41.161 8.115"/><polygon class="cls-1" points="43.254 7.258 43.126 7.116 42.862 7.342 43.158 7.367 43.254 7.258"/><polygon class="cls-1" points="37.775 4.859 38.034 4.563 37.796 4.668 37.295 5.03 37.339 5.153 37.775 4.859"/><polygon class="cls-1" points="54.247 20.575 53.887 20.089 53.987 20.362 54.247 20.575"/><polygon class="cls-1" points="55.819 12.46 56.038 12.049 55.756 12.369 55.195 12.536 55.178 12.631 54.869 12.682 54.929 12.766 54.797 12.716 54.653 12.957 54.44 13.075 54.405 13.272 54.583 13.171 54.701 13.159 54.67 13.2 54.715 13.222 55.037 13.052 55.207 12.919 55.824 12.64 56.319 12.207 56.224 12.149 55.819 12.46"/><polygon class="cls-1" points="49.128 27.247 49.277 27.069 49.176 26.997 49.128 27.247"/><polygon class="cls-1" points="49.21 26.652 49.205 26.62 49.115 26.61 49.043 26.712 49.256 26.943 49.211 26.654 49.31 26.998 49.49 26.742 49.21 26.652"/><polygon class="cls-1" points="28.843 36.45 28.898 35.892 28.85 35.938 28.843 36.45"/><polygon class="cls-1" points="29.559 34.675 29.559 34.699 30.113 34.323 29.883 34.416 29.559 34.675"/><polygon class="cls-1" points="29.061 35.452 29.061 35.444 28.916 35.892 29.061 35.452"/><polygon class="cls-1" points="4.974 0.37 4.86 0.515 5.086 0.484 4.974 0.37"/></svg>