<?xml version="1.0" standalone="no"?><!DOCTYPE svg PUBLIC "-//W3C//DTD SVG 1.1//EN" "http://www.w3.org/Graphics/SVG/1.1/DTD/svg11.dtd"><svg width="960" height="700" version="1.1" xmlns:xlink="http://www.w3.org/1999/xlink" xmlns="http://www.w3.org/2000/svg">
<path d="M 609 317 L 607 315 L 610 315 L 616 314 L 622 314 L 622 314 L 627 313 L 628 313 L 635 312 L 635 312 L 642 312 L 646 311 L 647 314 L 648 318 L 648 319 L 648 320 L 650 324 L 651 328 L 651 330 L 652 331 L 653 336 L 654 339 L 654 340 L 656 346 L 656 346 L 657 350 L 658 352 L 659 355 L 661 357 L 661 359 L 661 360 L 663 361 L 662 362 L 660 364 L 661 365 L 661 366 L 660 369 L 660 371 L 660 371 L 662 375 L 662 379 L 662 382 L 663 383 L 664 385 L 656 386 L 656 386 L 647 387 L 645 387 L 642 387 L 637 388 L 635 388 L 629 388 L 623 389 L 622 392 L 624 394 L 626 395 L 626 398 L 627 399 L 624 403 L 620 404 L 618 404 L 621 402 L 619 400 L 618 398 L 618 395 L 616 394 L 616 394 L 616 394 L 615 399 L 615 401 L 611 402 L 610 395 L 609 390 L 609 388 L 608 382 L 608 377 L 607 373 L 607 367 L 608 366 L 608 361 L 608 354 L 608 353 L 608 347 L 608 343 L 608 339 L 608 333 L 608 332 L 608 328 L 608 325 L 608 323 Z M 625 402 L 625 402 L 625 402 Z" fill="{{ AL.fill }}"/><path d="M 50 487 L 51 488 L 51 489 L 52 490 L 51 489 L 51 488 L 50 487 Z M 60 490 L 60 491 L 60 490 Z M 70 494 L 69 494 L 69 494 L 69 493 Z M 70 494 L 71 494 L 70 494 L 70 494 Z M 71 494 L 71 494 L 70 494 Z M 63 491 L 63 491 L 63 491 L 64 492 L 64 492 L 63 492 L 63 493 L 62 492 L 63 492 L 62 491 Z M 66 493 L 65 493 L 65 493 L 64 492 L 66 493 L 66 493 L 66 492 L 67 492 L 66 493 L 66 493 Z M 50 485 L 50 485 L 50 486 Z M 69 492 L 68 493 L 69 493 L 69 494 L 68 494 L 67 494 L 67 494 L 67 494 L 66 494 L 67 493 L 67 493 L 68 493 L 68 492 Z M 55 487 L 55 487 L 54 488 L 54 487 L 54 487 Z M 71 492 L 71 493 L 71 493 L 70 493 Z M 47 483 L 47 483 L 47 483 L 47 484 L 46 484 L 45 484 L 45 483 L 46 483 L 46 483 Z M 81 495 L 81 495 L 81 496 L 82 496 L 83 496 L 81 496 L 80 495 L 79 496 L 79 495 L 79 495 L 80 495 Z M 85 495 L 86 495 L 85 496 L 85 496 L 85 495 Z M 79 493 L 79 494 L 79 494 L 78 494 L 79 495 L 77 495 L 76 495 L 75 494 L 74 494 L 76 494 L 77 494 L 78 494 L 78 494 L 78 493 L 78 493 Z M 35 474 L 34 475 L 34 474 L 33 474 L 34 473 Z M 93 495 L 93 495 L 93 496 L 92 496 L 92 495 Z M 97 494 L 97 495 L 96 495 L 96 494 Z M 33 469 L 34 470 L 34 471 L 34 471 L 33 471 L 33 471 L 32 471 L 32 470 L 32 470 L 32 469 L 32 469 L 31 469 L 32 469 Z M 99 495 L 101 494 L 101 494 L 102 493 L 103 493 L 102 493 L 103 492 L 103 492 L 104 492 L 105 492 L 105 493 L 103 494 L 102 495 Z M 112 491 L 111 492 L 111 492 Z M 110 490 L 110 491 L 111 490 L 111 490 L 111 491 L 111 491 L 110 492 L 111 492 L 111 492 L 110 492 L 110 493 L 109 493 L 109 493 L 109 493 L 106 494 L 105 494 L 104 493 L 106 493 L 108 493 L 108 492 L 108 492 L 108 492 L 109 492 L 108 491 L 108 490 L 108 490 Z M 102 471 L 103 471 L 103 471 Z M 102 467 L 101 467 L 101 467 Z M 116 490 L 116 491 L 116 491 L 116 490 Z M 113 489 L 114 490 L 113 490 L 112 490 L 112 489 Z M 115 489 L 114 489 L 115 489 L 114 490 L 114 489 L 114 489 Z M 125 489 L 126 490 L 125 490 Z M 127 486 L 127 487 L 127 487 L 127 487 Z M 122 485 L 123 485 L 123 486 L 123 487 L 124 487 L 124 488 L 123 488 L 123 487 L 123 488 L 122 488 L 121 488 L 120 488 L 119 488 L 119 489 L 118 489 L 117 489 L 117 488 L 117 487 L 118 487 L 119 486 L 119 485 L 120 486 L 121 485 Z M 129 485 L 130 486 L 129 486 L 129 485 Z M 138 486 L 138 486 L 137 487 Z M 137 485 L 136 487 L 135 487 L 136 486 L 136 486 L 136 485 Z M 135 485 L 135 485 L 134 485 Z M 133 484 L 134 485 L 134 485 L 134 486 L 134 486 L 133 485 L 133 485 Z M 135 484 L 135 484 L 135 484 Z M 141 475 L 141 476 L 142 476 L 142 475 L 142 474 L 143 473 L 144 472 L 145 471 L 145 471 L 146 472 L 146 471 L 145 471 L 145 470 L 146 468 L 146 467 L 147 467 L 146 466 L 146 465 L 147 464 L 148 463 L 148 462 L 148 462 L 148 463 L 146 463 L 144 464 L 144 464 L 144 463 L 143 463 L 143 461 L 143 462 L 142 462 L 142 463 L 141 462 L 142 463 L 142 464 L 142 465 L 142 465 L 141 465 L 140 463 L 139 462 L 139 462 L 139 462 L 139 462 L 138 462 L 138 462 L 137 462 L 137 461 L 137 461 L 135 462 L 135 462 L 135 462 L 134 462 L 133 463 L 132 463 L 132 463 L 131 463 L 132 462 L 133 462 L 132 462 L 132 460 L 133 460 L 132 460 L 132 460 L 132 459 L 132 458 L 133 457 L 132 456 L 132 455 L 132 455 L 132 453 L 132 453 L 131 452 L 132 451 L 132 450 L 132 450 L 131 451 L 131 451 L 131 452 L 131 453 L 130 454 L 128 454 L 126 454 L 125 454 L 125 453 L 125 453 L 125 452 L 124 451 L 124 451 L 125 450 L 125 450 L 125 450 L 125 449 L 125 449 L 126 449 L 126 449 L 127 448 L 127 448 L 127 449 L 128 449 L 128 448 L 128 448 L 127 447 L 128 447 L 128 447 L 128 447 L 127 447 L 127 446 L 126 447 L 126 447 L 125 447 L 125 447 L 124 447 L 124 446 L 123 446 L 123 446 L 124 446 L 123 444 L 123 445 L 122 445 L 122 444 L 122 444 L 122 444 L 121 443 L 122 442 L 122 442 L 121 442 L 121 441 L 122 441 L 122 441 L 121 440 L 123 440 L 123 439 L 123 438 L 124 437 L 125 436 L 126 436 L 127 435 L 128 435 L 129 437 L 129 435 L 128 435 L 128 434 L 129 434 L 130 433 L 130 433 L 131 433 L 132 433 L 132 433 L 133 432 L 134 431 L 134 431 L 135 431 L 135 431 L 136 431 L 138 431 L 139 430 L 139 428 L 139 427 L 138 425 L 137 425 L 137 425 L 138 425 L 139 424 L 139 423 L 139 423 L 139 422 L 139 422 L 138 422 L 138 423 L 137 423 L 136 423 L 136 423 L 135 424 L 134 424 L 134 425 L 134 425 L 134 424 L 133 423 L 132 423 L 133 424 L 133 425 L 131 423 L 129 423 L 127 424 L 127 423 L 124 422 L 124 421 L 124 421 L 124 420 L 123 419 L 123 418 L 124 419 L 124 418 L 125 418 L 126 418 L 126 419 L 126 419 L 127 419 L 127 419 L 126 418 L 126 419 L 125 418 L 124 417 L 122 416 L 121 415 L 121 415 L 121 414 L 122 414 L 122 414 L 123 413 L 123 414 L 124 413 L 125 412 L 126 412 L 127 412 L 128 413 L 128 412 L 127 412 L 128 411 L 128 411 L 129 411 L 130 411 L 131 410 L 131 410 L 133 410 L 133 411 L 132 412 L 132 412 L 132 413 L 132 413 L 133 414 L 133 414 L 134 414 L 135 414 L 135 414 L 136 414 L 137 414 L 137 415 L 138 414 L 139 413 L 139 414 L 140 414 L 140 413 L 138 412 L 137 413 L 138 412 L 137 410 L 136 410 L 136 409 L 137 408 L 137 409 L 138 410 L 137 411 L 138 411 L 139 412 L 140 412 L 141 413 L 142 413 L 142 412 L 142 411 L 141 411 L 141 411 L 140 411 L 139 411 L 139 412 L 138 410 L 138 409 L 139 409 L 138 408 L 137 408 L 136 408 L 136 408 L 135 408 L 134 407 L 133 405 L 133 404 L 132 403 L 130 400 L 129 399 L 129 399 L 128 398 L 128 398 L 129 397 L 129 395 L 131 395 L 134 395 L 135 395 L 136 394 L 137 393 L 138 391 L 138 390 L 139 389 L 139 389 L 140 388 L 141 387 L 141 388 L 140 388 L 141 388 L 141 388 L 142 388 L 143 387 L 145 386 L 145 386 L 145 387 L 145 388 L 145 387 L 146 386 L 145 386 L 145 386 L 146 384 L 147 384 L 147 384 L 147 385 L 150 384 L 151 384 L 151 383 L 152 382 L 153 381 L 153 382 L 154 382 L 154 383 L 155 383 L 155 383 L 155 384 L 154 384 L 154 384 L 154 385 L 155 385 L 155 385 L 155 384 L 156 384 L 156 383 L 156 383 L 157 383 L 157 384 L 157 384 L 158 385 L 158 384 L 159 384 L 160 384 L 161 384 L 161 385 L 161 384 L 162 385 L 162 386 L 162 386 L 163 386 L 161 387 L 163 386 L 163 387 L 164 387 L 165 388 L 165 387 L 166 387 L 166 388 L 166 387 L 167 387 L 168 387 L 169 387 L 170 387 L 170 387 L 171 388 L 172 387 L 172 388 L 174 388 L 175 388 L 176 388 L 177 388 L 178 389 L 180 389 L 180 388 L 182 387 L 184 388 L 185 388 L 185 389 L 186 389 L 187 390 L 188 389 L 188 389 L 190 397 L 193 414 L 198 439 L 200 449 L 200 449 L 202 449 L 202 449 L 203 449 L 204 448 L 206 448 L 206 449 L 207 450 L 208 450 L 208 451 L 212 454 L 213 455 L 213 456 L 215 453 L 216 453 L 216 453 L 216 451 L 216 451 L 216 450 L 216 450 L 217 450 L 218 449 L 218 448 L 219 449 L 220 449 L 220 450 L 220 451 L 221 451 L 222 451 L 222 451 L 223 452 L 223 452 L 224 453 L 225 453 L 226 454 L 228 455 L 227 455 L 229 456 L 229 457 L 230 458 L 232 460 L 233 460 L 234 461 L 234 462 L 235 462 L 235 463 L 236 463 L 236 464 L 237 464 L 239 465 L 241 465 L 241 465 L 242 465 L 242 466 L 243 466 L 243 465 L 244 466 L 244 466 L 244 468 L 245 469 L 246 470 L 246 471 L 246 472 L 245 473 L 245 474 L 244 474 L 244 475 L 244 474 L 243 473 L 243 472 L 243 473 L 242 472 L 243 471 L 242 469 L 240 468 L 239 468 L 239 468 L 238 469 L 238 469 L 238 469 L 238 471 L 237 471 L 237 470 L 237 470 L 237 469 L 237 469 L 237 467 L 238 467 L 237 467 L 236 466 L 236 466 L 235 466 L 235 465 L 235 465 L 234 465 L 234 464 L 233 464 L 232 463 L 232 463 L 232 463 L 232 463 L 230 463 L 230 463 L 229 462 L 231 462 L 230 462 L 229 461 L 229 460 L 228 460 L 228 459 L 230 460 L 229 459 L 228 459 L 228 458 L 228 458 L 228 458 L 228 459 L 228 459 L 227 458 L 226 458 L 226 456 L 226 456 L 226 456 L 225 457 L 224 456 L 223 457 L 223 456 L 222 455 L 221 453 L 221 453 L 222 453 L 222 455 L 221 454 L 221 453 L 219 451 L 219 451 L 219 452 L 219 452 L 220 453 L 220 453 L 221 455 L 221 456 L 222 457 L 222 458 L 222 458 L 221 457 L 220 456 L 221 457 L 220 457 L 219 458 L 219 457 L 219 456 L 218 455 L 219 454 L 218 454 L 217 453 L 218 455 L 218 455 L 217 455 L 216 454 L 216 455 L 215 455 L 215 455 L 216 455 L 217 455 L 216 456 L 217 456 L 217 457 L 218 456 L 218 456 L 219 458 L 218 458 L 218 458 L 218 459 L 217 458 L 217 459 L 216 459 L 215 459 L 213 458 L 212 457 L 212 456 L 211 455 L 210 455 L 210 455 L 209 455 L 206 454 L 206 454 L 205 453 L 205 453 L 205 453 L 206 452 L 205 451 L 205 450 L 206 451 L 206 451 L 205 450 L 205 450 L 205 451 L 204 452 L 203 453 L 201 453 L 199 452 L 200 451 L 199 450 L 199 451 L 199 451 L 199 452 L 195 452 L 192 452 L 191 453 L 190 452 L 190 452 L 189 452 L 188 451 L 187 451 L 188 450 L 188 449 L 187 450 L 187 451 L 186 451 L 186 451 L 185 451 L 184 451 L 185 449 L 184 450 L 184 449 L 183 450 L 184 449 L 182 449 L 182 449 L 182 449 L 183 449 L 183 448 L 182 449 L 181 448 L 182 447 L 183 447 L 182 447 L 182 447 L 181 448 L 180 448 L 180 448 L 179 449 L 179 448 L 179 447 L 178 448 L 179 449 L 178 449 L 178 449 L 177 448 L 177 447 L 178 447 L 178 446 L 177 447 L 177 448 L 177 447 L 176 449 L 175 450 L 175 450 L 176 449 L 176 451 L 176 450 L 177 451 L 176 451 L 176 451 L 175 451 L 175 452 L 176 451 L 177 451 L 177 451 L 178 451 L 178 452 L 177 453 L 177 453 L 177 454 L 176 455 L 176 455 L 174 455 L 174 454 L 174 455 L 174 455 L 173 454 L 173 455 L 173 455 L 173 456 L 172 455 L 172 457 L 171 456 L 171 456 L 172 457 L 171 457 L 171 458 L 170 458 L 171 457 L 170 459 L 170 458 L 170 459 L 169 459 L 168 460 L 168 460 L 168 460 L 167 460 L 167 460 L 166 461 L 166 460 L 165 460 L 165 459 L 166 459 L 167 459 L 167 458 L 168 458 L 168 458 L 168 456 L 168 456 L 167 458 L 166 458 L 165 457 L 166 455 L 167 454 L 167 453 L 167 453 L 167 452 L 167 450 L 168 450 L 169 449 L 170 448 L 170 449 L 171 449 L 172 449 L 172 449 L 174 449 L 174 449 L 173 449 L 173 449 L 172 448 L 171 447 L 171 446 L 173 445 L 173 445 L 173 445 L 172 445 L 171 446 L 171 447 L 169 447 L 169 446 L 169 447 L 168 447 L 167 448 L 166 449 L 165 450 L 166 450 L 165 450 L 165 451 L 164 451 L 164 452 L 164 453 L 163 454 L 162 454 L 163 454 L 163 455 L 163 456 L 162 456 L 161 456 L 161 457 L 162 457 L 161 457 L 161 458 L 160 458 L 161 457 L 160 457 L 160 457 L 160 458 L 159 458 L 159 459 L 158 460 L 158 461 L 158 461 L 158 462 L 158 461 L 159 461 L 160 462 L 161 462 L 161 463 L 161 463 L 161 463 L 160 464 L 159 464 L 159 464 L 158 465 L 158 465 L 158 466 L 158 466 L 158 467 L 157 467 L 157 468 L 157 467 L 157 468 L 156 468 L 156 468 L 155 468 L 155 469 L 154 470 L 153 470 L 153 470 L 153 471 L 152 471 L 152 471 L 151 471 L 151 472 L 151 472 L 149 473 L 149 473 L 150 473 L 150 473 L 150 474 L 149 475 L 149 475 L 148 475 L 148 475 L 147 476 L 146 476 L 146 476 L 146 477 L 146 477 L 145 477 L 145 477 L 144 477 L 143 478 L 145 478 L 144 478 L 143 478 L 143 478 L 143 478 L 141 479 L 142 479 L 143 479 L 142 481 L 141 480 L 141 481 L 141 481 L 140 481 L 139 482 L 138 482 L 138 481 L 138 481 L 138 482 L 138 483 L 138 482 L 137 482 L 137 482 L 136 482 L 136 482 L 135 483 L 134 484 L 134 483 L 134 484 L 133 484 L 133 483 L 132 484 L 131 484 L 130 484 L 131 483 L 131 483 L 130 482 L 130 483 L 130 484 L 129 485 L 128 485 L 129 486 L 128 486 L 128 485 L 127 486 L 127 486 L 127 484 L 126 484 L 126 484 L 126 485 L 126 486 L 126 486 L 126 486 L 125 486 L 125 485 L 124 485 L 124 486 L 125 486 L 123 487 L 124 485 L 124 485 L 124 485 L 125 485 L 126 484 L 126 484 L 127 484 L 127 483 L 128 482 L 130 481 L 131 480 L 132 480 L 133 480 L 133 481 L 133 482 L 134 482 L 134 481 L 134 481 L 135 482 L 135 482 L 136 482 L 135 481 L 134 480 L 135 479 L 137 477 L 139 476 L 141 475 Z M 239 472 L 240 472 L 240 473 L 239 472 Z M 240 468 L 241 468 L 242 469 L 242 471 L 242 472 L 242 472 L 241 472 L 241 471 L 240 472 L 239 472 L 239 470 L 239 470 L 239 470 L 239 469 L 239 469 Z M 136 462 L 135 463 L 134 464 L 134 463 Z M 147 477 L 148 478 L 146 478 Z M 153 483 L 152 483 L 153 482 Z M 159 478 L 158 478 L 158 478 Z M 157 478 L 156 478 L 156 479 L 156 478 Z M 158 478 L 157 478 L 157 478 L 157 478 Z M 161 474 L 162 474 L 162 474 L 161 474 L 161 475 L 160 474 Z M 160 469 L 161 469 L 161 470 L 160 469 Z M 161 468 L 162 469 L 162 469 L 162 469 L 162 470 L 163 470 L 163 469 L 164 470 L 163 470 L 164 470 L 164 471 L 165 471 L 164 472 L 164 472 L 163 472 L 162 472 L 163 472 L 163 473 L 162 473 L 162 473 L 161 473 L 162 473 L 162 474 L 161 474 L 160 475 L 160 474 L 160 475 L 159 477 L 158 477 L 158 476 L 159 475 L 158 475 L 159 475 L 158 475 L 158 475 L 158 474 L 158 474 L 157 474 L 157 475 L 157 474 L 158 474 L 157 476 L 156 475 L 156 474 L 156 473 L 156 472 L 156 472 L 157 471 L 158 471 L 158 471 L 159 473 L 159 472 L 159 471 L 159 471 L 160 471 L 159 470 L 159 470 L 159 469 L 160 470 L 160 470 L 160 470 L 161 470 L 161 469 L 162 470 L 161 469 Z M 161 468 L 161 468 L 162 469 L 161 468 L 160 468 L 161 467 Z M 164 466 L 164 466 L 165 466 L 165 467 L 165 466 L 165 467 L 165 467 L 164 467 L 164 467 L 164 467 L 163 468 L 163 467 L 163 468 L 163 468 L 163 468 L 161 468 L 161 467 L 162 467 L 161 467 L 162 466 L 162 467 L 162 466 L 163 465 L 163 465 L 164 466 Z M 163 465 L 164 464 L 164 465 L 163 465 Z M 224 457 L 224 458 L 225 457 L 225 458 L 225 458 L 225 457 L 225 458 L 227 459 L 227 460 L 227 460 L 225 458 L 226 459 L 225 458 L 226 460 L 227 461 L 228 461 L 227 461 L 228 462 L 228 462 L 227 462 L 227 463 L 227 464 L 227 464 L 226 465 L 226 464 L 226 463 L 226 463 L 226 462 L 224 461 L 224 460 L 224 459 L 224 458 L 224 458 L 224 458 L 223 458 L 222 457 Z M 224 457 L 225 457 L 224 457 L 224 457 Z M 229 471 L 230 471 L 230 472 Z M 225 467 L 225 467 L 225 467 L 224 467 L 224 466 L 224 465 L 223 465 L 223 464 L 223 464 L 222 464 L 223 464 L 222 463 L 222 463 L 223 462 L 223 463 L 223 463 L 224 463 L 225 463 L 225 464 L 226 466 L 227 467 L 227 470 L 228 470 L 227 470 L 226 468 L 226 468 L 225 468 Z M 235 467 L 235 467 L 237 468 L 236 468 L 237 469 L 236 469 L 236 469 L 236 469 L 235 468 L 235 469 L 234 468 L 235 468 L 235 467 Z M 234 466 L 234 467 L 234 467 L 234 468 L 233 468 L 233 467 Z M 236 467 L 235 467 L 235 466 L 235 466 L 235 466 L 236 466 L 236 466 L 237 467 L 237 468 Z M 232 464 L 234 465 L 233 466 L 233 466 L 233 465 L 232 465 Z M 229 466 L 229 465 L 230 465 L 230 467 L 230 469 L 230 469 L 230 470 L 230 470 L 229 469 L 230 471 L 229 470 L 229 469 L 229 468 L 229 468 L 229 467 L 228 468 L 228 467 L 227 467 L 227 466 L 228 466 L 228 465 L 228 465 Z M 228 464 L 230 464 L 231 463 L 232 464 L 233 465 L 232 466 L 232 465 L 231 464 L 232 466 L 232 466 L 232 466 L 232 467 L 231 467 L 231 467 L 231 468 L 230 466 L 230 465 L 229 465 L 229 465 L 228 464 Z M 221 459 L 220 460 L 221 460 L 221 459 L 222 459 L 223 459 L 223 459 L 223 460 L 222 460 L 224 460 L 223 461 L 222 460 L 220 460 L 222 461 L 223 461 L 223 461 L 224 461 L 225 462 L 224 463 L 223 462 L 221 461 L 222 462 L 222 463 L 222 464 L 221 464 L 221 463 L 221 463 L 220 462 L 220 462 L 219 462 L 219 461 L 219 462 L 219 462 L 219 460 L 220 461 L 220 461 L 218 460 L 218 459 L 219 459 L 219 459 L 219 459 L 220 458 L 221 459 Z M 218 460 L 219 460 L 218 461 L 218 461 Z M 221 458 L 221 458 L 221 458 Z M 222 464 L 222 465 L 223 465 L 223 466 L 222 466 L 221 464 Z M 126 434 L 127 435 L 126 436 L 126 434 Z M 128 433 L 128 434 L 128 435 L 129 435 L 129 436 L 128 435 L 126 434 L 126 434 L 127 433 Z M 129 432 L 130 432 L 130 433 L 130 433 L 129 434 L 128 434 L 128 433 L 127 433 L 127 432 L 128 432 Z M 131 452 L 132 453 L 131 453 Z M 119 449 L 120 450 L 120 450 L 121 450 L 120 452 L 121 453 L 119 453 L 119 453 L 118 452 L 117 452 L 116 451 L 116 451 L 115 451 L 115 450 L 116 449 L 117 450 L 117 450 L 118 449 L 119 449 Z M 99 443 L 99 443 L 99 444 L 100 445 L 100 445 L 99 445 L 98 444 L 98 443 Z M 124 446 L 124 447 L 125 447 L 125 447 L 125 447 L 126 448 L 126 448 L 125 449 L 125 449 L 125 450 L 124 450 L 124 451 L 123 450 L 123 450 L 123 449 L 123 449 L 122 449 L 124 448 L 123 447 L 124 447 Z M 190 453 L 189 454 L 189 454 Z M 178 454 L 178 455 L 178 455 Z M 178 454 L 178 453 L 178 454 Z M 178 453 L 177 454 L 177 454 Z M 180 452 L 181 452 L 181 452 L 181 452 L 180 453 L 180 455 L 180 455 L 179 456 L 178 456 L 178 455 L 180 454 L 180 453 Z M 178 452 L 178 453 L 177 452 Z M 182 451 L 183 451 L 183 451 L 184 451 L 184 451 L 183 452 L 182 452 L 182 452 L 182 452 L 182 452 L 182 451 Z M 178 453 L 178 452 L 179 452 L 179 453 Z M 184 450 L 184 450 L 183 451 L 183 451 Z M 179 450 L 180 450 L 179 450 Z M 175 450 L 175 450 L 175 450 Z M 177 450 L 177 450 L 177 450 Z M 177 448 L 178 449 L 177 449 Z M 160 459 L 161 460 L 160 460 Z M 170 459 L 169 460 L 169 459 Z M 165 452 L 165 453 L 165 452 Z M 166 387 L 166 387 L 166 387 Z M 134 430 L 134 430 L 133 430 Z M 108 424 L 108 424 L 110 426 L 111 425 L 112 425 L 112 426 L 112 427 L 113 427 L 113 428 L 115 428 L 116 429 L 115 430 L 114 429 L 113 430 L 113 430 L 112 430 L 112 430 L 112 429 L 111 429 L 111 428 L 110 427 L 110 426 L 108 427 L 108 427 L 107 426 L 107 426 Z M 130 410 L 130 410 L 128 411 Z M 237 476 L 237 476 L 237 477 L 237 476 Z M 242 474 L 242 474 L 242 475 L 241 474 Z M 236 474 L 237 475 L 237 476 L 236 475 L 236 475 Z M 235 474 L 235 475 L 236 476 L 237 477 L 238 477 L 237 477 L 236 476 L 235 475 L 234 475 Z M 241 472 L 241 473 L 241 474 L 240 474 L 241 473 L 240 473 Z M 234 474 L 234 474 L 234 475 L 234 475 L 234 474 Z M 233 474 L 233 474 L 233 475 Z M 233 473 L 233 474 L 233 473 Z M 232 473 L 233 473 L 232 474 L 232 474 Z M 233 473 L 234 473 L 234 473 L 233 473 Z M 232 471 L 233 471 L 232 472 L 232 472 L 232 472 Z M 233 470 L 233 471 L 233 471 Z M 239 468 L 239 468 L 239 468 Z M 232 469 L 232 469 L 233 470 L 232 470 L 232 470 L 231 471 L 231 471 L 231 470 Z M 231 468 L 232 468 L 232 468 L 233 468 L 233 469 L 234 469 L 234 469 L 235 470 L 236 470 L 236 471 L 237 471 L 237 472 L 238 472 L 236 472 L 236 472 L 237 472 L 237 473 L 238 472 L 238 473 L 238 474 L 239 473 L 239 473 L 239 474 L 239 474 L 239 474 L 240 475 L 239 475 L 240 476 L 240 476 L 239 476 L 238 475 L 237 475 L 237 474 L 237 475 L 237 474 L 237 474 L 235 474 L 234 474 L 234 474 L 235 473 L 234 473 L 234 472 L 234 472 L 233 472 L 234 471 L 233 471 L 232 469 L 231 469 L 231 469 Z" fill="{{ AK.fill }}"/><path d="M 297 269 L 294 288 L 291 307 L 290 314 L 288 329 L 287 340 L 286 348 L 285 354 L 282 374 L 260 371 L 250 370 L 246 367 L 217 351 L 196 338 L 196 336 L 198 334 L 201 334 L 203 331 L 202 329 L 200 328 L 200 327 L 201 324 L 200 323 L 201 321 L 202 321 L 204 319 L 205 317 L 205 312 L 207 311 L 208 310 L 210 309 L 213 306 L 210 303 L 209 300 L 209 298 L 207 295 L 208 292 L 208 290 L 209 289 L 210 286 L 209 283 L 210 276 L 210 272 L 212 271 L 216 272 L 217 275 L 219 275 L 221 272 L 223 260 L 224 257 L 240 260 L 246 261 L 262 264 L 272 265 L 283 267 Z" fill="{{ AZ.fill }}"/><path d="M 525 291 L 529 291 L 529 291 L 535 291 L 537 291 L 540 291 L 546 290 L 546 290 L 553 290 L 556 290 L 557 290 L 561 290 L 566 289 L 569 289 L 575 289 L 576 289 L 577 291 L 577 292 L 575 294 L 573 299 L 574 298 L 579 298 L 583 298 L 584 300 L 582 300 L 583 301 L 581 303 L 579 303 L 581 305 L 580 306 L 580 307 L 578 307 L 579 309 L 578 310 L 578 308 L 577 309 L 578 310 L 577 312 L 578 313 L 578 314 L 577 315 L 576 317 L 575 317 L 576 319 L 575 320 L 574 320 L 572 320 L 573 322 L 571 323 L 573 323 L 571 324 L 571 326 L 572 328 L 569 329 L 569 331 L 568 332 L 566 332 L 568 334 L 566 334 L 566 334 L 567 336 L 564 337 L 565 341 L 564 341 L 564 342 L 562 343 L 564 344 L 562 345 L 563 346 L 562 347 L 564 346 L 564 350 L 565 353 L 563 353 L 565 354 L 564 355 L 564 355 L 562 355 L 560 356 L 559 356 L 550 356 L 540 356 L 536 356 L 532 356 L 528 357 L 527 357 L 523 357 L 523 357 L 519 357 L 519 352 L 519 347 L 517 346 L 514 347 L 512 345 L 512 340 L 512 335 L 512 329 L 512 325 L 512 321 L 512 312 L 512 312 L 512 308 L 511 305 L 510 299 L 510 298 L 509 291 L 517 291 L 520 291 Z" fill="{{ AR.fill }}"/><path d="M 150 143 L 161 146 L 158 161 L 151 188 L 149 193 L 149 195 L 148 198 L 148 199 L 148 200 L 147 201 L 148 203 L 152 208 L 155 212 L 156 215 L 164 227 L 171 237 L 178 248 L 193 270 L 196 274 L 208 292 L 207 295 L 209 298 L 209 300 L 210 303 L 213 306 L 210 309 L 208 310 L 207 311 L 205 312 L 205 317 L 204 319 L 202 321 L 201 321 L 200 323 L 201 324 L 200 327 L 200 328 L 202 329 L 203 331 L 201 334 L 198 334 L 177 331 L 161 330 L 161 327 L 160 326 L 159 324 L 160 323 L 160 318 L 158 313 L 157 312 L 155 309 L 152 306 L 151 304 L 149 303 L 148 304 L 146 303 L 147 301 L 147 299 L 146 297 L 143 296 L 142 297 L 140 295 L 136 293 L 136 290 L 133 287 L 132 286 L 128 285 L 126 284 L 122 283 L 119 282 L 119 281 L 117 279 L 118 277 L 119 275 L 118 273 L 119 272 L 120 269 L 118 268 L 117 266 L 118 265 L 118 263 L 116 262 L 115 258 L 113 257 L 113 254 L 111 252 L 112 250 L 111 249 L 109 246 L 107 243 L 108 238 L 110 237 L 111 233 L 110 231 L 108 230 L 106 227 L 105 225 L 106 222 L 105 218 L 106 215 L 106 214 L 108 214 L 107 215 L 107 218 L 109 218 L 110 221 L 112 222 L 110 220 L 110 217 L 109 214 L 110 212 L 109 211 L 111 210 L 113 211 L 115 211 L 118 212 L 121 211 L 121 213 L 121 211 L 119 211 L 120 210 L 118 211 L 116 211 L 114 209 L 113 210 L 112 210 L 111 208 L 111 208 L 111 209 L 110 207 L 110 207 L 108 208 L 108 207 L 108 208 L 107 211 L 108 212 L 106 213 L 105 211 L 104 211 L 102 208 L 100 208 L 102 205 L 103 207 L 102 202 L 101 199 L 99 196 L 97 192 L 95 188 L 96 186 L 96 180 L 98 177 L 98 175 L 99 171 L 97 167 L 97 165 L 94 161 L 94 158 L 98 154 L 98 154 L 102 149 L 101 147 L 105 141 L 105 136 L 104 134 L 106 131 L 111 132 L 115 133 L 119 134 L 131 138 L 142 141 Z M 123 291 L 124 293 L 121 294 L 120 291 Z M 126 291 L 130 294 L 128 294 L 126 293 Z M 127 307 L 129 308 L 127 308 Z M 141 315 L 143 320 L 141 319 Z M 142 307 L 146 309 L 146 311 L 144 310 L 143 308 Z" fill="{{ CA.fill }}"/><path d="M 364 201 L 376 202 L 383 202 L 386 203 L 396 203 L 396 203 L 404 204 L 404 209 L 404 210 L 403 215 L 403 216 L 403 223 L 402 231 L 402 231 L 402 239 L 402 241 L 401 247 L 401 249 L 401 255 L 401 255 L 400 265 L 400 267 L 400 272 L 399 279 L 385 278 L 384 278 L 371 277 L 354 276 L 353 276 L 345 275 L 341 274 L 334 274 L 320 272 L 319 272 L 306 270 L 297 269 L 298 260 L 299 252 L 300 247 L 300 241 L 303 225 L 303 222 L 303 219 L 305 209 L 306 201 L 307 194 L 323 196 L 331 197 L 337 198 L 345 199 L 346 199 L 359 200 Z" fill="{{ CO.fill }}"/><path d="M 809 147 L 814 146 L 814 146 L 819 145 L 820 151 L 820 152 L 821 153 L 821 156 L 821 158 L 819 159 L 817 159 L 815 161 L 813 158 L 815 161 L 812 162 L 812 162 L 812 162 L 807 163 L 805 165 L 805 164 L 804 166 L 801 168 L 798 170 L 797 169 L 800 166 L 798 163 L 798 160 L 797 157 L 796 150 L 802 149 L 802 149 Z" fill="{{ CT.fill }}"/><path d="M 778 204 L 779 204 L 778 204 Z M 778 202 L 778 201 L 778 202 Z M 779 217 L 777 211 L 776 209 L 776 208 L 776 207 L 774 200 L 776 198 L 776 198 L 777 198 L 779 198 L 777 202 L 778 203 L 778 205 L 779 206 L 781 208 L 782 211 L 784 213 L 786 215 L 788 215 L 788 218 L 790 221 L 789 221 L 789 222 L 786 222 L 780 223 L 780 221 L 780 220 Z" fill="{{ DE.fill }}"/><path d="M 760 221 L 759 219 L 759 219 L 760 218 L 762 219 Z" fill="{{ DC.fill }}"/><path d="M 674 389 L 676 389 L 679 389 L 680 389 L 685 389 L 687 389 L 691 388 L 691 388 L 691 388 L 694 388 L 701 388 L 703 387 L 705 387 L 706 387 L 709 387 L 710 390 L 710 391 L 712 390 L 712 387 L 711 385 L 711 383 L 713 381 L 718 383 L 721 383 L 721 386 L 720 385 L 719 386 L 721 386 L 722 388 L 719 389 L 719 390 L 718 391 L 718 393 L 717 394 L 719 394 L 719 396 L 720 397 L 721 399 L 722 400 L 720 402 L 720 407 L 721 408 L 722 410 L 723 411 L 724 409 L 723 408 L 721 407 L 720 404 L 722 403 L 721 402 L 722 400 L 721 398 L 721 397 L 719 395 L 720 394 L 719 394 L 719 392 L 719 391 L 719 389 L 722 389 L 722 391 L 725 397 L 725 398 L 727 401 L 727 401 L 727 401 L 730 405 L 731 407 L 737 416 L 740 418 L 738 416 L 738 416 L 741 419 L 742 422 L 741 423 L 741 420 L 740 424 L 739 424 L 739 420 L 738 419 L 738 418 L 736 416 L 736 416 L 738 421 L 741 427 L 745 433 L 745 433 L 747 436 L 748 438 L 751 443 L 750 444 L 750 444 L 752 445 L 754 448 L 754 448 L 754 448 L 753 448 L 753 448 L 754 448 L 756 455 L 756 460 L 756 466 L 757 467 L 756 470 L 755 473 L 754 476 L 755 478 L 754 480 L 753 480 L 753 481 L 753 481 L 751 481 L 749 483 L 746 483 L 746 484 L 743 484 L 741 483 L 741 480 L 743 482 L 745 483 L 745 481 L 744 480 L 742 480 L 740 478 L 738 474 L 739 474 L 738 473 L 738 474 L 736 473 L 733 471 L 732 472 L 729 470 L 728 468 L 727 464 L 726 462 L 723 461 L 722 458 L 722 457 L 721 454 L 723 453 L 720 453 L 720 454 L 718 453 L 718 453 L 719 454 L 720 456 L 718 456 L 717 454 L 715 452 L 712 447 L 710 445 L 711 444 L 711 442 L 714 438 L 712 437 L 712 438 L 711 438 L 711 436 L 709 435 L 708 437 L 710 438 L 710 441 L 708 440 L 706 438 L 706 436 L 706 433 L 707 428 L 707 423 L 706 422 L 706 419 L 705 417 L 705 417 L 704 416 L 703 415 L 699 415 L 698 412 L 697 412 L 696 410 L 693 409 L 693 406 L 690 406 L 688 403 L 686 401 L 682 400 L 681 400 L 676 401 L 676 403 L 675 403 L 677 404 L 674 404 L 668 408 L 666 408 L 666 408 L 667 409 L 663 409 L 662 410 L 662 408 L 660 405 L 655 402 L 656 402 L 658 404 L 660 404 L 660 403 L 658 404 L 657 402 L 656 402 L 654 401 L 654 402 L 649 400 L 643 399 L 643 398 L 647 398 L 645 397 L 643 397 L 642 396 L 640 399 L 636 399 L 630 401 L 634 398 L 633 397 L 632 399 L 630 396 L 630 397 L 630 399 L 629 401 L 626 402 L 626 400 L 628 399 L 626 398 L 626 395 L 624 394 L 622 392 L 623 389 L 629 388 L 635 388 L 637 388 L 642 387 L 645 387 L 647 387 L 656 386 L 656 386 L 664 385 L 667 390 L 667 390 Z M 625 402 L 625 402 L 625 402 Z M 636 399 L 634 400 L 634 400 L 636 399 Z M 722 391 L 722 388 L 723 391 L 725 396 Z M 730 405 L 727 401 L 728 401 L 730 405 Z M 665 409 L 665 410 L 663 410 Z M 705 433 L 705 433 L 705 433 Z M 748 438 L 748 438 L 748 438 Z M 711 447 L 711 447 L 711 447 Z M 751 443 L 751 443 L 751 443 Z M 716 454 L 716 454 L 716 454 Z M 754 448 L 754 448 L 754 448 Z M 718 457 L 718 457 L 718 457 Z M 720 458 L 723 462 L 722 462 Z M 735 473 L 735 473 L 735 473 Z M 756 478 L 754 483 L 752 485 L 755 481 Z" fill="{{ FL.fill }}"/><path d="M 681 313 L 685 315 L 686 316 L 687 316 L 689 316 L 690 319 L 691 321 L 694 324 L 695 325 L 698 327 L 700 329 L 702 331 L 704 331 L 704 332 L 706 333 L 706 334 L 707 336 L 709 337 L 709 338 L 711 339 L 713 339 L 716 345 L 716 347 L 718 348 L 721 352 L 721 354 L 722 356 L 723 356 L 724 358 L 725 359 L 725 360 L 722 359 L 721 360 L 722 361 L 722 363 L 720 362 L 721 363 L 722 364 L 720 365 L 722 365 L 722 366 L 720 367 L 721 370 L 722 371 L 719 371 L 719 371 L 719 371 L 720 372 L 719 374 L 720 376 L 718 376 L 720 378 L 720 382 L 718 383 L 713 381 L 711 383 L 711 385 L 712 387 L 712 390 L 710 391 L 710 390 L 709 387 L 706 387 L 705 387 L 703 387 L 701 388 L 694 388 L 691 388 L 691 388 L 691 388 L 687 389 L 685 389 L 680 389 L 679 389 L 676 389 L 674 389 L 667 390 L 667 390 L 664 385 L 663 383 L 662 382 L 662 379 L 662 375 L 660 371 L 660 371 L 660 369 L 661 366 L 661 365 L 660 364 L 662 362 L 663 361 L 661 360 L 661 359 L 661 357 L 659 355 L 658 352 L 657 350 L 656 346 L 656 346 L 654 340 L 654 339 L 653 336 L 652 331 L 651 330 L 651 328 L 650 324 L 648 320 L 648 319 L 648 318 L 647 314 L 646 311 L 648 311 L 650 311 L 651 311 L 655 310 L 658 310 L 659 310 L 661 310 L 665 309 L 668 309 L 670 309 L 671 308 L 677 308 L 678 307 L 684 307 L 684 307 L 683 308 L 682 309 L 681 312 Z M 723 361 L 724 361 L 723 363 L 722 361 Z M 724 356 L 725 357 L 724 358 Z M 723 364 L 723 366 L 722 364 Z M 721 371 L 721 371 L 722 373 L 720 375 L 720 373 L 720 371 Z M 722 367 L 722 370 L 721 368 Z M 721 378 L 720 382 L 719 380 Z" fill="{{ GA.fill }}"/><path d="M 313 453 L 315 454 L 319 454 L 316 456 L 312 455 L 308 455 L 309 453 Z M 334 470 L 338 473 L 341 473 L 344 475 L 347 478 L 347 480 L 349 480 L 349 482 L 352 484 L 349 487 L 347 489 L 344 489 L 340 491 L 337 495 L 333 493 L 333 492 L 333 487 L 331 482 L 330 480 L 332 478 L 334 475 L 333 473 L 333 471 Z M 272 434 L 273 435 L 273 439 L 271 440 L 267 440 L 265 438 L 265 437 L 266 435 L 268 434 Z M 260 438 L 260 440 L 258 440 L 258 442 L 257 440 Z M 314 458 L 315 458 L 317 460 L 316 461 L 314 462 L 313 458 Z M 321 464 L 321 465 L 319 466 L 319 465 Z M 321 456 L 323 459 L 325 458 L 327 458 L 329 460 L 331 461 L 331 462 L 330 463 L 326 464 L 323 464 L 323 461 L 320 460 L 319 459 L 319 457 Z M 296 443 L 299 447 L 299 448 L 300 448 L 302 451 L 300 452 L 298 451 L 294 451 L 291 446 L 294 446 Z" fill="{{ HI.fill }}"/><path d="M 247 71 L 247 73 L 250 76 L 251 78 L 254 78 L 254 80 L 252 85 L 251 88 L 250 89 L 251 90 L 250 93 L 249 92 L 248 94 L 249 96 L 247 98 L 249 98 L 250 100 L 251 100 L 256 97 L 256 98 L 257 99 L 257 102 L 258 105 L 259 108 L 260 109 L 259 113 L 261 115 L 262 114 L 263 115 L 264 120 L 264 122 L 266 124 L 267 122 L 271 122 L 272 123 L 274 121 L 276 122 L 279 122 L 279 123 L 282 123 L 284 124 L 285 120 L 286 120 L 288 123 L 287 123 L 289 126 L 288 135 L 287 144 L 286 147 L 285 153 L 284 162 L 282 171 L 276 170 L 268 169 L 267 169 L 256 167 L 242 164 L 238 164 L 228 162 L 213 159 L 201 156 L 201 156 L 208 125 L 209 122 L 210 122 L 211 120 L 211 118 L 212 117 L 211 115 L 208 113 L 209 110 L 210 109 L 212 106 L 215 104 L 216 103 L 216 101 L 217 100 L 219 97 L 222 93 L 223 91 L 223 89 L 220 86 L 219 83 L 219 81 L 220 80 L 219 76 L 219 75 L 220 73 L 222 62 L 223 60 L 223 58 L 226 47 L 226 46 L 229 31 L 230 29 L 242 31 L 240 40 L 239 45 L 238 50 L 240 54 L 241 56 L 241 57 L 240 58 L 241 60 L 240 60 L 242 62 L 242 63 L 244 64 L 246 68 L 246 70 Z" fill="{{ ID.fill }}"/><path d="M 579 175 L 579 175 L 585 175 L 587 175 L 588 175 L 594 174 L 595 174 L 601 174 L 601 177 L 602 180 L 603 181 L 604 186 L 606 188 L 606 193 L 606 196 L 607 198 L 607 201 L 607 206 L 608 211 L 608 211 L 608 217 L 609 222 L 609 228 L 609 230 L 610 232 L 609 234 L 609 236 L 611 241 L 610 242 L 611 244 L 609 247 L 609 248 L 608 249 L 608 250 L 606 253 L 605 253 L 605 254 L 606 255 L 604 260 L 605 262 L 603 265 L 604 266 L 605 268 L 605 268 L 602 269 L 601 270 L 600 270 L 599 270 L 599 273 L 600 275 L 599 276 L 598 276 L 593 274 L 593 274 L 590 275 L 589 277 L 590 279 L 588 277 L 587 278 L 586 278 L 584 274 L 584 272 L 585 271 L 584 268 L 584 268 L 584 266 L 581 265 L 581 264 L 578 262 L 577 263 L 576 261 L 573 259 L 572 258 L 571 256 L 571 253 L 572 251 L 572 251 L 573 248 L 573 246 L 573 245 L 573 245 L 571 243 L 568 243 L 567 245 L 565 243 L 564 238 L 564 237 L 561 235 L 560 234 L 557 231 L 555 230 L 555 228 L 553 227 L 553 225 L 552 223 L 552 220 L 552 219 L 553 217 L 554 216 L 553 214 L 554 212 L 556 212 L 557 211 L 557 208 L 559 206 L 559 203 L 559 203 L 559 202 L 557 200 L 557 199 L 557 199 L 558 197 L 561 196 L 563 196 L 567 193 L 567 191 L 568 190 L 569 187 L 569 185 L 569 183 L 567 182 L 566 181 L 564 178 L 562 177 L 562 176 L 565 176 L 572 176 L 573 176 Z" fill="{{ IL.fill }}"/><path d="M 638 184 L 643 183 L 643 184 L 644 188 L 644 190 L 644 192 L 644 193 L 645 198 L 645 199 L 645 203 L 646 205 L 646 210 L 646 210 L 647 216 L 647 218 L 647 221 L 648 224 L 648 225 L 648 229 L 649 233 L 648 234 L 648 237 L 650 238 L 650 239 L 647 240 L 644 241 L 642 241 L 641 241 L 641 244 L 641 245 L 639 248 L 637 250 L 637 250 L 635 252 L 635 255 L 634 256 L 632 256 L 630 255 L 629 253 L 627 254 L 627 255 L 627 258 L 625 259 L 625 258 L 623 258 L 622 257 L 620 258 L 619 261 L 616 260 L 615 259 L 613 259 L 612 259 L 611 258 L 611 261 L 610 260 L 606 260 L 607 262 L 605 262 L 604 260 L 606 255 L 605 254 L 605 253 L 606 253 L 608 250 L 608 249 L 609 248 L 609 247 L 611 244 L 610 242 L 611 241 L 609 236 L 609 234 L 610 232 L 609 230 L 609 228 L 609 222 L 608 217 L 608 211 L 608 211 L 607 206 L 607 201 L 607 198 L 606 196 L 606 193 L 606 188 L 607 189 L 610 189 L 614 187 L 615 186 L 619 186 L 624 185 L 626 185 L 630 185 L 631 185 L 636 184 Z" fill="{{ IN.fill }}"/><path d="M 529 159 L 535 159 L 537 159 L 542 159 L 546 158 L 548 158 L 553 158 L 553 159 L 553 161 L 555 162 L 554 166 L 554 168 L 556 172 L 558 173 L 561 174 L 562 176 L 562 177 L 564 178 L 566 181 L 567 182 L 569 183 L 569 185 L 569 187 L 568 190 L 567 191 L 567 193 L 563 196 L 561 196 L 558 197 L 557 199 L 557 199 L 557 200 L 559 202 L 559 203 L 559 203 L 559 206 L 557 208 L 557 211 L 556 212 L 554 212 L 553 214 L 554 216 L 553 217 L 549 213 L 546 213 L 542 213 L 540 213 L 536 214 L 535 214 L 529 214 L 526 214 L 523 214 L 520 214 L 517 214 L 514 215 L 510 215 L 508 215 L 504 215 L 500 215 L 497 215 L 492 214 L 490 211 L 491 211 L 491 209 L 490 206 L 490 204 L 490 203 L 490 201 L 490 199 L 489 197 L 487 197 L 487 194 L 488 192 L 487 190 L 487 188 L 485 187 L 485 186 L 484 184 L 484 183 L 483 181 L 483 179 L 483 179 L 482 177 L 482 176 L 480 175 L 480 173 L 481 171 L 482 168 L 483 167 L 482 165 L 481 164 L 482 162 L 481 160 L 483 160 L 488 160 L 491 160 L 496 160 L 497 160 L 503 160 L 504 160 L 510 160 L 512 159 L 516 159 L 520 159 L 522 159 L 528 159 Z" fill="{{ IA.fill }}"/><path d="M 421 224 L 422 224 L 429 224 L 429 224 L 437 225 L 437 225 L 444 225 L 445 225 L 450 225 L 453 225 L 456 225 L 461 225 L 463 225 L 469 225 L 476 225 L 477 225 L 482 225 L 485 225 L 489 226 L 492 226 L 498 225 L 498 225 L 502 228 L 503 227 L 505 229 L 505 231 L 504 230 L 502 233 L 501 234 L 503 236 L 505 237 L 504 239 L 506 241 L 509 241 L 509 242 L 509 243 L 509 247 L 509 249 L 509 254 L 509 256 L 509 262 L 509 262 L 509 269 L 509 270 L 509 275 L 509 276 L 509 281 L 509 282 L 503 282 L 502 282 L 497 282 L 496 282 L 492 282 L 489 282 L 489 282 L 481 282 L 478 282 L 472 282 L 467 282 L 462 282 L 457 282 L 454 282 L 451 282 L 444 281 L 438 281 L 436 281 L 430 281 L 428 281 L 420 280 L 416 280 L 414 280 L 407 280 L 400 279 L 399 279 L 400 272 L 400 267 L 400 265 L 401 255 L 401 255 L 401 249 L 401 247 L 402 241 L 402 239 L 402 231 L 402 231 L 403 223 L 412 223 L 413 223 Z" fill="{{ KS.fill }}"/><path d="M 653 233 L 656 234 L 658 236 L 658 237 L 660 238 L 663 238 L 666 240 L 667 240 L 668 238 L 672 239 L 674 239 L 675 237 L 677 236 L 679 239 L 681 240 L 682 242 L 683 245 L 682 247 L 684 248 L 685 250 L 686 252 L 688 254 L 691 257 L 694 257 L 689 262 L 686 264 L 686 264 L 684 266 L 684 268 L 682 269 L 682 271 L 679 272 L 679 274 L 674 276 L 671 278 L 667 278 L 666 279 L 663 279 L 663 279 L 655 280 L 655 280 L 652 280 L 648 280 L 647 280 L 645 281 L 640 281 L 637 281 L 634 281 L 631 281 L 629 282 L 626 282 L 621 283 L 620 283 L 617 283 L 613 283 L 612 284 L 606 283 L 607 287 L 600 287 L 600 287 L 595 287 L 595 287 L 595 287 L 588 288 L 586 288 L 588 286 L 589 287 L 590 285 L 589 284 L 590 282 L 591 279 L 590 279 L 589 277 L 590 275 L 593 274 L 593 274 L 598 276 L 599 276 L 600 275 L 599 273 L 599 270 L 600 270 L 601 270 L 602 269 L 605 268 L 605 268 L 604 266 L 603 265 L 605 262 L 607 262 L 606 260 L 610 260 L 611 261 L 611 258 L 612 259 L 613 259 L 615 259 L 616 260 L 619 261 L 620 258 L 622 257 L 623 258 L 625 258 L 625 259 L 627 258 L 627 255 L 627 254 L 629 253 L 630 255 L 632 256 L 634 256 L 635 255 L 635 252 L 637 250 L 637 250 L 639 248 L 641 245 L 641 244 L 641 241 L 642 241 L 644 241 L 647 240 L 650 239 L 650 238 L 648 237 L 648 234 L 649 233 L 650 232 L 652 233 Z M 585 288 L 585 288 L 585 288 Z" fill="{{ KY.fill }}"/><path d="M 519 372 L 519 369 L 519 363 L 519 359 L 519 357 L 523 357 L 523 357 L 527 357 L 528 357 L 532 356 L 536 356 L 540 356 L 550 356 L 559 356 L 560 356 L 562 355 L 564 355 L 564 357 L 565 356 L 565 358 L 564 359 L 565 360 L 566 361 L 564 362 L 566 363 L 566 364 L 566 366 L 567 366 L 567 367 L 568 368 L 567 370 L 565 370 L 565 372 L 566 372 L 567 372 L 567 372 L 566 374 L 565 375 L 564 377 L 562 377 L 563 379 L 562 379 L 561 382 L 560 381 L 561 383 L 560 383 L 560 386 L 559 386 L 560 388 L 558 389 L 559 390 L 558 391 L 559 392 L 558 393 L 566 393 L 567 393 L 571 393 L 575 392 L 576 392 L 579 392 L 580 392 L 587 392 L 589 392 L 587 398 L 588 399 L 590 402 L 591 406 L 593 407 L 591 407 L 590 409 L 588 410 L 589 412 L 590 411 L 590 413 L 592 413 L 592 410 L 594 409 L 595 411 L 595 412 L 597 412 L 595 413 L 596 414 L 594 414 L 595 415 L 591 415 L 593 417 L 593 416 L 593 416 L 592 417 L 592 417 L 590 418 L 592 419 L 594 420 L 593 421 L 596 421 L 599 423 L 599 422 L 601 425 L 601 427 L 600 428 L 599 427 L 596 430 L 598 426 L 598 424 L 595 425 L 594 423 L 593 422 L 590 422 L 589 421 L 588 421 L 587 421 L 584 419 L 584 417 L 583 417 L 583 419 L 582 420 L 585 421 L 585 423 L 585 424 L 585 425 L 585 426 L 583 428 L 582 427 L 581 424 L 580 426 L 580 425 L 580 425 L 580 425 L 580 425 L 577 424 L 577 425 L 577 426 L 576 426 L 575 427 L 573 427 L 571 427 L 573 426 L 571 425 L 571 424 L 569 427 L 568 426 L 568 424 L 566 422 L 566 419 L 565 421 L 563 420 L 561 421 L 561 419 L 560 419 L 559 417 L 556 417 L 556 415 L 554 415 L 554 416 L 551 418 L 552 418 L 552 420 L 549 421 L 544 421 L 538 418 L 534 417 L 529 417 L 525 418 L 524 419 L 522 417 L 523 416 L 525 412 L 526 409 L 525 407 L 525 406 L 526 405 L 525 403 L 527 400 L 528 397 L 528 394 L 528 391 L 527 391 L 525 389 L 525 385 L 523 384 L 524 381 L 522 379 L 520 376 Z M 594 417 L 594 417 L 594 417 Z M 593 416 L 594 417 L 593 416 Z M 594 417 L 593 416 L 594 417 Z M 555 419 L 558 420 L 556 422 L 553 420 Z M 580 426 L 580 426 L 580 426 Z M 591 422 L 592 423 L 589 423 Z M 566 424 L 567 424 L 567 426 L 565 425 Z" fill="{{ LA.fill }}"/><path d="M 855 86 L 855 90 L 854 87 L 851 87 L 852 88 L 850 90 L 850 88 L 849 90 L 850 93 L 845 91 L 846 89 L 844 87 L 844 86 L 844 86 L 844 88 L 845 88 L 845 90 L 843 92 L 844 93 L 844 95 L 843 98 L 844 99 L 843 101 L 841 101 L 841 100 L 840 99 L 840 104 L 839 103 L 837 104 L 837 101 L 836 103 L 836 104 L 837 105 L 837 106 L 836 106 L 835 103 L 835 102 L 835 100 L 835 100 L 835 102 L 834 104 L 834 103 L 835 103 L 836 107 L 836 108 L 834 104 L 835 106 L 834 105 L 831 107 L 831 110 L 832 112 L 830 113 L 830 116 L 829 117 L 828 122 L 826 122 L 826 120 L 823 118 L 822 115 L 821 110 L 818 101 L 815 92 L 812 83 L 813 82 L 815 83 L 815 81 L 817 80 L 816 78 L 817 75 L 819 73 L 818 72 L 820 70 L 818 68 L 819 65 L 818 65 L 818 61 L 819 60 L 819 57 L 819 55 L 824 38 L 827 38 L 828 41 L 830 42 L 833 40 L 833 39 L 836 38 L 835 37 L 837 36 L 841 38 L 844 40 L 850 60 L 851 65 L 854 65 L 857 65 L 856 67 L 858 68 L 857 71 L 860 73 L 861 71 L 862 72 L 865 75 L 867 77 L 865 81 L 861 82 L 861 84 L 859 84 L 859 86 L 857 84 L 857 85 L 857 88 Z M 848 93 L 849 95 L 847 94 Z M 852 89 L 854 90 L 853 93 L 851 92 Z" fill="{{ ME.fill }}"/><path d="M 760 203 L 763 203 L 768 202 L 768 202 L 769 201 L 774 200 L 776 207 L 776 208 L 776 209 L 777 211 L 779 217 L 780 220 L 780 221 L 780 223 L 786 222 L 789 222 L 789 223 L 789 225 L 788 227 L 787 230 L 783 232 L 783 232 L 780 234 L 780 231 L 779 229 L 778 230 L 780 227 L 779 228 L 778 227 L 779 224 L 778 228 L 774 227 L 773 227 L 771 225 L 772 223 L 772 222 L 773 222 L 775 222 L 776 220 L 775 219 L 776 218 L 775 219 L 776 220 L 775 222 L 773 221 L 770 220 L 771 218 L 773 219 L 772 218 L 773 216 L 772 217 L 771 215 L 772 213 L 773 210 L 772 213 L 771 212 L 771 214 L 770 212 L 771 208 L 775 207 L 772 207 L 772 204 L 771 204 L 771 207 L 769 208 L 769 206 L 767 208 L 768 209 L 767 212 L 766 211 L 765 212 L 765 212 L 766 212 L 768 214 L 766 214 L 768 215 L 767 216 L 768 217 L 767 220 L 768 221 L 769 224 L 771 227 L 771 228 L 767 226 L 765 222 L 766 225 L 766 226 L 770 228 L 773 231 L 773 233 L 771 231 L 767 230 L 766 231 L 764 228 L 765 230 L 764 230 L 761 228 L 759 230 L 758 228 L 760 223 L 760 221 L 762 219 L 760 218 L 759 219 L 755 217 L 753 217 L 752 216 L 753 214 L 751 213 L 749 213 L 749 213 L 747 210 L 746 209 L 746 208 L 743 209 L 741 208 L 740 209 L 739 209 L 738 210 L 737 212 L 735 212 L 733 211 L 731 214 L 729 214 L 727 217 L 724 220 L 723 210 L 724 210 L 730 209 L 732 209 L 738 208 L 738 207 L 742 207 L 751 205 L 751 205 L 754 204 L 757 204 Z M 770 215 L 769 218 L 770 215 Z M 789 230 L 788 230 L 789 230 Z M 789 221 L 790 221 L 789 221 Z M 778 234 L 778 234 L 778 234 Z M 778 233 L 778 234 L 778 234 L 778 233 Z M 778 233 L 778 234 L 778 234 Z" fill="{{ MD.fill }}"/><path d="M 827 136 L 826 136 L 827 136 L 827 136 L 827 138 L 829 138 L 830 137 L 831 138 L 834 140 L 833 142 L 836 142 L 836 145 L 838 145 L 840 145 L 843 143 L 841 139 L 843 140 L 844 143 L 844 145 L 839 147 L 838 149 L 836 150 L 835 146 L 834 147 L 834 148 L 833 149 L 832 151 L 830 152 L 829 149 L 828 149 L 828 149 L 826 148 L 824 144 L 822 144 L 819 145 L 814 146 L 814 146 L 809 147 L 802 149 L 802 149 L 796 150 L 796 150 L 795 150 L 796 142 L 796 137 L 799 136 L 800 136 L 806 135 L 809 134 L 813 133 L 814 133 L 822 131 L 822 130 L 822 130 L 824 128 L 825 127 L 827 126 L 829 129 L 831 130 L 831 131 L 828 133 L 828 134 L 827 135 Z M 837 151 L 840 153 L 836 154 L 836 152 Z M 846 151 L 847 153 L 845 153 Z" fill="{{ MA.fill }}"/><path d="M 580 108 L 578 107 L 567 105 L 567 105 L 565 104 L 563 101 L 561 100 L 565 98 L 567 96 L 568 95 L 573 94 L 575 93 L 577 91 L 579 90 L 579 89 L 583 86 L 583 88 L 584 88 L 585 92 L 585 95 L 588 92 L 590 92 L 593 92 L 596 93 L 597 95 L 600 99 L 603 98 L 604 98 L 607 99 L 608 98 L 609 99 L 611 96 L 615 94 L 619 93 L 624 93 L 627 91 L 630 90 L 629 92 L 630 96 L 632 96 L 635 95 L 636 96 L 639 94 L 640 96 L 641 99 L 641 100 L 642 100 L 643 101 L 645 103 L 643 104 L 641 104 L 641 104 L 636 103 L 635 105 L 635 107 L 631 105 L 626 103 L 624 104 L 623 106 L 620 106 L 620 107 L 618 107 L 614 108 L 614 111 L 613 111 L 610 114 L 612 110 L 608 110 L 608 113 L 605 112 L 604 114 L 603 116 L 601 121 L 599 125 L 597 123 L 598 120 L 595 120 L 596 118 L 595 117 L 596 114 L 595 114 L 592 113 L 591 112 L 591 110 L 587 109 L 586 109 L 584 109 L 580 108 Z M 654 117 L 655 119 L 654 119 L 654 122 L 656 123 L 657 126 L 657 129 L 657 133 L 655 134 L 654 136 L 654 139 L 653 140 L 651 140 L 650 142 L 651 146 L 654 147 L 656 144 L 657 144 L 659 139 L 661 138 L 663 137 L 666 138 L 667 141 L 668 143 L 670 148 L 671 153 L 673 156 L 672 158 L 672 163 L 670 163 L 669 162 L 668 164 L 668 167 L 668 168 L 665 170 L 665 173 L 664 175 L 661 180 L 661 182 L 657 182 L 656 182 L 649 184 L 649 184 L 643 184 L 643 183 L 638 184 L 636 184 L 631 185 L 630 185 L 626 185 L 624 185 L 619 186 L 615 186 L 618 183 L 619 179 L 621 177 L 622 173 L 622 167 L 621 162 L 620 160 L 617 154 L 616 150 L 617 147 L 615 143 L 617 140 L 618 137 L 618 134 L 618 130 L 620 129 L 620 127 L 621 125 L 623 125 L 625 121 L 626 123 L 625 126 L 625 128 L 626 128 L 627 124 L 627 129 L 628 126 L 628 122 L 628 120 L 628 119 L 630 117 L 631 117 L 634 115 L 632 115 L 631 113 L 633 110 L 635 108 L 639 110 L 642 110 L 644 112 L 647 112 L 648 114 L 651 114 L 652 114 L 654 116 Z M 584 85 L 585 84 L 587 82 L 592 81 L 594 82 L 591 83 L 591 84 L 588 87 L 586 91 L 585 89 L 583 88 L 583 86 Z M 581 70 L 584 68 L 581 72 L 577 74 L 578 75 L 575 76 L 574 74 Z M 650 104 L 646 104 L 648 102 L 648 101 L 649 101 L 651 102 Z M 640 94 L 641 94 L 641 96 L 639 95 Z M 637 107 L 640 108 L 638 109 Z M 625 110 L 626 113 L 624 113 Z M 621 123 L 619 123 L 620 122 Z M 662 181 L 662 181 L 662 181 Z M 661 182 L 661 181 L 661 182 Z" fill="{{ MI.fill }}"/><path d="M 497 57 L 499 57 L 499 50 L 502 50 L 503 52 L 505 59 L 505 61 L 506 62 L 508 63 L 510 62 L 511 64 L 516 64 L 516 66 L 520 65 L 520 64 L 523 63 L 525 64 L 530 65 L 531 65 L 530 66 L 532 67 L 534 71 L 535 70 L 535 68 L 538 68 L 539 70 L 541 71 L 543 72 L 545 72 L 544 74 L 548 73 L 551 71 L 553 69 L 555 72 L 562 71 L 566 73 L 567 73 L 570 73 L 565 76 L 559 79 L 555 81 L 552 84 L 546 91 L 543 94 L 539 97 L 537 100 L 536 100 L 537 104 L 537 109 L 536 112 L 531 114 L 530 117 L 529 119 L 529 120 L 531 120 L 533 123 L 531 125 L 531 127 L 531 129 L 531 133 L 531 136 L 532 136 L 534 139 L 538 139 L 539 141 L 541 142 L 542 142 L 544 145 L 548 148 L 550 149 L 552 152 L 552 154 L 552 156 L 553 158 L 548 158 L 546 158 L 542 159 L 537 159 L 535 159 L 529 159 L 528 159 L 522 159 L 520 159 L 516 159 L 512 159 L 510 160 L 504 160 L 503 160 L 497 160 L 496 160 L 491 160 L 488 160 L 483 160 L 483 153 L 483 147 L 483 147 L 483 140 L 483 138 L 483 135 L 483 132 L 483 127 L 482 125 L 480 124 L 478 121 L 478 119 L 480 118 L 481 114 L 481 112 L 481 111 L 481 107 L 479 104 L 479 101 L 478 101 L 478 98 L 479 95 L 478 94 L 478 91 L 478 90 L 478 85 L 477 82 L 476 78 L 474 72 L 474 72 L 475 70 L 474 66 L 475 63 L 474 62 L 473 57 L 484 57 Z" fill="{{ MN.fill }}"/><path d="M 597 316 L 598 316 L 604 315 L 604 315 L 607 315 L 609 317 L 608 323 L 608 325 L 608 328 L 608 332 L 608 333 L 608 339 L 608 343 L 608 347 L 608 353 L 608 354 L 608 361 L 608 366 L 607 367 L 607 373 L 608 377 L 608 382 L 609 388 L 609 390 L 610 395 L 611 402 L 610 403 L 608 402 L 605 403 L 603 401 L 597 404 L 596 403 L 596 404 L 593 407 L 591 406 L 590 402 L 588 399 L 587 398 L 589 392 L 587 392 L 580 392 L 579 392 L 576 392 L 575 392 L 571 393 L 567 393 L 566 393 L 558 393 L 559 392 L 558 391 L 559 390 L 558 389 L 560 388 L 559 386 L 560 386 L 560 383 L 561 383 L 560 381 L 561 382 L 562 379 L 563 379 L 562 377 L 564 377 L 565 375 L 566 374 L 567 372 L 567 372 L 566 372 L 565 372 L 565 370 L 567 370 L 568 368 L 567 367 L 567 366 L 566 366 L 566 364 L 566 363 L 564 362 L 566 361 L 565 360 L 564 359 L 565 358 L 565 356 L 564 357 L 564 355 L 564 355 L 565 354 L 563 353 L 565 353 L 564 350 L 564 346 L 562 347 L 563 346 L 562 345 L 564 344 L 562 343 L 564 342 L 564 341 L 565 341 L 564 337 L 567 336 L 566 334 L 566 334 L 568 334 L 566 332 L 568 332 L 569 331 L 569 329 L 572 328 L 571 326 L 571 324 L 573 323 L 571 323 L 573 322 L 572 320 L 574 320 L 575 320 L 576 319 L 575 317 L 584 317 L 585 317 L 589 316 L 592 316 L 594 316 Z" fill="{{ MS.fill }}"/><path d="M 553 225 L 553 227 L 555 228 L 555 230 L 557 231 L 560 234 L 561 235 L 564 237 L 564 238 L 565 243 L 567 245 L 568 243 L 571 243 L 573 245 L 573 245 L 573 246 L 573 248 L 572 251 L 572 251 L 571 253 L 571 256 L 572 258 L 573 259 L 576 261 L 577 263 L 578 262 L 581 264 L 581 265 L 584 266 L 584 268 L 584 268 L 585 271 L 584 272 L 584 274 L 586 278 L 587 278 L 588 277 L 590 279 L 591 279 L 590 282 L 589 284 L 590 285 L 589 287 L 588 286 L 586 288 L 585 288 L 585 288 L 585 291 L 584 292 L 585 293 L 583 293 L 584 294 L 584 295 L 583 296 L 583 298 L 579 298 L 574 298 L 573 299 L 575 294 L 577 292 L 577 291 L 576 289 L 575 289 L 569 289 L 566 289 L 561 290 L 557 290 L 556 290 L 553 290 L 546 290 L 546 290 L 540 291 L 537 291 L 535 291 L 529 291 L 529 291 L 525 291 L 520 291 L 517 291 L 509 291 L 509 288 L 509 286 L 509 282 L 509 281 L 509 276 L 509 275 L 509 270 L 509 269 L 509 262 L 509 262 L 509 256 L 509 254 L 509 249 L 509 247 L 509 243 L 509 242 L 509 241 L 506 241 L 504 239 L 505 237 L 503 236 L 501 234 L 502 233 L 504 230 L 505 231 L 505 229 L 503 227 L 502 228 L 498 225 L 497 224 L 497 223 L 495 221 L 495 221 L 494 220 L 493 216 L 492 214 L 497 215 L 500 215 L 504 215 L 508 215 L 510 215 L 514 215 L 517 214 L 520 214 L 523 214 L 526 214 L 529 214 L 535 214 L 536 214 L 540 213 L 542 213 L 546 213 L 549 213 L 553 217 L 552 219 L 552 220 L 552 223 Z" fill="{{ MO.fill }}"/><path d="M 376 52 L 389 53 L 388 60 L 388 64 L 387 72 L 386 83 L 386 84 L 385 97 L 385 98 L 385 103 L 384 110 L 384 111 L 383 123 L 383 127 L 370 126 L 369 126 L 357 125 L 354 124 L 332 122 L 328 121 L 323 121 L 307 118 L 295 117 L 291 116 L 290 122 L 289 126 L 287 123 L 288 123 L 286 120 L 285 120 L 284 124 L 282 123 L 279 123 L 279 122 L 276 122 L 274 121 L 272 123 L 271 122 L 267 122 L 266 124 L 264 122 L 264 120 L 263 115 L 262 114 L 261 115 L 259 113 L 260 109 L 259 108 L 258 105 L 257 102 L 257 99 L 256 98 L 256 97 L 251 100 L 250 100 L 249 98 L 247 98 L 249 96 L 248 94 L 249 92 L 250 93 L 251 90 L 250 89 L 251 88 L 252 85 L 254 80 L 254 78 L 251 78 L 250 76 L 247 73 L 247 71 L 246 70 L 246 68 L 244 64 L 242 63 L 242 62 L 240 60 L 241 60 L 240 58 L 241 57 L 241 56 L 240 54 L 238 50 L 239 45 L 240 40 L 242 31 L 258 34 L 266 36 L 289 40 L 300 42 L 306 43 L 322 45 L 337 47 L 350 49 L 363 51 Z" fill="{{ MT.fill }}"/><path d="M 378 183 L 379 172 L 379 164 L 387 165 L 394 166 L 396 166 L 406 166 L 418 167 L 432 168 L 441 168 L 444 168 L 455 169 L 457 171 L 459 172 L 461 173 L 462 173 L 463 171 L 466 172 L 468 172 L 471 171 L 473 173 L 475 173 L 478 175 L 479 176 L 480 178 L 483 179 L 483 179 L 483 181 L 484 183 L 484 184 L 485 186 L 485 187 L 487 188 L 487 190 L 488 192 L 487 194 L 487 197 L 489 197 L 490 199 L 490 201 L 490 203 L 490 204 L 490 206 L 491 209 L 491 211 L 490 211 L 492 214 L 493 216 L 494 220 L 495 221 L 495 221 L 497 223 L 497 224 L 498 225 L 498 225 L 492 226 L 489 226 L 485 225 L 482 225 L 477 225 L 476 225 L 469 225 L 463 225 L 461 225 L 456 225 L 453 225 L 450 225 L 445 225 L 444 225 L 437 225 L 437 225 L 429 224 L 429 224 L 422 224 L 421 224 L 413 223 L 412 223 L 403 223 L 403 216 L 403 215 L 404 210 L 404 209 L 404 204 L 396 203 L 396 203 L 386 203 L 383 202 L 376 202 L 377 195 L 377 191 L 377 189 Z" fill="{{ NE.fill }}"/><path d="M 170 149 L 186 152 L 201 156 L 201 156 L 213 159 L 228 162 L 238 164 L 242 164 L 238 183 L 235 199 L 234 203 L 233 210 L 230 226 L 229 228 L 228 236 L 226 246 L 224 257 L 223 260 L 221 272 L 219 275 L 217 275 L 216 272 L 212 271 L 210 272 L 210 276 L 209 283 L 210 286 L 209 289 L 208 290 L 208 292 L 196 274 L 193 270 L 178 248 L 171 237 L 164 227 L 156 215 L 155 212 L 152 208 L 148 203 L 147 201 L 148 200 L 148 199 L 148 198 L 149 195 L 149 193 L 151 188 L 158 161 L 161 146 L 170 149 Z" fill="{{ NV.fill }}"/><path d="M 822 115 L 823 118 L 826 120 L 826 122 L 825 123 L 826 122 L 828 123 L 827 126 L 825 127 L 824 128 L 822 130 L 822 130 L 822 131 L 814 133 L 813 133 L 809 134 L 806 135 L 805 133 L 805 129 L 804 127 L 804 125 L 804 119 L 804 118 L 804 116 L 805 115 L 805 107 L 805 104 L 807 103 L 808 102 L 810 99 L 810 98 L 808 95 L 809 92 L 808 90 L 809 85 L 809 84 L 812 85 L 812 83 L 815 92 L 818 101 L 821 110 Z" fill="{{ NH.fill }}"/><path d="M 790 169 L 795 171 L 794 175 L 794 178 L 793 178 L 793 176 L 793 178 L 792 179 L 792 182 L 793 182 L 796 182 L 797 184 L 797 188 L 796 188 L 797 188 L 797 193 L 797 191 L 796 195 L 797 196 L 795 199 L 794 199 L 794 199 L 795 203 L 792 205 L 792 205 L 791 210 L 790 212 L 789 212 L 789 209 L 789 208 L 785 207 L 782 206 L 781 205 L 781 205 L 781 205 L 778 204 L 779 204 L 778 202 L 778 201 L 779 198 L 783 195 L 783 193 L 783 193 L 784 192 L 787 189 L 783 186 L 781 185 L 781 183 L 779 182 L 779 182 L 778 179 L 780 177 L 778 175 L 780 173 L 780 173 L 781 169 L 782 167 L 788 169 L 790 169 Z" fill="{{ NJ.fill }}"/><path d="M 353 276 L 354 276 L 371 277 L 384 278 L 385 278 L 385 288 L 384 288 L 383 296 L 383 302 L 383 304 L 382 312 L 382 317 L 382 321 L 381 329 L 381 329 L 380 338 L 380 343 L 379 346 L 379 354 L 378 362 L 378 370 L 377 372 L 373 372 L 367 371 L 363 371 L 362 371 L 349 370 L 348 370 L 331 368 L 325 367 L 322 367 L 321 369 L 323 371 L 311 370 L 296 368 L 295 376 L 282 374 L 285 354 L 286 348 L 287 340 L 288 329 L 290 314 L 291 307 L 294 288 L 297 269 L 306 270 L 319 272 L 320 272 L 334 274 L 341 274 L 345 275 Z" fill="{{ NM.fill }}"/><path d="M 788 109 L 788 111 L 788 114 L 789 118 L 790 119 L 790 121 L 791 121 L 792 122 L 793 127 L 795 133 L 796 137 L 796 142 L 795 150 L 796 150 L 796 150 L 797 157 L 798 160 L 798 163 L 800 166 L 797 169 L 798 170 L 798 171 L 797 173 L 797 174 L 795 175 L 795 177 L 795 173 L 795 173 L 795 169 L 794 167 L 792 165 L 792 165 L 794 168 L 795 171 L 790 169 L 790 169 L 788 169 L 782 167 L 781 166 L 778 166 L 776 164 L 776 161 L 774 159 L 773 159 L 771 157 L 769 157 L 761 159 L 760 159 L 755 161 L 750 162 L 749 162 L 740 163 L 739 164 L 732 165 L 731 165 L 723 167 L 721 167 L 713 168 L 711 169 L 710 164 L 713 162 L 716 158 L 718 157 L 719 154 L 721 152 L 720 149 L 720 148 L 717 147 L 717 144 L 720 142 L 724 140 L 730 139 L 734 139 L 737 140 L 739 139 L 742 138 L 744 139 L 747 136 L 749 135 L 751 132 L 753 132 L 753 129 L 753 129 L 753 129 L 752 126 L 751 126 L 753 125 L 752 123 L 752 121 L 751 123 L 749 121 L 750 119 L 755 114 L 755 112 L 760 105 L 764 101 L 767 100 L 776 98 L 785 96 L 785 99 L 786 100 L 786 103 L 786 104 L 787 104 L 788 106 Z M 718 147 L 720 148 L 719 149 Z M 803 176 L 803 176 L 803 176 Z M 798 177 L 799 177 L 797 177 L 797 178 L 795 179 L 795 176 L 796 175 L 798 174 L 798 173 L 800 171 L 801 172 L 801 171 L 804 170 L 805 169 L 810 168 L 812 167 L 816 163 L 814 166 L 813 168 L 814 168 L 816 166 L 818 164 L 819 165 L 821 163 L 822 163 L 815 169 L 814 168 L 813 170 L 812 170 L 810 172 L 808 173 L 806 174 L 805 174 L 803 176 L 799 178 Z M 797 178 L 797 178 L 797 178 Z M 794 178 L 794 180 L 792 181 L 792 178 Z" fill="{{ NY.fill }}"/><path d="M 712 273 L 713 272 L 716 272 L 719 272 L 725 271 L 725 271 L 730 270 L 733 270 L 733 269 L 735 269 L 737 269 L 738 269 L 743 268 L 744 267 L 748 267 L 750 266 L 754 266 L 756 265 L 758 265 L 765 263 L 767 263 L 770 262 L 770 262 L 776 261 L 777 261 L 779 260 L 782 260 L 783 260 L 784 262 L 786 264 L 789 268 L 786 264 L 784 263 L 786 266 L 785 266 L 781 263 L 782 265 L 784 267 L 783 268 L 781 266 L 783 268 L 782 268 L 778 267 L 781 269 L 778 269 L 780 270 L 778 271 L 775 270 L 775 269 L 775 266 L 773 265 L 771 265 L 773 265 L 774 267 L 774 269 L 776 272 L 776 273 L 780 271 L 781 272 L 783 270 L 785 270 L 786 275 L 785 276 L 787 276 L 786 272 L 789 270 L 790 271 L 791 276 L 790 277 L 789 276 L 789 277 L 788 281 L 786 282 L 785 282 L 782 281 L 781 283 L 779 280 L 781 280 L 780 279 L 778 281 L 780 283 L 773 282 L 772 281 L 771 281 L 774 283 L 779 284 L 780 285 L 781 284 L 782 285 L 779 287 L 781 287 L 781 288 L 778 291 L 776 290 L 776 289 L 774 289 L 773 290 L 773 290 L 774 289 L 777 292 L 780 292 L 780 291 L 783 289 L 783 290 L 786 290 L 784 293 L 783 295 L 782 295 L 781 293 L 781 295 L 778 296 L 775 297 L 773 296 L 774 297 L 772 301 L 769 303 L 766 306 L 767 306 L 767 306 L 765 309 L 765 311 L 764 309 L 764 313 L 764 315 L 761 315 L 758 316 L 756 317 L 755 316 L 755 316 L 754 315 L 746 310 L 746 310 L 740 305 L 739 305 L 736 302 L 732 303 L 732 303 L 726 304 L 722 304 L 719 305 L 719 303 L 718 301 L 716 300 L 714 301 L 714 299 L 710 300 L 709 300 L 703 300 L 702 300 L 700 301 L 696 301 L 694 301 L 691 303 L 689 305 L 687 305 L 685 306 L 684 307 L 684 307 L 678 307 L 677 308 L 671 308 L 670 309 L 668 309 L 665 309 L 665 305 L 666 304 L 668 304 L 669 303 L 669 301 L 670 300 L 670 300 L 672 297 L 674 297 L 676 297 L 680 294 L 680 293 L 682 292 L 684 291 L 684 288 L 686 289 L 686 287 L 688 286 L 688 286 L 689 287 L 690 287 L 691 285 L 694 283 L 696 284 L 698 280 L 698 280 L 700 278 L 701 274 L 705 273 Z M 788 265 L 787 264 L 785 259 L 786 259 L 788 265 L 793 271 L 790 268 Z M 783 259 L 785 259 L 784 259 L 784 259 Z M 793 284 L 796 281 L 795 276 L 795 274 L 795 275 L 796 282 L 793 284 Z M 765 314 L 765 314 L 765 314 Z M 756 317 L 756 317 L 756 317 Z" fill="{{ NC.fill }}"/><path d="M 437 56 L 445 56 L 451 57 L 464 57 L 473 57 L 474 62 L 475 63 L 474 66 L 475 70 L 474 72 L 474 72 L 476 78 L 477 82 L 478 85 L 478 90 L 478 91 L 478 94 L 479 95 L 478 98 L 478 101 L 479 101 L 479 104 L 481 107 L 481 111 L 481 112 L 481 114 L 473 114 L 463 114 L 463 114 L 453 114 L 450 113 L 440 113 L 438 113 L 430 113 L 411 111 L 411 111 L 398 111 L 398 111 L 384 110 L 385 103 L 385 98 L 385 97 L 386 84 L 386 83 L 387 72 L 388 64 L 388 60 L 389 53 L 403 54 L 414 55 L 421 55 Z" fill="{{ ND.fill }}"/><path d="M 704 187 L 704 187 L 704 191 L 705 192 L 705 196 L 703 197 L 705 199 L 704 201 L 705 202 L 704 205 L 704 205 L 704 208 L 704 210 L 703 211 L 704 214 L 702 216 L 701 217 L 700 219 L 697 222 L 696 221 L 695 222 L 694 224 L 693 224 L 692 225 L 692 226 L 692 227 L 692 231 L 691 232 L 691 231 L 689 229 L 688 230 L 688 233 L 687 234 L 688 237 L 687 238 L 686 238 L 686 241 L 684 242 L 682 242 L 681 240 L 679 239 L 677 236 L 675 237 L 674 239 L 672 239 L 668 238 L 667 240 L 666 240 L 663 238 L 660 238 L 658 237 L 658 236 L 656 234 L 653 233 L 652 233 L 650 232 L 649 233 L 648 229 L 648 225 L 648 224 L 647 221 L 647 218 L 647 216 L 646 210 L 646 210 L 646 205 L 645 203 L 645 199 L 645 198 L 644 193 L 644 192 L 644 190 L 644 188 L 643 184 L 649 184 L 649 184 L 656 182 L 657 182 L 661 182 L 661 182 L 661 181 L 662 181 L 662 181 L 666 183 L 669 185 L 671 183 L 672 184 L 668 186 L 668 186 L 668 186 L 670 186 L 673 185 L 676 186 L 678 185 L 682 183 L 683 183 L 686 183 L 689 179 L 691 177 L 695 174 L 701 171 L 701 173 L 703 180 L 703 180 Z" fill="{{ OH.fill }}"/><path d="M 502 282 L 503 282 L 509 282 L 509 286 L 509 288 L 509 291 L 510 298 L 510 299 L 511 305 L 512 308 L 512 312 L 512 312 L 512 321 L 512 325 L 512 329 L 512 335 L 512 340 L 512 345 L 508 344 L 508 343 L 506 343 L 505 341 L 502 340 L 501 339 L 499 341 L 496 341 L 495 340 L 492 341 L 491 342 L 490 341 L 487 341 L 486 343 L 483 344 L 482 343 L 479 341 L 480 341 L 479 340 L 477 342 L 475 341 L 474 339 L 474 339 L 472 342 L 472 344 L 470 342 L 470 340 L 469 341 L 468 342 L 466 341 L 466 340 L 465 340 L 463 339 L 460 341 L 458 340 L 459 338 L 457 338 L 456 336 L 455 336 L 452 335 L 451 337 L 450 337 L 449 335 L 446 335 L 443 334 L 440 334 L 440 331 L 437 329 L 437 331 L 436 330 L 434 330 L 432 330 L 430 328 L 429 327 L 428 327 L 428 323 L 428 318 L 428 315 L 428 311 L 428 307 L 429 302 L 429 299 L 429 290 L 421 290 L 415 290 L 413 290 L 405 289 L 399 289 L 397 289 L 385 288 L 385 278 L 399 279 L 400 279 L 407 280 L 414 280 L 416 280 L 420 280 L 428 281 L 430 281 L 436 281 L 438 281 L 444 281 L 451 282 L 454 282 L 457 282 L 462 282 L 467 282 L 472 282 L 478 282 L 481 282 L 489 282 L 489 282 L 492 282 L 496 282 L 497 282 Z" fill="{{ OK.fill }}"/><path d="M 144 67 L 144 69 L 144 71 L 145 72 L 150 74 L 154 74 L 156 73 L 160 74 L 161 74 L 163 76 L 163 77 L 167 77 L 171 76 L 173 78 L 176 78 L 179 77 L 181 77 L 184 77 L 185 76 L 187 77 L 191 78 L 193 77 L 205 80 L 206 80 L 210 81 L 212 82 L 219 83 L 220 86 L 223 89 L 223 91 L 222 93 L 219 97 L 217 100 L 216 101 L 216 103 L 215 104 L 212 106 L 210 109 L 209 110 L 208 113 L 211 115 L 212 117 L 211 118 L 211 120 L 210 122 L 209 122 L 208 125 L 201 156 L 186 152 L 170 149 L 170 149 L 161 146 L 150 143 L 142 141 L 131 138 L 119 134 L 115 133 L 111 132 L 106 131 L 104 128 L 105 124 L 106 120 L 107 118 L 106 116 L 106 114 L 107 112 L 110 107 L 114 102 L 117 97 L 119 90 L 120 88 L 123 80 L 124 79 L 125 77 L 128 71 L 129 64 L 130 61 L 131 60 L 131 56 L 132 57 L 134 57 L 136 58 L 138 57 L 139 60 L 141 60 L 142 60 L 144 62 Z" fill="{{ OR.fill }}"/><path d="M 723 167 L 731 165 L 732 165 L 739 164 L 740 163 L 749 162 L 750 162 L 755 161 L 760 159 L 761 159 L 769 157 L 771 157 L 773 159 L 774 159 L 776 161 L 776 164 L 778 166 L 781 166 L 782 167 L 781 169 L 780 173 L 780 173 L 778 175 L 780 177 L 778 179 L 779 182 L 779 182 L 781 183 L 781 185 L 783 186 L 787 189 L 784 192 L 783 193 L 782 195 L 781 196 L 779 198 L 777 198 L 776 198 L 776 198 L 774 200 L 769 201 L 768 202 L 768 202 L 763 203 L 760 203 L 757 204 L 754 204 L 751 205 L 751 205 L 742 207 L 738 207 L 738 208 L 732 209 L 730 209 L 724 210 L 723 210 L 719 211 L 716 211 L 709 213 L 708 213 L 707 208 L 707 207 L 707 205 L 706 200 L 706 199 L 705 196 L 705 192 L 704 191 L 704 187 L 704 187 L 703 180 L 703 180 L 701 173 L 701 171 L 703 169 L 710 164 L 711 169 L 713 168 L 721 167 Z" fill="{{ PA.fill }}"/><path d="M 828 149 L 827 150 L 826 149 L 825 148 L 825 151 L 826 154 L 826 156 L 821 158 L 821 158 L 821 156 L 821 153 L 820 152 L 820 151 L 819 145 L 822 144 L 824 144 L 826 148 Z M 828 150 L 828 153 L 827 153 Z M 830 152 L 829 153 L 828 149 L 829 149 Z" fill="{{ RI.fill }}"/><path d="M 702 300 L 703 300 L 709 300 L 710 300 L 714 299 L 714 301 L 716 300 L 718 301 L 719 303 L 719 305 L 722 304 L 726 304 L 732 303 L 732 303 L 736 302 L 739 305 L 740 305 L 746 310 L 746 310 L 754 315 L 755 316 L 756 317 L 752 320 L 750 323 L 748 327 L 748 330 L 747 329 L 748 331 L 747 332 L 745 332 L 747 332 L 745 335 L 743 335 L 741 339 L 739 340 L 739 340 L 740 337 L 738 339 L 738 338 L 738 341 L 739 341 L 738 344 L 734 346 L 733 347 L 731 345 L 732 347 L 729 346 L 729 347 L 726 347 L 726 348 L 725 347 L 725 349 L 725 349 L 726 350 L 725 350 L 725 350 L 727 352 L 726 354 L 725 355 L 724 356 L 722 356 L 721 354 L 721 352 L 718 348 L 716 347 L 716 345 L 713 339 L 711 339 L 709 338 L 709 337 L 707 336 L 706 334 L 706 333 L 704 332 L 704 331 L 702 331 L 700 329 L 698 327 L 695 325 L 694 324 L 691 321 L 690 319 L 689 316 L 687 316 L 686 316 L 685 315 L 681 313 L 681 312 L 682 309 L 683 308 L 684 307 L 685 306 L 687 305 L 689 305 L 691 303 L 694 301 L 696 301 L 700 301 Z M 756 317 L 756 317 L 756 317 Z M 755 316 L 756 317 L 755 316 Z M 747 332 L 747 332 L 747 332 Z M 728 352 L 729 353 L 727 355 Z M 728 347 L 729 347 L 731 349 L 730 350 L 729 352 L 728 350 Z M 726 347 L 727 347 L 728 351 L 727 350 L 726 348 Z" fill="{{ SC.fill }}"/><path d="M 430 113 L 438 113 L 440 113 L 450 113 L 453 114 L 463 114 L 463 114 L 473 114 L 481 114 L 480 118 L 478 119 L 478 121 L 480 124 L 482 125 L 483 127 L 483 132 L 483 135 L 483 138 L 483 140 L 483 147 L 483 147 L 483 153 L 483 160 L 481 160 L 482 162 L 481 164 L 482 165 L 483 167 L 482 168 L 481 171 L 480 173 L 480 175 L 482 176 L 482 177 L 483 179 L 480 178 L 479 176 L 478 175 L 475 173 L 473 173 L 471 171 L 468 172 L 466 172 L 463 171 L 462 173 L 461 173 L 459 172 L 457 171 L 455 169 L 444 168 L 441 168 L 432 168 L 418 167 L 406 166 L 396 166 L 394 166 L 387 165 L 379 164 L 380 155 L 380 155 L 381 148 L 381 143 L 381 142 L 382 135 L 383 127 L 383 123 L 384 111 L 384 110 L 398 111 L 398 111 L 411 111 L 411 111 Z" fill="{{ SD.fill }}"/><path d="M 620 283 L 621 283 L 626 282 L 629 282 L 631 281 L 634 281 L 637 281 L 640 281 L 645 281 L 647 280 L 648 280 L 652 280 L 655 280 L 655 280 L 663 279 L 663 279 L 666 279 L 667 278 L 671 278 L 674 277 L 681 277 L 684 276 L 687 276 L 692 275 L 692 275 L 694 275 L 698 274 L 701 273 L 701 274 L 700 278 L 698 280 L 698 280 L 696 284 L 694 283 L 691 285 L 690 287 L 689 287 L 688 286 L 688 286 L 686 287 L 686 289 L 684 288 L 684 291 L 682 292 L 680 293 L 680 294 L 676 297 L 674 297 L 672 297 L 670 300 L 670 300 L 669 301 L 669 303 L 668 304 L 666 304 L 665 305 L 665 309 L 661 310 L 659 310 L 658 310 L 655 310 L 651 311 L 650 311 L 648 311 L 646 311 L 642 312 L 635 312 L 635 312 L 628 313 L 627 313 L 622 314 L 622 314 L 616 314 L 610 315 L 607 315 L 604 315 L 604 315 L 598 316 L 597 316 L 594 316 L 592 316 L 589 316 L 585 317 L 584 317 L 575 317 L 576 317 L 577 315 L 578 314 L 578 313 L 577 312 L 578 310 L 577 309 L 578 308 L 578 310 L 579 309 L 578 307 L 580 307 L 580 306 L 581 305 L 579 303 L 581 303 L 583 301 L 582 300 L 584 300 L 583 298 L 583 296 L 584 295 L 584 294 L 583 293 L 585 293 L 584 292 L 585 291 L 585 288 L 585 288 L 586 288 L 588 288 L 595 287 L 595 287 L 595 287 L 600 287 L 600 287 L 607 287 L 606 283 L 612 284 L 613 283 L 617 283 Z" fill="{{ TN.fill }}"/><path d="M 385 288 L 397 289 L 399 289 L 405 289 L 413 290 L 415 290 L 421 290 L 429 290 L 429 299 L 429 302 L 428 307 L 428 311 L 428 315 L 428 318 L 428 323 L 428 327 L 429 327 L 430 328 L 432 330 L 434 330 L 436 330 L 437 331 L 437 329 L 440 331 L 440 334 L 443 334 L 446 335 L 449 335 L 450 337 L 451 337 L 452 335 L 455 336 L 456 336 L 457 338 L 459 338 L 458 340 L 460 341 L 463 339 L 465 340 L 466 340 L 466 341 L 468 342 L 469 341 L 470 340 L 470 342 L 472 344 L 472 342 L 474 339 L 474 339 L 475 341 L 477 342 L 479 340 L 480 341 L 479 341 L 482 343 L 483 344 L 486 343 L 487 341 L 490 341 L 491 342 L 492 341 L 495 340 L 496 341 L 499 341 L 501 339 L 502 340 L 505 341 L 506 343 L 508 343 L 508 344 L 512 345 L 514 347 L 517 346 L 519 347 L 519 352 L 519 357 L 519 359 L 519 363 L 519 369 L 519 372 L 520 376 L 522 379 L 524 381 L 523 384 L 525 385 L 525 389 L 527 391 L 528 391 L 528 394 L 528 397 L 527 400 L 525 403 L 526 405 L 525 406 L 525 407 L 526 409 L 525 412 L 523 416 L 522 417 L 524 419 L 521 419 L 515 422 L 515 422 L 509 425 L 512 422 L 514 422 L 512 421 L 509 422 L 510 418 L 508 417 L 507 420 L 506 420 L 505 419 L 504 417 L 503 418 L 505 420 L 505 422 L 506 423 L 506 424 L 507 425 L 507 427 L 506 426 L 504 429 L 503 429 L 501 432 L 498 435 L 497 436 L 494 437 L 492 437 L 490 438 L 489 439 L 494 438 L 483 443 L 488 440 L 489 439 L 486 440 L 483 439 L 482 438 L 482 438 L 482 440 L 480 439 L 479 438 L 478 438 L 478 438 L 478 437 L 478 438 L 479 440 L 482 443 L 478 445 L 476 443 L 475 443 L 476 445 L 475 446 L 476 447 L 475 447 L 475 447 L 473 449 L 472 447 L 468 450 L 469 450 L 469 451 L 469 451 L 472 449 L 472 450 L 470 453 L 470 453 L 470 453 L 469 454 L 468 453 L 464 454 L 466 454 L 467 456 L 468 456 L 467 459 L 465 463 L 463 464 L 464 462 L 462 463 L 460 462 L 461 464 L 459 464 L 461 464 L 463 465 L 465 464 L 464 467 L 464 469 L 463 470 L 463 473 L 464 474 L 464 477 L 465 478 L 465 480 L 464 480 L 465 480 L 467 484 L 466 486 L 468 487 L 467 489 L 465 490 L 465 491 L 463 490 L 460 487 L 457 486 L 452 487 L 448 485 L 447 483 L 445 483 L 443 483 L 441 481 L 436 479 L 437 478 L 435 477 L 434 472 L 431 468 L 431 465 L 431 464 L 430 462 L 431 460 L 429 457 L 427 456 L 424 453 L 424 450 L 423 450 L 421 447 L 419 446 L 418 444 L 416 438 L 415 437 L 414 434 L 413 432 L 412 429 L 411 427 L 411 426 L 407 423 L 406 422 L 403 420 L 403 418 L 400 415 L 399 416 L 395 415 L 390 414 L 386 413 L 385 415 L 383 414 L 381 415 L 378 419 L 377 422 L 376 424 L 375 425 L 372 428 L 367 427 L 365 424 L 363 424 L 362 422 L 359 421 L 357 420 L 355 417 L 353 417 L 351 414 L 349 409 L 349 404 L 346 400 L 346 397 L 345 395 L 341 391 L 339 390 L 336 387 L 336 386 L 333 384 L 332 381 L 330 379 L 327 377 L 325 372 L 323 371 L 321 369 L 322 367 L 325 367 L 331 368 L 348 370 L 349 370 L 362 371 L 363 371 L 367 371 L 373 372 L 377 372 L 378 370 L 378 362 L 379 354 L 379 346 L 380 343 L 380 338 L 381 329 L 381 329 L 382 321 L 382 317 L 382 312 L 383 304 L 383 302 L 383 296 L 384 288 Z M 505 420 L 505 420 L 505 420 Z M 509 426 L 508 427 L 503 431 L 507 427 Z M 475 449 L 476 447 L 477 447 L 479 446 L 482 444 L 475 449 Z M 471 453 L 471 454 L 471 453 Z M 474 450 L 472 452 L 473 451 Z M 466 471 L 465 467 L 466 465 L 466 464 L 466 462 L 468 459 L 468 459 L 466 464 L 466 468 Z M 469 456 L 471 454 L 469 458 Z M 467 477 L 467 477 L 467 477 Z M 468 479 L 467 478 L 466 478 L 467 477 L 466 475 L 467 476 L 467 477 Z M 467 476 L 466 474 L 466 471 L 466 471 Z M 468 480 L 468 480 L 468 480 Z" fill="{{ TX.fill }}"/><path d="M 282 171 L 281 179 L 280 185 L 279 190 L 293 192 L 294 192 L 307 194 L 306 201 L 305 209 L 303 219 L 303 222 L 303 225 L 300 241 L 300 247 L 299 252 L 298 260 L 297 269 L 283 267 L 272 265 L 262 264 L 246 261 L 240 260 L 224 257 L 226 246 L 228 236 L 229 228 L 230 226 L 233 210 L 234 203 L 235 199 L 238 183 L 242 164 L 256 167 L 267 169 L 268 169 L 276 170 Z" fill="{{ UT.fill }}"/><path d="M 803 91 L 808 90 L 809 92 L 808 95 L 810 98 L 810 99 L 808 102 L 807 103 L 805 104 L 805 107 L 805 115 L 804 116 L 804 118 L 804 119 L 804 125 L 804 127 L 805 129 L 805 133 L 806 135 L 800 136 L 799 136 L 796 137 L 795 133 L 793 127 L 792 122 L 791 121 L 790 121 L 790 119 L 789 118 L 788 114 L 788 111 L 788 109 L 788 106 L 787 104 L 786 104 L 786 103 L 786 100 L 785 99 L 785 96 L 787 95 L 795 93 Z" fill="{{ VT.fill }}"/><path d="M 748 217 L 749 213 L 749 213 L 751 213 L 753 214 L 752 216 L 753 217 L 755 217 L 759 219 L 759 219 L 760 220 L 760 221 L 760 222 L 759 224 L 758 224 L 758 227 L 758 230 L 759 230 L 762 228 L 762 231 L 765 232 L 769 232 L 770 233 L 770 234 L 771 234 L 775 236 L 774 239 L 774 241 L 772 241 L 770 238 L 769 238 L 765 236 L 764 234 L 762 233 L 762 233 L 763 234 L 764 234 L 765 236 L 767 237 L 769 239 L 772 241 L 775 242 L 774 243 L 772 242 L 774 243 L 775 243 L 777 244 L 777 246 L 774 244 L 775 247 L 774 248 L 770 245 L 768 243 L 766 243 L 768 243 L 769 245 L 771 246 L 772 247 L 776 249 L 775 250 L 776 249 L 776 250 L 778 250 L 776 252 L 772 251 L 772 250 L 772 249 L 768 249 L 768 247 L 768 249 L 766 248 L 763 249 L 762 248 L 761 248 L 762 249 L 763 249 L 765 249 L 766 250 L 770 250 L 772 251 L 772 252 L 775 253 L 775 254 L 775 256 L 776 254 L 777 255 L 777 256 L 778 255 L 779 255 L 779 255 L 780 255 L 778 254 L 777 253 L 780 253 L 782 253 L 786 259 L 785 259 L 784 256 L 784 259 L 783 259 L 783 260 L 782 260 L 779 260 L 777 261 L 776 261 L 770 262 L 770 262 L 767 263 L 765 263 L 758 265 L 756 265 L 754 266 L 750 266 L 748 267 L 744 267 L 743 268 L 738 269 L 737 269 L 735 269 L 733 269 L 733 270 L 730 270 L 725 271 L 725 271 L 719 272 L 716 272 L 713 272 L 712 273 L 705 273 L 701 274 L 701 273 L 698 274 L 694 275 L 692 275 L 692 275 L 687 276 L 684 276 L 681 277 L 674 277 L 671 278 L 674 276 L 679 274 L 679 272 L 682 271 L 682 269 L 684 268 L 684 266 L 686 264 L 686 264 L 689 262 L 694 257 L 694 257 L 694 258 L 696 261 L 698 262 L 701 262 L 703 259 L 705 261 L 709 259 L 710 258 L 710 256 L 710 256 L 712 257 L 715 255 L 716 256 L 718 254 L 717 253 L 719 251 L 717 250 L 719 246 L 720 245 L 721 242 L 721 240 L 723 238 L 722 237 L 724 235 L 724 232 L 726 232 L 727 234 L 729 234 L 730 233 L 732 227 L 732 225 L 734 227 L 735 224 L 736 224 L 738 220 L 738 220 L 740 218 L 739 216 L 740 214 L 739 212 L 741 213 L 744 215 Z M 770 248 L 770 248 L 770 248 Z M 778 234 L 778 234 L 778 234 Z M 778 234 L 778 234 L 778 234 Z M 778 234 L 778 234 L 778 234 Z M 782 240 L 781 241 L 782 236 L 783 235 L 783 232 L 787 230 L 786 233 L 787 233 L 785 237 L 785 239 L 783 241 L 782 245 L 782 249 L 781 246 L 781 241 Z M 788 230 L 789 230 L 788 230 Z M 784 259 L 785 259 L 784 259 Z" fill="{{ VA.fill }}"/><path d="M 208 23 L 216 25 L 225 27 L 230 29 L 229 31 L 226 46 L 226 47 L 223 58 L 223 60 L 222 62 L 220 73 L 219 75 L 219 76 L 220 80 L 219 81 L 219 83 L 212 82 L 210 81 L 206 80 L 205 80 L 193 77 L 191 78 L 187 77 L 185 76 L 184 77 L 181 77 L 179 77 L 176 78 L 173 78 L 171 76 L 167 77 L 163 77 L 163 76 L 161 74 L 160 74 L 156 73 L 154 74 L 150 74 L 145 72 L 144 71 L 144 69 L 144 67 L 144 62 L 142 60 L 141 60 L 141 59 L 140 60 L 138 57 L 135 56 L 133 56 L 132 54 L 131 55 L 133 49 L 132 53 L 133 53 L 134 50 L 134 49 L 136 48 L 134 47 L 133 45 L 133 43 L 134 44 L 137 43 L 134 41 L 134 36 L 134 34 L 134 31 L 134 27 L 133 24 L 133 18 L 135 15 L 138 18 L 139 19 L 142 21 L 145 22 L 149 24 L 152 25 L 154 27 L 156 26 L 157 31 L 156 31 L 154 34 L 154 31 L 152 34 L 151 35 L 150 36 L 152 35 L 154 35 L 156 32 L 158 31 L 158 34 L 157 34 L 156 37 L 157 38 L 155 40 L 154 42 L 153 42 L 154 40 L 154 40 L 153 40 L 152 43 L 151 42 L 152 40 L 150 41 L 150 42 L 147 44 L 149 43 L 148 44 L 149 45 L 151 43 L 152 45 L 154 44 L 155 42 L 157 42 L 158 42 L 158 37 L 159 37 L 158 36 L 159 34 L 161 31 L 163 30 L 161 28 L 162 26 L 160 26 L 161 28 L 160 27 L 160 25 L 161 25 L 162 25 L 159 22 L 159 20 L 160 20 L 162 21 L 162 18 L 163 16 L 161 15 L 160 12 L 161 11 L 173 14 L 184 17 L 193 20 Z M 157 18 L 157 21 L 156 20 Z M 154 16 L 156 18 L 155 19 L 154 18 Z M 158 15 L 160 17 L 157 17 L 156 16 Z M 160 22 L 161 24 L 159 24 L 157 25 L 159 25 L 159 29 L 159 28 L 161 29 L 160 32 L 158 29 L 158 26 L 157 25 L 159 22 Z M 157 35 L 157 37 L 156 36 Z M 157 40 L 155 41 L 157 38 Z" fill="{{ WA.fill }}"/><path d="M 716 211 L 719 211 L 723 210 L 724 220 L 727 217 L 729 214 L 731 214 L 733 211 L 735 212 L 737 212 L 738 210 L 739 209 L 740 209 L 741 208 L 743 209 L 746 208 L 746 209 L 747 210 L 749 213 L 748 217 L 744 215 L 741 213 L 739 212 L 740 214 L 739 216 L 740 218 L 738 220 L 738 220 L 736 224 L 735 224 L 734 227 L 732 225 L 732 227 L 730 233 L 729 234 L 727 234 L 726 232 L 724 232 L 724 235 L 722 237 L 723 238 L 721 240 L 721 242 L 720 245 L 719 246 L 717 250 L 719 251 L 717 253 L 718 254 L 716 256 L 715 255 L 712 257 L 710 256 L 710 256 L 710 258 L 709 259 L 705 261 L 703 259 L 701 262 L 698 262 L 696 261 L 694 258 L 694 257 L 694 257 L 691 257 L 688 254 L 686 252 L 685 250 L 684 248 L 682 247 L 683 245 L 682 242 L 684 242 L 686 241 L 686 238 L 687 238 L 688 237 L 687 234 L 688 233 L 688 230 L 689 229 L 691 231 L 691 232 L 692 231 L 692 227 L 692 226 L 692 225 L 693 224 L 694 224 L 695 222 L 696 221 L 697 222 L 700 219 L 701 217 L 702 216 L 704 214 L 703 211 L 704 210 L 704 208 L 704 205 L 704 205 L 705 202 L 704 201 L 705 199 L 703 197 L 705 196 L 706 199 L 706 200 L 707 205 L 707 207 L 707 208 L 708 213 L 709 213 Z" fill="{{ WV.fill }}"/><path d="M 580 108 L 584 109 L 586 109 L 587 109 L 591 110 L 591 112 L 592 113 L 595 114 L 596 114 L 595 117 L 596 118 L 595 120 L 598 120 L 597 123 L 599 125 L 599 127 L 597 128 L 596 130 L 595 133 L 595 133 L 595 133 L 594 135 L 596 136 L 598 134 L 598 133 L 599 130 L 602 128 L 604 123 L 605 123 L 606 121 L 607 120 L 605 127 L 605 129 L 603 130 L 603 132 L 602 136 L 601 139 L 601 142 L 600 143 L 599 148 L 600 151 L 599 154 L 598 160 L 598 161 L 600 167 L 601 168 L 600 170 L 601 174 L 595 174 L 594 174 L 588 175 L 587 175 L 585 175 L 579 175 L 579 175 L 573 176 L 572 176 L 565 176 L 562 176 L 561 174 L 558 173 L 556 172 L 554 168 L 554 166 L 555 162 L 553 161 L 553 159 L 553 158 L 552 156 L 552 154 L 552 152 L 550 149 L 548 148 L 544 145 L 542 142 L 541 142 L 539 141 L 538 139 L 534 139 L 532 136 L 531 136 L 531 133 L 531 129 L 531 127 L 531 125 L 533 123 L 531 120 L 529 120 L 529 119 L 530 117 L 531 114 L 536 112 L 537 109 L 537 104 L 536 100 L 537 100 L 539 98 L 540 99 L 542 99 L 546 97 L 550 96 L 551 95 L 554 93 L 556 94 L 554 97 L 555 98 L 554 100 L 557 99 L 559 100 L 561 100 L 563 101 L 565 104 L 567 105 L 567 105 L 578 107 L 580 108 Z M 558 95 L 558 95 L 556 97 Z" fill="{{ WI.fill }}"/><path d="M 332 122 L 354 124 L 357 125 L 369 126 L 370 126 L 383 127 L 382 135 L 381 142 L 381 143 L 381 148 L 380 155 L 380 155 L 379 164 L 379 172 L 378 183 L 377 189 L 377 191 L 377 195 L 376 202 L 364 201 L 359 200 L 346 199 L 345 199 L 337 198 L 331 197 L 323 196 L 307 194 L 294 192 L 293 192 L 279 190 L 280 185 L 281 179 L 282 171 L 284 162 L 285 153 L 286 147 L 287 144 L 288 135 L 289 126 L 290 122 L 291 116 L 295 117 L 307 118 L 323 121 L 328 121 Z" fill="{{ WY.fill }}"/><path/>

{% if key %}
<g transform="translate(230,570)">
{% include "includes/mapkey.svg" %}
</g>
{% endif %}

</svg>