<?xml version="1.0" standalone="no"?><!DOCTYPE svg PUBLIC "-//W3C//DTD SVG 1.1//EN" "http://www.w3.org/Graphics/SVG/1.1/DTD/svg11.dtd"><svg width="60" height="50" viewBox="0 0 55 50" preserveAspectRatio="xMinYMin" version="1.1" xmlns:xlink="http://www.w3.org/1999/xlink" xmlns="http://www.w3.org/2000/svg">
<g class="minimap"><path class="statelist-minimap-background statelist-minimap-background-ca" d="M7.91,28.74L8.02,28.74L8.18,28.95L7.99,28.94ZM6.79,27.71L7.33,27.86L7.28,27.92L6.95,27.88ZM6.35,27.58L6.65,27.70L6.54,27.86L6.33,27.68ZM5.50,17.19L5.98,17.34L6.98,17.61L8.25,17.98L9.15,18.22L8.90,19.19L8.53,20.65L8.23,21.80L8.98,22.91L9.89,24.29L10.77,25.62L11.41,26.58L12.19,27.75L12.16,27.91L12.28,28.16L12.35,28.48L12.48,28.63L12.50,28.74L12.17,28.89L12.03,29.07L12.02,29.33L11.95,29.52L11.73,29.70L11.68,30.11L11.84,30.16L11.84,30.39L11.71,30.49L11.56,30.49L10.80,30.40L9.10,30.20L9.11,30.10L9.03,29.80L9.08,29.59L8.99,29.25L8.83,28.99L8.44,28.51L8.31,28.54L8.18,28.47L8.20,28.29L8.14,28.09L7.85,28.05L7.59,27.87L7.48,27.64L7.33,27.45L7.19,27.35L6.94,27.31L6.70,27.16L6.39,27.11L6.25,26.91L6.37,26.58L6.32,26.51L6.43,26.26L6.21,26.05L6.29,25.84L6.19,25.77L6.08,25.52L6.00,25.45L5.77,24.75L5.62,24.54L5.64,24.18L5.75,24.18L5.88,23.95L5.82,23.74L5.63,23.70L5.44,23.35L5.49,23.17L5.45,22.92L5.53,22.63L5.65,22.62L5.61,22.88L5.76,23.04L5.82,22.84L5.72,22.68L5.75,22.51L5.86,22.36L5.77,22.22L5.53,22.55L5.23,22.21L5.27,21.88L5.18,21.62L5.06,21.47L5.01,21.28L4.84,20.96L4.89,20.83L4.89,20.40L5.02,20.18L5.04,19.83L4.92,19.48L4.74,19.19L4.76,18.97L5.22,18.40L5.23,18.21L5.43,17.88L5.45,17.52L5.40,17.42Z"></path><path class="statelist-minimap-background statelist-minimap-background-dc" d="M48.22,22.95L48.42,22.96L48.32,23.11Z"></path><path class="statelist-minimap-background statelist-minimap-background-fl" d="M46.48,41.11L46.54,41.00L46.85,40.75L47.10,40.88L46.88,40.96L46.63,41.10ZM42.02,33.81L42.20,34.15L44.02,34.02L44.98,33.96L45.05,34.19L45.20,34.17L45.13,33.71L45.22,33.60L45.45,33.66L45.76,33.67L45.87,34.11L46.12,34.76L46.55,35.48L47.06,36.07L47.15,36.23L47.09,36.39L47.21,36.73L47.44,37.07L47.98,38.06L48.05,38.41L48.07,39.00L48.13,39.32L47.95,39.60L47.99,39.87L47.98,40.15L47.72,40.55L47.50,40.61L47.82,40.25L47.82,40.13L47.48,40.20L47.19,40.33L47.07,40.19L47.07,40.00L46.86,39.70L46.74,39.59L46.46,39.49L46.34,39.50L46.13,39.01L46.03,38.89L45.86,38.94L45.74,38.89L45.60,38.56L45.21,38.01L45.02,37.81L45.16,37.46L45.10,37.29L44.97,37.59L44.78,37.34L44.71,36.95L44.80,36.85L44.87,36.47L44.74,36.12L44.77,36.04L44.60,35.83L44.19,35.65L44.10,35.49L43.91,35.40L43.88,35.22L43.74,35.17L43.56,34.96L43.13,34.79L42.90,34.87L42.65,35.21L42.44,35.38L42.17,35.53L41.93,35.45L41.84,35.48L41.75,35.27L41.77,35.17L41.08,34.82L40.83,34.75L40.40,34.73L40.17,34.77L39.48,34.96L39.54,34.88L39.57,34.49L39.30,34.26L39.32,34.09L41.09,33.93Z"></path><path class="statelist-minimap-background statelist-minimap-background-ga" d="M40.86,29.01L42.12,28.86L42.81,28.78L43.32,28.69L43.14,28.98L43.14,29.11L43.46,29.31L43.63,29.31L43.85,29.68L44.04,29.90L44.29,30.02L44.49,30.25L44.75,30.40L44.77,30.55L44.98,30.75L45.26,30.88L45.38,31.09L45.44,31.36L45.68,31.50L45.76,31.65L45.83,31.91L46.07,31.97L46.12,32.02L45.89,32.39L45.90,32.51L45.81,32.79L45.80,33.04L45.72,33.16L45.76,33.67L45.45,33.66L45.22,33.60L45.13,33.71L45.20,34.17L45.05,34.19L44.98,33.96L44.02,34.02L42.20,34.15L42.02,33.81L41.88,33.60L41.90,33.15L41.79,32.98L41.76,32.81L41.81,32.64L41.80,32.43L41.95,32.26L41.83,32.19L41.84,32.05L41.72,31.89L41.57,31.56L41.15,30.05Z"></path><path class="statelist-minimap-background statelist-minimap-background-id" d="M12.93,14.09L12.97,13.87L12.90,13.63L12.94,13.57L13.29,11.99L13.63,10.50L14.41,10.67L14.16,11.86L14.27,12.18L14.34,12.27L14.28,12.61L14.45,12.81L14.56,12.86L14.78,13.39L14.89,13.57L15.05,13.72L15.24,13.76L15.09,14.05L14.96,14.47L15.01,14.56L14.87,14.83L14.83,15.03L15.00,15.16L15.31,14.95L15.42,15.09L15.42,15.43L15.51,15.69L15.60,15.80L15.58,16.06L15.81,16.20L15.85,16.58L15.94,16.70L16.11,16.58L16.31,16.65L16.49,16.57L16.62,16.64L16.84,16.63L17.11,16.69L17.25,16.51L17.34,16.52L17.47,16.82L17.53,16.86L17.31,18.26L17.05,19.86L16.11,19.70L14.59,19.44L14.39,19.40L12.78,19.07L11.76,18.84L12.04,17.61L12.26,16.65L12.45,16.29L12.22,15.93L12.47,15.57L12.59,15.52L12.71,15.37L12.95,14.94L13.21,14.62L13.14,14.40L12.99,14.29Z"></path><path class="statelist-minimap-background statelist-minimap-background-il" d="M34.78,22.83L34.84,22.53L35.04,22.45L35.06,22.26L35.18,22.09L35.16,21.90L35.01,21.74L35.08,21.52L35.38,21.47L35.69,21.27L35.71,21.09L35.82,21.00L35.81,20.64L35.56,20.44L35.54,20.34L35.35,20.17L37.08,20.07L37.89,20.01L37.88,20.24L38.04,20.51L38.22,20.95L38.35,22.39L38.47,23.84L38.42,24.16L38.52,24.31L38.57,24.57L38.31,25.15L38.18,25.25L38.23,25.35L38.15,25.50L38.17,25.79L38.06,25.98L38.17,26.17L37.79,26.31L37.76,26.45L37.86,26.62L37.82,26.72L37.37,26.56L37.15,26.77L37.20,26.88L36.97,26.82L36.81,26.48L36.87,26.37L36.78,26.23L36.76,26.02L36.43,25.79L36.06,25.58L35.91,25.41L35.90,25.30L36.05,24.94L36.02,24.80L36.11,24.64L35.76,24.52L35.59,24.58L35.50,24.17L35.20,23.95L35.13,23.85L34.87,23.62L34.80,23.48L34.71,23.09Z"></path><path class="statelist-minimap-background statelist-minimap-background-ia" d="M30.16,19.08L31.57,19.08L32.35,19.07L33.69,19.03L34.78,18.98L34.80,19.13L34.93,19.28L34.84,19.43L34.89,19.71L35.07,19.97L35.29,20.03L35.35,20.17L35.54,20.34L35.56,20.44L35.81,20.64L35.82,21.00L35.71,21.09L35.69,21.27L35.38,21.47L35.08,21.52L35.01,21.74L35.16,21.90L35.18,22.09L35.06,22.26L35.04,22.45L34.84,22.53L34.78,22.83L34.71,22.80L34.49,22.55L33.20,22.63L31.91,22.68L30.78,22.67L30.67,22.49L30.73,22.30L30.69,22.14L30.69,21.93L30.63,21.60L30.45,21.41L30.50,21.19L30.25,20.72L30.16,20.32L30.01,19.97L30.17,19.56L30.10,19.43L30.10,19.23Z"></path><path class="statelist-minimap-background statelist-minimap-background-ky" d="M37.20,26.88L37.15,26.77L37.37,26.56L37.82,26.72L37.86,26.62L37.76,26.45L37.79,26.31L38.17,26.17L38.06,25.98L38.17,25.79L38.31,25.63L38.55,25.69L38.74,25.56L38.98,25.66L39.31,25.44L39.41,25.56L39.61,25.53L39.58,25.36L39.75,25.21L39.88,25.35L40.05,25.40L40.15,25.32L40.22,24.99L40.34,24.96L40.41,24.76L40.56,24.63L40.50,24.43L40.66,24.38L40.75,24.43L40.95,24.29L41.09,24.27L41.10,24.15L40.97,23.96L41.03,23.88L41.24,23.89L41.37,23.82L41.51,23.92L41.65,24.18L41.99,24.20L42.17,24.33L42.30,24.22L42.55,24.32L42.89,24.08L42.96,24.26L43.08,24.30L43.23,24.45L43.25,24.80L43.42,24.97L43.41,25.05L43.63,25.30L43.88,25.44L43.97,25.44L43.66,25.82L43.33,26.06L43.20,26.37L43.04,26.43L43.00,26.57L42.50,26.81L42.49,26.84L41.43,26.94L40.94,26.97L40.38,27.03L39.76,27.06L38.46,27.21L38.25,27.17L38.28,27.39L36.84,27.50L37.04,27.33L37.19,27.27Z"></path><path class="statelist-minimap-background statelist-minimap-background-la" d="M32.55,31.98L34.40,31.94L35.48,31.89L35.58,31.97L35.55,32.21L35.63,32.58L35.77,32.69L35.67,32.99L35.54,33.22L35.36,33.38L35.29,33.70L35.21,33.76L35.20,33.95L35.10,34.09L35.19,34.31L35.11,34.37L36.03,34.33L37.10,34.26L37.01,34.60L37.07,34.81L37.16,34.90L37.29,35.21L37.39,35.25L37.06,35.47L37.22,35.64L37.48,35.39L37.75,35.36L37.71,35.60L37.55,35.74L37.55,35.85L37.35,35.95L37.50,36.19L37.80,36.25L38.02,36.44L37.88,36.62L37.65,36.59L37.51,36.42L37.34,36.34L37.12,36.32L36.73,36.63L36.50,36.68L36.05,36.71L35.96,36.58L35.60,36.50L35.46,36.20L35.31,36.16L35.15,35.91L34.96,35.97L35.11,36.13L35.01,36.25L34.74,36.12L34.47,36.20L34.08,36.12L33.55,35.94L33.17,35.96L32.86,36.05L32.76,35.92L32.99,35.60L32.98,35.15L32.95,35.01L33.04,34.84L33.14,34.53L33.13,34.22L32.98,34.08L32.98,33.99L32.80,33.73L32.83,33.59L32.72,33.36L32.58,33.24Z"></path><path class="statelist-minimap-background statelist-minimap-background-md" d="M45.87,22.41L46.87,22.22L47.71,22.06L49.23,21.74L49.65,23.24L50.25,23.12L50.19,23.67L49.84,23.79L49.81,23.85L49.59,23.87L49.53,23.55L49.21,23.54L49.05,23.33L49.01,23.10L48.94,22.98L48.91,22.80L48.99,22.59L48.94,22.53L48.99,22.19L48.79,22.49L48.83,22.81L48.78,23.06L48.87,23.31L49.02,23.47L49.06,23.65L49.01,23.81L48.89,23.72L48.62,23.70L48.43,23.52L48.27,23.63L48.19,23.45L48.28,23.31L48.32,23.11L48.42,22.96L48.22,22.95L48.01,22.84L47.87,22.84L47.83,22.67L47.57,22.59L47.41,22.29L47.16,22.23L46.89,22.34L46.84,22.47L46.61,22.48L46.53,22.39L46.41,22.61L46.28,22.64L46.13,22.87L45.97,23.03Z"></path><path class="statelist-minimap-background statelist-minimap-background-mi" d="M39.33,15.87L39.47,15.74L39.61,15.74L39.52,16.02L39.42,16.05ZM41.88,20.51L40.67,20.71L40.66,20.63L39.78,20.73L38.85,20.83L39.04,20.61L39.21,20.18L39.28,19.82L39.28,19.54L39.19,19.15L39.03,18.86L38.87,18.50L38.95,18.24L38.85,17.99L39.03,17.62L39.04,17.34L39.00,17.18L39.13,17.12L39.14,16.91L39.36,16.80L39.47,16.55L39.59,16.78L39.70,16.68L39.67,16.41L39.93,16.17L39.85,16.02L40.04,15.77L40.16,15.73L40.40,15.85L40.62,15.86L40.73,16.00L40.89,15.99L41.37,16.19L41.51,16.48L41.49,16.66L41.56,16.89L41.56,17.33L41.41,17.44L41.40,17.69L41.16,17.84L41.13,18.13L41.38,18.27L41.51,18.08L41.57,17.84L41.96,17.60L42.08,17.64L42.26,17.86L42.41,18.34L42.46,18.58L42.59,18.83L42.57,19.29L42.28,19.45L42.25,19.69L42.11,19.79L42.11,20.04L41.88,20.42ZM36.15,13.51L36.61,13.18L36.67,13.31L36.45,13.42L36.42,13.50L36.21,13.60ZM35.26,15.20L35.57,15.05L35.74,14.88L36.08,14.81L36.30,14.62L36.45,14.58L36.50,14.46L36.74,14.27L36.87,14.11L37.02,14.00L37.26,13.94L37.26,14.12L37.07,14.29L36.88,14.65L36.95,14.71L37.13,14.58L37.34,14.63L37.61,14.76L37.83,15.08L38.16,15.02L38.31,15.10L38.39,14.97L38.51,15.04L38.84,14.78L39.39,14.71L39.57,14.60L39.77,14.67L39.85,14.90L40.56,14.77L40.61,15.19L40.82,15.32L40.87,15.23L41.06,15.23L41.14,15.43L40.67,15.43L40.43,15.51L40.21,15.51L40.08,15.64L39.88,15.48L39.76,15.44L39.42,15.44L39.31,15.60L39.13,15.67L38.99,15.63L38.82,15.68L38.77,15.81L38.62,15.98L38.41,15.87L38.27,16.06L38.09,16.09L37.80,16.81L37.66,16.70L37.71,16.48L37.54,16.52L37.57,16.12L37.48,16.03L37.26,15.97L37.26,15.84L36.90,15.75L36.66,15.77L36.41,15.64L35.53,15.46L35.44,15.27Z"></path><path class="statelist-minimap-background statelist-minimap-background-mn" d="M29.56,12.38L30.23,12.38L31.25,12.38L31.24,11.92L31.52,11.99L31.63,12.52L31.62,12.63L31.83,12.75L32.32,12.81L32.35,12.94L32.63,12.91L32.84,12.78L33.05,12.79L33.41,13.00L33.54,13.27L33.62,13.10L33.80,13.09L33.86,13.22L34.08,13.27L34.23,13.44L34.47,13.40L34.79,13.19L34.92,13.36L35.38,13.31L35.61,13.44L35.54,13.64L35.08,13.83L34.82,14.02L34.60,14.24L34.35,14.55L33.87,14.98L33.91,15.10L33.68,15.16L33.71,15.88L33.35,16.12L33.23,16.33L33.23,16.50L33.33,16.52L33.44,16.66L33.34,16.85L33.37,17.27L33.32,17.48L33.56,17.71L33.77,17.75L33.84,17.86L34.08,17.95L34.15,18.11L34.44,18.35L34.55,18.38L34.74,18.65L34.78,18.98L33.69,19.03L32.35,19.07L31.57,19.08L30.16,19.08L30.17,17.81L30.17,16.87L29.95,16.71L29.86,16.45L30.06,16.25L30.08,16.10L30.05,15.64L29.96,15.49L29.89,15.25L29.92,14.91L29.88,14.71L29.86,14.11L29.62,13.38L29.62,12.94L29.66,12.78Z"></path><path class="statelist-minimap-background statelist-minimap-background-mo" d="M30.78,22.67L31.91,22.68L33.20,22.63L34.49,22.55L34.71,22.80L34.78,22.83L34.71,23.09L34.80,23.48L34.87,23.62L35.13,23.85L35.20,23.95L35.50,24.17L35.59,24.58L35.76,24.52L36.11,24.64L36.02,24.80L36.05,24.94L35.90,25.30L35.91,25.41L36.06,25.58L36.43,25.79L36.76,26.02L36.78,26.23L36.87,26.37L36.81,26.48L36.97,26.82L37.20,26.88L37.19,27.27L37.04,27.33L36.84,27.50L36.87,27.69L36.69,28.12L36.07,28.17L36.14,28.02L36.35,27.77L36.24,27.54L35.30,27.59L34.11,27.64L32.54,27.69L31.90,27.70L31.90,27.09L31.88,25.56L31.87,24.48L31.69,24.36L31.39,23.94L31.62,23.70L31.53,23.51L31.41,23.56L31.20,23.39L31.05,23.10L30.88,23.00Z"></path><path class="statelist-minimap-background statelist-minimap-background-ny" d="M45.07,19.36L45.56,18.90L45.61,18.74L45.76,18.58L45.68,18.42L45.50,18.27L45.47,18.05L45.90,17.84L46.25,17.76L46.59,17.74L46.80,17.83L46.97,17.74L47.31,17.69L47.52,17.54L47.71,17.29L47.86,17.24L47.80,16.91L47.61,16.80L47.65,16.45L47.90,16.21L48.01,15.97L48.35,15.47L48.67,15.21L49.18,15.12L49.92,14.92L49.99,15.16L49.99,15.39L50.13,15.58L50.16,15.81L50.12,16.09L50.28,16.40L50.25,16.54L50.44,16.65L50.61,17.50L50.64,17.60L50.62,18.44L50.65,18.48L50.81,19.39L50.90,19.48L50.72,19.66L50.81,19.79L50.79,19.94L51.05,19.77L51.21,19.79L51.30,19.69L51.76,19.54L51.92,19.32L52.01,19.39L52.33,19.38L51.47,20.01L51.06,20.22L50.82,20.29L50.68,20.38L50.56,20.34L50.41,20.50L50.43,20.33L50.52,20.28L50.60,19.82L49.78,19.56L49.73,19.48L49.49,19.45L49.42,19.37L49.28,19.06L49.14,19.04L49.04,18.92L48.05,19.13L46.84,19.37L45.75,19.58L45.13,19.68Z"></path><path class="statelist-minimap-background statelist-minimap-background-or" d="M7.57,12.35L7.74,12.55L7.89,12.54L8.03,12.71L8.06,12.88L8.00,13.22L8.08,13.33L8.37,13.50L8.80,13.41L9.03,13.45L9.38,13.65L9.81,13.64L9.87,13.71L10.12,13.74L10.35,13.68L10.78,13.68L11.08,13.72L11.22,13.67L12.93,14.09L12.99,14.29L13.14,14.40L13.21,14.62L12.95,14.94L12.71,15.37L12.59,15.52L12.47,15.57L12.22,15.93L12.45,16.29L12.26,16.65L12.04,17.61L11.76,18.84L10.22,18.49L9.15,18.22L8.25,17.98L6.98,17.61L5.98,17.34L5.50,17.19L5.44,17.08L5.42,16.84L5.56,16.36L5.51,16.10L5.62,15.99L5.81,15.65L6.04,15.35L6.24,14.95L6.57,14.13L6.62,13.93L6.82,13.55L6.94,13.15L7.05,12.90L7.19,12.39Z"></path><path class="statelist-minimap-background statelist-minimap-background-tn" d="M36.69,28.12L36.87,27.69L36.84,27.50L38.28,27.39L38.25,27.17L38.46,27.21L39.76,27.06L40.38,27.03L40.94,26.97L41.43,26.94L42.49,26.84L42.50,26.81L43.31,26.71L44.42,26.56L44.41,26.78L44.25,26.94L44.17,27.17L43.99,27.15L43.81,27.27L43.69,27.45L43.60,27.33L43.47,27.44L43.31,27.72L43.14,27.77L42.84,28.06L42.57,28.09L42.35,28.31L42.30,28.52L42.12,28.57L42.12,28.86L40.86,29.01L39.69,29.13L38.88,29.19L38.30,29.25L37.07,29.34L36.20,29.40L36.41,29.23L36.37,29.01L36.51,28.70L36.50,28.51L36.72,28.36L36.78,28.22Z"></path><path class="statelist-minimap-background statelist-minimap-background-tx" d="M23.75,27.46L25.09,27.55L26.67,27.63L26.63,28.71L26.57,30.02L26.64,30.00L26.86,30.25L26.98,30.22L27.28,30.26L27.36,30.47L27.62,30.50L27.81,30.59L27.98,30.58L28.08,30.68L28.19,30.57L28.46,30.64L28.47,30.77L28.61,30.78L28.68,30.96L28.88,30.79L29.11,31.00L29.35,31.02L29.60,30.85L29.70,30.98L29.96,31.00L30.20,31.17L30.41,31.00L30.74,30.96L31.01,30.88L31.12,30.95L31.28,30.94L31.34,30.84L31.59,30.97L31.73,31.10L32.09,31.23L32.22,31.32L32.40,31.28L32.54,31.32L32.55,31.98L32.58,33.24L32.72,33.36L32.83,33.59L32.80,33.73L32.98,33.99L32.98,34.08L33.13,34.22L33.14,34.53L33.04,34.84L32.95,35.01L32.98,35.15L32.99,35.60L32.76,35.92L32.86,36.05L32.62,36.08L32.06,36.34L31.92,36.51L31.60,36.74L31.22,37.08L30.35,37.53L30.09,37.75L29.88,37.87L29.60,38.10L29.32,38.48L29.15,38.83L29.05,39.28L29.11,39.71L29.24,40.19L29.29,40.60L29.08,40.65L28.98,40.75L28.74,40.55L28.57,40.48L28.13,40.47L27.86,40.30L27.63,40.24L27.46,40.08L27.13,40.00L26.98,39.49L26.79,39.26L26.81,39.10L26.71,38.91L26.76,38.79L26.69,38.54L26.54,38.48L26.39,38.32L26.31,38.09L26.16,37.90L25.95,37.73L25.83,37.33L25.73,37.22L25.70,37.04L25.61,36.92L25.57,36.68L25.18,36.22L24.98,36.13L24.84,35.86L24.67,35.78L24.57,35.81L24.24,35.74L24.13,35.76L23.90,35.63L23.79,35.76L23.49,35.77L23.33,36.03L23.24,36.36L23.00,36.54L22.94,36.66L22.78,36.65L22.26,36.27L22.07,36.20L21.90,36.08L21.51,35.69L21.40,35.39L21.40,35.02L21.26,34.79L21.24,34.61L21.14,34.43L20.83,34.22L20.60,33.99L20.54,33.85L20.40,33.75L20.24,33.49L20.02,33.35L19.81,32.96L19.70,32.91L19.60,32.79L19.64,32.64L20.27,32.71L21.66,32.84L23.29,32.98L23.36,31.94L23.50,30.43L23.60,29.08L23.72,27.46Z"></path><path class="statelist-minimap-background statelist-minimap-background-va" d="M49.81,23.85L49.84,23.79L50.19,23.67L50.10,23.91L49.97,24.07L49.95,24.45L49.87,24.80L49.74,24.94L49.65,24.72L49.66,24.38L49.71,24.08ZM43.97,25.44L43.97,25.54L44.13,25.73L44.31,25.81L44.42,25.78L44.59,25.59L44.74,25.70L45.01,25.57L45.33,25.30L45.42,25.35L45.56,25.19L45.53,25.01L45.59,24.82L45.76,24.52L45.78,24.34L45.89,24.21L45.95,23.81L46.14,23.94L46.32,23.96L46.45,23.63L46.50,23.40L46.64,23.47L46.70,23.29L46.87,23.12L46.97,22.91L46.96,22.53L47.51,22.84L47.57,22.59L47.83,22.67L47.87,22.84L48.01,22.84L48.22,22.95L48.32,23.11L48.28,23.31L48.17,23.34L48.14,23.55L48.23,23.70L48.42,23.63L48.54,23.79L48.88,23.80L49.10,23.97L49.29,24.04L49.26,24.32L49.40,24.61L49.41,24.75L49.32,24.87L49.47,25.02L49.50,25.16L49.77,25.16L49.99,25.58L48.99,25.80L47.47,26.10L46.51,26.27L45.76,26.40L44.42,26.56L43.31,26.71L42.50,26.81L43.00,26.57L43.04,26.43L43.20,26.37L43.33,26.06L43.66,25.82Z"></path><path class="statelist-minimap-background statelist-minimap-background-wi" d="M33.91,15.10L34.08,15.11L34.61,14.89L34.81,14.69L34.96,14.81L34.86,15.01L34.98,15.12L35.26,15.20L35.44,15.27L35.53,15.46L36.41,15.64L36.66,15.77L36.90,15.75L37.26,15.84L37.26,15.97L37.48,16.03L37.57,16.12L37.54,16.52L37.71,16.48L37.66,16.70L37.80,16.81L37.77,16.96L37.62,17.00L37.50,17.30L37.50,17.43L37.69,17.38L37.83,17.11L37.94,17.06L38.08,16.80L38.25,16.79L37.98,17.42L37.92,17.75L37.97,17.89L37.85,18.05L37.80,18.31L37.85,18.55L37.73,19.02L37.75,19.37L37.89,19.65L37.89,20.01L37.08,20.07L35.35,20.17L35.29,20.03L35.07,19.97L34.89,19.71L34.84,19.43L34.93,19.28L34.80,19.13L34.78,18.98L34.74,18.65L34.55,18.38L34.44,18.35L34.15,18.11L34.08,17.95L33.84,17.86L33.77,17.75L33.56,17.71L33.32,17.48L33.37,17.27L33.34,16.85L33.44,16.66L33.33,16.52L33.23,16.50L33.23,16.33L33.35,16.12L33.71,15.88L33.68,15.16Z"></path><path class="statelist-minimap-background statelist-minimap-background-ak" d="M1.85,40.51L1.92,40.56L1.98,40.68L1.95,40.70L1.90,40.58ZM0.77,39.60L0.86,39.63L0.80,39.67ZM0.65,39.30L0.70,39.31L0.80,39.37L0.85,39.45L0.71,39.43L0.70,39.37ZM13.68,39.46L13.72,39.37L13.69,39.27L13.79,39.24L13.89,39.28L13.92,39.34L14.03,39.41L14.13,39.54L14.23,39.61L14.29,39.77L14.28,39.81L14.22,39.82L14.18,39.80L14.09,39.87L13.98,39.79L13.94,39.70L13.84,39.68L13.77,39.64L13.77,39.52L13.74,39.47ZM13.46,39.10L13.54,38.97L13.68,38.97L13.72,38.95L13.80,39.02L13.88,39.06L13.88,39.11L13.80,39.15L13.78,39.19L13.68,39.22L13.65,39.26L13.65,39.39L13.60,39.43L13.55,39.31L13.54,39.23L13.51,39.22ZM13.14,38.51L13.25,38.58L13.35,38.59L13.45,38.68L13.49,38.76L13.49,38.89L13.41,39.04L13.37,39.02L13.35,38.89L13.29,38.79L13.22,38.63ZM12.84,38.76L12.87,38.70L12.86,38.66L12.93,38.63L13.00,38.63L13.11,38.65L13.19,38.66L13.20,38.72L13.28,38.87L13.31,38.97L13.42,39.18L13.48,39.37L13.44,39.39L13.33,39.26L13.20,39.19L13.22,39.10L13.08,39.05L13.06,38.98L12.96,38.91L12.90,38.83L12.85,38.80ZM8.77,39.56L8.83,39.47L8.90,39.43L8.95,39.43L8.97,39.37L9.00,39.34L9.09,39.31L9.08,39.26L9.20,39.11L9.25,39.08L9.26,39.02L9.32,39.01L9.28,39.10L9.31,39.13L9.37,39.11L9.44,39.16L9.43,39.21L9.28,39.24L9.23,39.27L9.22,39.33L9.31,39.30L9.32,39.35L9.31,39.40L9.37,39.46L9.33,39.51L9.28,39.52L9.25,39.59L9.19,39.60L9.21,39.66L9.06,39.76L8.99,39.79L8.95,39.85L8.83,39.71L8.81,39.60ZM8.75,39.96L8.83,39.88L8.93,39.88L8.95,39.94L8.83,39.93ZM7.42,40.54L7.45,40.43L7.52,40.39L7.53,40.43L7.61,40.44L7.67,40.56L7.64,40.58L7.60,40.50L7.54,40.48L7.47,40.50ZM7.29,40.35L7.33,40.32L7.37,40.33L7.44,40.30L7.46,40.34L7.36,40.38L7.29,40.43ZM7.38,38.93L7.39,38.90L7.48,38.88L7.42,38.96ZM6.76,40.63L6.88,40.70L6.84,40.72L6.77,40.70ZM5.95,40.65L6.06,40.62L6.11,40.67L6.07,40.70L5.94,40.71ZM6.13,38.06L6.15,38.05L6.25,38.08L6.26,38.05L6.36,38.03L6.41,38.01L6.42,38.06L6.50,38.09L6.47,38.18L6.49,38.25L6.38,38.26L6.32,38.25L6.23,38.20L6.13,38.12ZM5.45,40.92L5.59,40.88L5.68,40.78L5.65,40.74L5.69,40.70L5.79,40.69L5.81,40.73L5.91,40.79L5.89,40.83L5.81,40.86L5.71,40.93L5.61,40.92L5.48,40.96ZM6.48,35.74L6.51,35.72L6.64,35.67L6.74,35.62L7.00,35.51L7.18,35.47L7.28,35.48L7.32,35.50L7.26,35.57L7.24,35.65L7.27,35.71L7.43,35.72L7.50,35.75L7.54,35.74L7.59,35.77L7.66,35.67L7.71,35.70L7.73,35.66L7.63,35.61L7.57,35.48L7.51,35.45L7.50,35.34L7.33,35.27L7.32,35.13L7.31,35.07L7.13,34.84L7.04,34.77L7.03,34.74L6.95,34.67L7.01,34.64L7.05,34.52L7.06,34.46L7.16,34.49L7.36,34.49L7.48,34.42L7.54,34.35L7.57,34.23L7.61,34.14L7.73,34.00L7.80,33.95L7.88,33.98L7.95,33.95L8.05,33.88L8.14,33.79L8.29,33.80L8.37,33.79L8.46,33.74L8.56,33.61L8.59,33.61L8.73,33.67L8.73,33.76L8.80,33.68L8.87,33.74L8.87,33.81L8.93,33.84L8.97,33.79L9.06,33.77L9.18,33.80L9.21,33.82L9.18,33.90L9.28,33.93L9.28,33.97L9.36,33.99L9.45,33.95L9.49,33.97L9.55,33.93L9.61,33.92L9.69,33.95L9.73,33.95L9.78,34.00L9.85,34.00L9.87,34.03L9.96,34.04L10.05,34.02L10.13,34.03L10.26,34.08L10.34,34.08L10.44,34.00L10.53,33.97L10.61,34.00L10.67,34.05L10.78,34.08L10.83,34.11L10.90,34.12L10.99,34.59L11.21,35.70L11.54,37.36L11.68,38.03L11.78,38.04L11.78,38.00L11.90,38.04L11.94,37.96L12.07,37.92L12.07,38.04L12.11,38.07L12.19,38.09L12.23,38.15L12.49,38.31L12.56,38.44L12.66,38.31L12.71,38.29L12.72,38.23L12.70,38.16L12.71,38.10L12.79,38.05L12.87,37.96L12.99,38.03L13.00,38.09L13.04,38.15L13.10,38.14L13.16,38.18L13.24,38.28L13.34,38.30L13.48,38.39L13.47,38.42L13.56,38.49L13.60,38.55L13.66,38.60L13.78,38.71L13.88,38.81L13.87,38.87L13.95,38.86L13.96,38.94L14.03,38.95L14.06,39.02L14.12,39.00L14.26,39.04L14.32,39.04L14.42,39.06L14.44,39.10L14.52,39.08L14.56,39.12L14.56,39.21L14.60,39.30L14.67,39.41L14.64,39.58L14.60,39.66L14.52,39.68L14.47,39.59L14.42,39.69L14.34,39.68L14.32,39.61L14.29,39.61L14.24,39.56L14.22,39.49L14.12,39.46L14.08,39.40L14.11,39.34L14.06,39.33L13.99,39.29L13.93,39.29L13.92,39.25L13.82,39.23L13.83,39.18L13.90,39.14L13.93,39.09L13.88,39.02L13.81,38.99L13.76,38.93L13.66,38.93L13.60,38.89L13.60,38.83L13.57,38.77L13.44,38.63L13.38,38.59L13.34,38.54L13.23,38.55L13.19,38.50L13.11,38.50L13.14,38.60L13.09,38.59L13.06,38.56L12.98,38.56L12.92,38.58L12.84,38.64L12.81,38.68L12.56,38.58L12.46,38.52L12.45,38.48L12.38,38.43L12.28,38.41L12.21,38.38L12.09,38.35L11.98,38.30L12.03,38.25L12.01,38.17L11.97,38.17L11.89,38.26L11.77,38.26L11.63,38.23L11.58,38.20L11.33,38.19L11.15,38.24L11.10,38.27L11.04,38.23L10.99,38.24L10.92,38.20L10.86,38.20L10.82,38.16L10.76,38.16L10.71,38.19L10.63,38.16L10.55,38.20L10.51,38.24L10.44,38.22L10.38,38.31L10.34,38.43L10.26,38.42L10.24,38.39L10.13,38.41L9.99,38.40L9.91,38.49L9.83,38.53L9.73,38.69L9.64,38.70L9.58,38.75L9.50,38.74L9.51,38.79L9.46,38.81L9.42,38.79L9.39,38.73L9.41,38.67L9.53,38.60L9.46,38.57L9.41,38.52L9.44,38.42L9.50,38.33L9.52,38.20L9.49,38.11L9.56,38.08L9.69,37.96L9.74,38.02L9.78,38.03L9.83,37.96L9.76,37.91L9.73,37.86L9.63,37.87L9.58,37.89L9.53,37.97L9.47,37.98L9.41,38.05L9.39,38.11L9.30,38.22L9.29,38.30L9.26,38.32L9.25,38.40L9.23,38.46L9.17,38.48L9.15,38.56L9.11,38.59L9.05,38.59L9.02,38.66L8.95,38.69L8.91,38.80L8.94,38.83L9.02,38.82L9.11,38.91L9.04,39.01L8.98,39.02L8.90,39.23L8.82,39.28L8.75,39.27L8.70,39.30L8.64,39.41L8.58,39.38L8.55,39.47L8.48,39.48L8.41,39.53L8.41,39.63L8.36,39.71L8.29,39.75L8.24,39.75L8.12,39.80L8.13,39.86L8.03,39.84L8.05,39.90L7.94,39.91L7.89,39.96L7.97,40.01L7.91,40.05L7.89,40.11L7.73,40.13L7.73,40.17L7.62,40.23L7.55,40.17L7.50,40.17L7.48,40.21L7.41,40.24L7.37,40.29L7.26,40.28L7.19,40.32L7.14,40.31L7.17,40.20L7.12,40.20L7.09,40.29L7.04,40.34L7.01,40.41L6.94,40.43L6.93,40.50L6.88,40.49L6.89,40.43L6.79,40.46L6.76,40.43L6.68,40.48L6.72,40.54L6.59,40.56L6.47,40.54L6.42,40.56L6.39,40.60L6.31,40.62L6.26,40.59L6.25,40.53L6.30,40.51L6.35,40.44L6.56,40.37L6.68,40.40L6.68,40.36L6.79,40.32L6.86,40.27L6.98,40.14L7.08,40.08L7.25,40.05L7.33,40.05L7.38,40.07L7.44,39.95L7.58,39.85L7.65,39.82L7.79,39.74L7.86,39.76L7.86,39.68L7.96,39.56L8.01,39.53L8.05,39.48L8.11,39.45L8.10,39.41L8.17,39.06L8.27,38.95L8.26,38.90L8.03,38.99L7.98,38.93L7.90,38.88L7.87,38.95L7.90,39.04L7.86,39.08L7.82,39.06L7.76,38.91L7.70,38.83L7.67,38.88L7.60,38.85L7.56,38.81L7.57,38.76L7.47,38.82L7.33,38.88L7.32,38.91L7.23,38.95L7.22,38.87L7.24,38.76L7.20,38.64L7.22,38.61L7.29,38.55L7.21,38.30L7.15,38.26L7.14,38.32L6.93,38.37L6.83,38.35L6.79,38.33L6.80,38.27L6.75,38.21L6.70,38.12L6.65,38.09L6.58,38.01L6.58,37.98L6.67,37.94L6.67,37.84L6.68,37.78L6.57,37.73L6.58,37.67L6.53,37.61L6.57,37.58L6.49,37.51L6.53,37.43L6.62,37.43L6.61,37.38L6.64,37.31L6.81,37.11L6.91,36.93L6.95,36.90L7.03,36.88L7.09,36.91L7.15,37.00L7.21,37.00L7.32,36.90L7.36,36.85L7.30,36.78L7.36,36.77L7.43,36.86L7.58,36.86L7.67,36.75L7.66,36.62L7.66,36.55L7.61,36.47L7.63,36.43L7.71,36.38L7.71,36.34L7.66,36.26L7.61,36.31L7.56,36.30L7.46,36.33L7.39,36.38L7.33,36.39L7.27,36.43L7.23,36.36L7.18,36.34L7.07,36.33L6.97,36.36L6.88,36.33L6.72,36.26L6.69,36.18L6.71,36.12L6.64,36.01L6.72,36.00L6.74,35.94L6.57,35.87L6.48,35.78ZM5.02,41.06L5.17,40.98L5.19,40.93L5.24,40.89L5.28,40.91L5.32,40.83L5.41,40.81L5.46,40.84L5.44,40.89L5.31,40.93L5.25,41.00L5.16,41.04ZM4.80,41.01L4.83,40.96L4.89,40.98L4.91,41.04ZM5.60,36.45L5.63,36.38L5.77,36.49L5.84,36.46L5.89,36.46L5.93,36.51L5.93,36.57L6.02,36.64L6.16,36.70L6.12,36.76L6.04,36.73L5.98,36.76L5.96,36.80L5.89,36.70L5.85,36.68L5.83,36.62L5.76,36.55L5.70,36.55L5.65,36.57L5.60,36.53ZM5.03,37.56L5.05,37.65L5.10,37.71L5.07,37.74L5.01,37.64ZM3.42,40.93L3.53,40.94L3.58,40.95L3.65,40.94L3.66,40.90L3.75,40.88L3.78,40.93L3.75,41.00L3.88,41.03L3.87,41.09L3.68,41.00L3.64,41.02L3.41,40.95ZM2.95,40.94L3.02,40.85L3.09,40.84L3.07,40.91L3.18,40.93L3.19,40.85L3.24,40.85L3.28,40.95L3.21,40.98L3.08,40.97L3.00,40.99ZM2.78,40.85L2.90,40.87L2.92,40.91L2.77,40.89ZM2.68,40.74L2.74,40.76L2.74,40.79L2.81,40.81L2.72,40.86Z"></path><path class="statelist-minimap-background statelist-minimap-background-az" d="M11.56,30.49L11.71,30.49L11.84,30.39L11.84,30.16L11.68,30.11L11.73,29.70L11.95,29.52L12.02,29.33L12.03,29.07L12.17,28.89L12.50,28.74L12.48,28.63L12.35,28.48L12.28,28.16L12.16,27.91L12.19,27.75L12.28,27.60L12.27,27.20L12.36,26.40L12.72,26.42L12.75,26.53L12.90,26.60L13.04,26.42L13.22,25.44L14.25,25.63L15.86,25.91L17.08,26.10L17.99,26.23L17.84,27.31L17.65,28.72L17.47,30.04L17.28,31.38L17.04,33.14L16.23,33.02L14.95,32.83L13.72,32.12L12.40,31.34L11.41,30.74L11.44,30.59Z"></path><path class="statelist-minimap-background statelist-minimap-background-ar" d="M31.90,27.70L32.54,27.69L34.11,27.64L35.30,27.59L36.24,27.54L36.35,27.77L36.14,28.02L36.07,28.17L36.69,28.12L36.78,28.22L36.72,28.36L36.50,28.51L36.51,28.70L36.37,29.01L36.41,29.23L36.20,29.40L36.27,29.50L36.06,29.66L35.96,29.88L35.98,30.13L35.83,30.20L35.68,30.38L35.53,30.82L35.57,30.95L35.40,31.25L35.51,31.41L35.56,31.60L35.48,31.89L34.40,31.94L32.55,31.98L32.54,31.32L32.40,31.28L32.22,31.32L32.09,31.23L32.10,30.00L32.11,29.09Z"></path><path class="statelist-minimap-background statelist-minimap-background-co" d="M18.67,21.34L20.19,21.53L21.26,21.66L22.48,21.79L23.20,21.85L25.03,21.98L24.96,23.21L24.86,24.82L24.78,26.00L24.72,26.92L23.80,26.84L22.13,26.71L20.91,26.59L20.08,26.49L18.99,26.36L17.99,26.23L18.19,24.81L18.20,24.67L18.35,23.63L18.47,22.72Z"></path><path class="statelist-minimap-background statelist-minimap-background-in" d="M38.22,20.95L38.47,21.03L38.85,20.83L39.78,20.73L40.66,20.63L40.67,20.71L40.87,22.35L41.03,23.88L40.97,23.96L41.10,24.15L41.09,24.27L40.95,24.29L40.75,24.43L40.66,24.38L40.50,24.43L40.56,24.63L40.41,24.76L40.34,24.96L40.22,24.99L40.15,25.32L40.05,25.40L39.88,25.35L39.75,25.21L39.58,25.36L39.61,25.53L39.41,25.56L39.31,25.44L38.98,25.66L38.74,25.56L38.55,25.69L38.31,25.63L38.17,25.79L38.15,25.50L38.23,25.35L38.18,25.25L38.31,25.15L38.57,24.57L38.52,24.31L38.42,24.16L38.47,23.84L38.35,22.39Z"></path><path class="statelist-minimap-background statelist-minimap-background-ct" d="M50.65,18.48L52.14,18.16L52.33,18.86L52.30,18.99L52.27,18.98L51.72,19.23L51.37,19.30L51.00,19.66L50.81,19.79L50.72,19.66L50.90,19.48L50.81,19.39Z"></path><path class="statelist-minimap-background statelist-minimap-background-hi" d="M20.20,40.00L20.36,39.87L20.45,39.70L20.38,39.42L20.56,39.46L20.72,39.58L21.09,39.71L21.31,39.90L21.44,40.17L21.63,40.30L21.55,40.41L21.23,40.62L21.11,40.61L20.83,40.78L20.71,40.98L20.58,40.98L20.36,40.83L20.39,40.53ZM19.45,38.61L19.54,38.48L19.70,38.64L19.97,38.59L20.18,38.75L20.25,38.88L20.10,38.97L19.76,39.00L19.71,38.77L19.53,38.74ZM19.04,38.62L19.17,38.61L19.32,38.74L19.14,38.84ZM17.69,37.81L17.82,37.80L18.00,37.65L18.14,37.87L18.28,37.96L18.30,38.20L18.08,38.14L17.84,38.15L17.69,37.92ZM15.92,37.21L16.16,37.02L16.36,37.01L16.48,37.15L16.43,37.35L16.31,37.45L16.13,37.42L15.96,37.32Z"></path><path class="statelist-minimap-background statelist-minimap-background-ne" d="M23.41,19.40L24.34,19.47L25.16,19.53L26.12,19.59L26.83,19.62L28.34,19.67L28.39,19.76L28.82,19.97L28.91,19.85L29.04,19.88L29.46,19.88L29.55,19.97L29.94,20.12L30.01,20.30L30.16,20.32L30.25,20.72L30.50,21.19L30.45,21.41L30.63,21.60L30.69,21.93L30.69,22.14L30.73,22.30L30.67,22.49L30.78,22.67L30.88,23.00L31.05,23.10L31.20,23.39L30.13,23.39L28.64,23.37L27.03,23.32L25.87,23.27L24.96,23.21L25.03,21.98L23.20,21.85L23.33,20.32Z"></path><path class="statelist-minimap-background statelist-minimap-background-nm" d="M17.99,26.23L18.99,26.36L20.08,26.49L20.91,26.59L22.13,26.71L23.80,26.84L23.75,27.46L23.72,27.46L23.60,29.08L23.50,30.43L23.36,31.94L23.29,32.98L21.66,32.84L20.27,32.71L19.64,32.64L19.60,32.79L19.70,32.91L17.98,32.71L17.90,33.25L17.04,33.14L17.28,31.38L17.47,30.04L17.65,28.72L17.84,27.31Z"></path><path class="statelist-minimap-background statelist-minimap-background-nc" d="M44.42,26.56L45.76,26.40L46.51,26.27L47.47,26.10L48.99,25.80L49.99,25.58L50.24,26.08L50.56,26.49L50.63,26.65L50.66,27.11L50.31,27.32L50.13,27.52L49.90,27.92L49.85,28.09L49.63,27.99L49.24,28.15L48.82,28.58L48.68,28.85L48.62,29.25L48.43,29.22L48.19,29.27L48.05,29.36L46.72,28.41L45.62,28.57L45.61,28.43L45.43,28.25L45.31,28.21L43.96,28.35L43.32,28.69L42.81,28.78L42.12,28.86L42.12,28.57L42.30,28.52L42.35,28.31L42.57,28.09L42.84,28.06L43.14,27.77L43.31,27.72L43.47,27.44L43.60,27.33L43.69,27.45L43.81,27.27L43.99,27.15L44.17,27.17L44.25,26.94L44.41,26.78Z"></path><path class="statelist-minimap-background statelist-minimap-background-oh" d="M40.67,20.71L41.88,20.51L42.25,20.63L42.38,20.71L42.46,20.61L42.69,20.78L42.83,20.81L43.23,20.59L43.46,20.59L43.82,20.20L44.46,19.82L44.73,21.45L44.60,21.54L44.72,21.87L44.61,22.37L44.62,22.62L44.40,22.99L44.22,23.15L44.11,23.08L43.93,23.28L43.84,23.53L43.89,23.65L43.79,23.73L43.67,23.62L43.52,23.93L43.59,24.16L43.50,24.19L43.47,24.38L43.23,24.45L43.08,24.30L42.96,24.26L42.89,24.08L42.55,24.32L42.30,24.22L42.17,24.33L41.99,24.20L41.65,24.18L41.51,23.92L41.37,23.82L41.24,23.89L41.03,23.88L40.87,22.35Z"></path><path class="statelist-minimap-background statelist-minimap-background-me" d="M51.72,14.09L51.93,13.87L52.04,13.54L52.21,13.21L52.14,13.14L52.09,12.87L52.11,12.68L52.20,12.53L52.16,12.20L52.53,11.14L52.68,11.14L52.74,11.34L52.88,11.39L53.09,11.24L53.25,11.05L53.38,11.04L53.81,11.25L54.22,12.56L54.29,12.87L54.54,12.90L54.67,12.98L54.70,13.27L55.06,13.36L55.30,13.66L55.10,14.00L54.97,14.04L54.70,14.36L54.49,14.46L54.32,14.86L53.99,15.08L53.85,14.87L53.83,15.19L53.67,15.39L53.19,15.62L53.01,15.80L52.90,16.23L52.80,16.31L52.81,16.51L52.75,16.66L52.41,16.35L52.36,16.11L51.94,14.75Z"></path><path class="statelist-minimap-background statelist-minimap-background-ma" d="M53.19,18.71L53.35,18.51L53.53,18.62ZM50.64,17.60L51.35,17.45L52.36,17.22L52.45,17.05L52.72,16.91L52.76,17.01L52.95,17.21L52.82,17.36L52.75,17.56L53.00,17.67L53.13,17.80L53.15,17.95L53.30,18.09L53.56,18.14L53.83,17.95L53.81,18.13L53.55,18.26L53.24,18.53L53.05,18.46L52.89,18.61L52.83,18.42L52.62,18.32L52.50,18.05L52.14,18.16L50.65,18.48L50.62,18.44Z"></path><path class="statelist-minimap-background statelist-minimap-background-ms" d="M35.48,31.89L35.56,31.60L35.51,31.41L35.40,31.25L35.57,30.95L35.53,30.82L35.68,30.38L35.83,30.20L35.98,30.13L35.96,29.88L36.06,29.66L36.27,29.50L36.20,29.40L37.07,29.34L38.30,29.25L38.40,29.37L38.38,30.40L38.36,31.48L38.33,33.03L38.44,34.02L38.55,34.93L38.48,35.00L38.03,34.94L37.56,35.10L37.39,35.25L37.29,35.21L37.16,34.90L37.07,34.81L37.01,34.60L37.10,34.26L36.03,34.33L35.11,34.37L35.19,34.31L35.10,34.09L35.20,33.95L35.21,33.76L35.29,33.70L35.36,33.38L35.54,33.22L35.67,32.99L35.77,32.69L35.63,32.58L35.55,32.21L35.58,31.97Z"></path><path class="statelist-minimap-background statelist-minimap-background-mt" d="M14.41,10.67L15.08,10.82L16.28,11.06L18.04,11.37L19.10,11.53L20.04,11.66L21.30,11.83L22.42,11.95L23.37,12.05L24.04,12.11L23.92,13.55L23.79,15.12L23.73,15.80L23.63,16.96L23.62,16.96L22.79,16.88L21.72,16.78L21.19,16.71L19.70,16.53L18.53,16.36L17.93,16.28L17.64,16.22L17.53,16.86L17.47,16.82L17.34,16.52L17.25,16.51L17.11,16.69L16.84,16.63L16.62,16.64L16.49,16.57L16.31,16.65L16.11,16.58L15.94,16.70L15.85,16.58L15.81,16.20L15.58,16.06L15.60,15.80L15.51,15.69L15.42,15.43L15.42,15.09L15.31,14.95L15.00,15.16L14.83,15.03L14.87,14.83L15.01,14.56L14.96,14.47L15.09,14.05L15.24,13.76L15.05,13.72L14.89,13.57L14.78,13.39L14.56,12.86L14.45,12.81L14.28,12.61L14.34,12.27L14.27,12.18L14.16,11.86Z"></path><path class="statelist-minimap-background statelist-minimap-background-ok" d="M23.80,26.84L24.72,26.92L25.87,26.98L27.54,27.05L29.15,27.09L30.77,27.10L31.90,27.09L31.90,27.70L32.11,29.09L32.10,30.00L32.09,31.23L31.73,31.10L31.59,30.97L31.34,30.84L31.28,30.94L31.12,30.95L31.01,30.88L30.74,30.96L30.41,31.00L30.20,31.17L29.96,31.00L29.70,30.98L29.60,30.85L29.35,31.02L29.11,31.00L28.88,30.79L28.68,30.96L28.61,30.78L28.47,30.77L28.46,30.64L28.19,30.57L28.08,30.68L27.98,30.58L27.81,30.59L27.62,30.50L27.36,30.47L27.28,30.26L26.98,30.22L26.86,30.25L26.64,30.00L26.57,30.02L26.63,28.71L26.67,27.63L25.09,27.55L23.75,27.46Z"></path><path class="statelist-minimap-background statelist-minimap-background-sc" d="M43.32,28.69L43.96,28.35L45.31,28.21L45.43,28.25L45.61,28.43L45.62,28.57L46.72,28.41L48.05,29.36L47.84,29.50L47.70,29.69L47.56,30.02L47.53,30.33L47.42,30.54L47.22,30.67L46.96,30.95L46.86,31.13L46.71,31.19L46.54,31.34L46.41,31.34L46.45,31.55L46.32,31.63L46.07,31.97L45.83,31.91L45.76,31.65L45.68,31.50L45.44,31.36L45.38,31.09L45.26,30.88L44.98,30.75L44.77,30.55L44.75,30.40L44.49,30.25L44.29,30.02L44.04,29.90L43.85,29.68L43.63,29.31L43.46,29.31L43.14,29.11L43.14,28.98Z"></path><path class="statelist-minimap-background statelist-minimap-background-sd" d="M23.62,16.96L23.63,16.96L23.73,15.80L25.39,15.93L26.51,15.99L27.60,16.04L29.05,16.09L30.08,16.10L30.06,16.25L29.86,16.45L29.95,16.71L30.17,16.87L30.17,17.81L30.16,19.08L30.10,19.23L30.10,19.43L30.17,19.56L30.01,19.97L30.16,20.32L30.01,20.30L29.94,20.12L29.55,19.97L29.46,19.88L29.04,19.88L28.91,19.85L28.82,19.97L28.39,19.76L28.34,19.67L26.83,19.62L26.12,19.59L25.16,19.53L24.34,19.47L23.41,19.40L23.54,17.87Z"></path><path class="statelist-minimap-background statelist-minimap-background-ut" d="M14.39,19.40L14.59,19.44L16.11,19.70L17.05,19.86L16.86,21.08L18.06,21.26L18.67,21.34L18.47,22.72L18.35,23.63L18.20,24.67L18.19,24.81L17.99,26.23L17.08,26.10L15.86,25.91L14.25,25.63L13.22,25.44L13.43,24.37L13.69,23.01L14.02,21.33L14.21,20.35Z"></path><path class="statelist-minimap-background statelist-minimap-background-wa" d="M8.65,9.61L8.78,9.63L8.92,9.55L9.03,9.74L8.85,10.00L8.66,9.84ZM13.63,10.50L13.29,11.99L12.94,13.57L12.90,13.63L12.97,13.87L12.93,14.09L11.22,13.67L11.08,13.72L10.78,13.68L10.35,13.68L10.12,13.74L9.87,13.71L9.81,13.64L9.38,13.65L9.03,13.45L8.80,13.41L8.37,13.50L8.08,13.33L8.00,13.22L8.06,12.88L8.03,12.71L7.89,12.54L7.74,12.55L7.57,12.35L7.46,12.26L7.29,12.30L7.14,12.21L7.30,11.67L7.37,10.99L7.33,10.89L7.38,10.48L7.27,10.10L7.30,9.87L7.44,9.61L7.83,10.00L8.63,10.35L8.84,10.34L9.09,9.85L9.13,9.34L9.92,9.57L11.29,9.94L12.20,10.17Z"></path><path class="statelist-minimap-background statelist-minimap-background-wv" d="M43.23,24.45L43.47,24.38L43.50,24.19L43.59,24.16L43.52,23.93L43.67,23.62L43.79,23.73L43.89,23.65L43.84,23.53L43.93,23.28L44.11,23.08L44.22,23.15L44.40,22.99L44.62,22.62L44.61,22.37L44.72,21.87L44.60,21.54L44.73,21.45L44.91,22.56L45.87,22.41L45.97,23.03L46.13,22.87L46.28,22.64L46.41,22.61L46.53,22.39L46.61,22.48L46.84,22.47L46.89,22.34L47.16,22.23L47.41,22.29L47.57,22.59L47.51,22.84L46.96,22.53L46.97,22.91L46.87,23.12L46.70,23.29L46.64,23.47L46.50,23.40L46.45,23.63L46.32,23.96L46.14,23.94L45.95,23.81L45.89,24.21L45.78,24.34L45.76,24.52L45.59,24.82L45.53,25.01L45.56,25.19L45.42,25.35L45.33,25.30L45.01,25.57L44.74,25.70L44.59,25.59L44.42,25.78L44.31,25.81L44.13,25.73L43.97,25.54L43.97,25.44L43.88,25.44L43.63,25.30L43.41,25.05L43.42,24.97L43.25,24.80Z"></path><path class="statelist-minimap-background statelist-minimap-background-wy" d="M23.62,16.96L23.54,17.87L23.41,19.40L23.33,20.32L23.20,21.85L22.48,21.79L21.26,21.66L20.19,21.53L18.67,21.34L18.06,21.26L16.86,21.08L17.05,19.86L17.31,18.26L17.53,16.86L17.64,16.22L17.93,16.28L18.53,16.36L19.70,16.53L21.19,16.71L21.72,16.78L22.79,16.88Z"></path><path class="statelist-minimap-background statelist-minimap-background-de" d="M49.56,21.57L49.47,21.81L49.53,21.96L49.51,22.04L49.70,22.22L49.77,22.47L49.89,22.62L50.12,22.72L50.25,23.12L49.65,23.24L49.23,21.74L49.41,21.56Z"></path><path class="statelist-minimap-background statelist-minimap-background-ri" d="M52.30,18.99L52.33,18.86L52.14,18.16L52.50,18.05L52.62,18.32L52.83,18.42L52.89,18.61L52.64,18.73L52.62,18.84Z"></path><path class="statelist-minimap-background statelist-minimap-background-al" d="M38.30,29.25L38.88,29.19L39.69,29.13L40.86,29.01L41.15,30.05L41.57,31.56L41.72,31.89L41.84,32.05L41.83,32.19L41.95,32.26L41.80,32.43L41.81,32.64L41.76,32.81L41.79,32.98L41.90,33.15L41.88,33.60L42.02,33.81L41.09,33.93L39.32,34.09L39.30,34.26L39.57,34.49L39.54,34.88L39.48,34.96L39.17,35.05L39.19,34.93L39.03,34.74L39.01,34.54L38.88,34.57L38.83,34.97L38.55,34.93L38.44,34.02L38.33,33.03L38.36,31.48L38.38,30.40L38.40,29.37Z"></path><path class="statelist-minimap-background statelist-minimap-background-nd" d="M24.04,12.11L25.52,12.22L26.40,12.27L27.39,12.32L28.23,12.35L29.56,12.38L29.66,12.78L29.62,12.94L29.62,13.38L29.86,14.11L29.88,14.71L29.92,14.91L29.89,15.25L29.96,15.49L30.05,15.64L30.08,16.10L29.05,16.09L27.60,16.04L26.51,15.99L25.39,15.93L23.73,15.80L23.79,15.12L23.92,13.55Z"></path><path class="statelist-minimap-background statelist-minimap-background-pa" d="M44.46,19.82L44.62,19.72L45.07,19.36L45.13,19.68L45.75,19.58L46.84,19.37L48.05,19.13L49.04,18.92L49.14,19.04L49.28,19.06L49.42,19.37L49.49,19.45L49.73,19.48L49.78,19.56L49.69,19.66L49.65,19.84L49.50,20.10L49.58,20.20L49.52,20.37L49.56,20.60L49.66,20.61L49.72,20.76L50.09,21.01L49.77,21.34L49.79,21.40L49.56,21.57L49.41,21.56L49.23,21.74L47.71,22.06L46.87,22.22L45.87,22.41L44.91,22.56L44.73,21.45Z"></path><path class="statelist-minimap-background statelist-minimap-background-vt" d="M49.92,14.92L50.75,14.72L51.46,14.52L51.50,14.64L51.44,14.87L51.54,14.99L51.55,15.15L51.40,15.38L51.22,15.50L51.29,15.72L51.26,16.10L51.16,16.42L51.28,17.11L51.21,17.19L51.25,17.37L51.35,17.45L50.64,17.60L50.61,17.50L50.44,16.65L50.25,16.54L50.28,16.40L50.12,16.09L50.16,15.81L50.13,15.58L49.99,15.39L49.99,15.16Z"></path><path class="statelist-minimap-background statelist-minimap-background-pr"></path><path class="statelist-minimap-background statelist-minimap-background-ks" d="M24.96,23.21L25.87,23.27L27.03,23.32L28.64,23.37L30.13,23.39L31.20,23.39L31.41,23.56L31.53,23.51L31.62,23.70L31.39,23.94L31.69,24.36L31.87,24.48L31.88,25.56L31.90,27.09L30.77,27.10L29.15,27.09L27.54,27.05L25.87,26.98L24.72,26.92L24.78,26.00L24.86,24.82Z"></path><path class="statelist-minimap-background statelist-minimap-background-nv" d="M9.15,18.22L10.22,18.49L11.76,18.84L12.78,19.07L14.39,19.40L14.21,20.35L14.02,21.33L13.69,23.01L13.43,24.37L13.22,25.44L13.04,26.42L12.90,26.60L12.75,26.53L12.72,26.42L12.36,26.40L12.27,27.20L12.28,27.60L12.19,27.75L11.41,26.58L10.77,25.62L9.89,24.29L8.98,22.91L8.23,21.80L8.53,20.65L8.90,19.19Z"></path><path class="statelist-minimap-background statelist-minimap-background-nh" d="M51.46,14.52L51.48,14.28L51.55,14.13L51.72,14.09L51.94,14.75L52.36,16.11L52.41,16.35L52.75,16.66L52.72,16.91L52.45,17.05L52.36,17.22L51.35,17.45L51.25,17.37L51.21,17.19L51.28,17.11L51.16,16.42L51.26,16.10L51.29,15.72L51.22,15.50L51.40,15.38L51.55,15.15L51.54,14.99L51.44,14.87L51.50,14.64Z"></path><path class="statelist-minimap-background statelist-minimap-background-nj" d="M49.56,21.57L49.79,21.40L49.77,21.34L50.09,21.01L49.72,20.76L49.66,20.61L49.56,20.60L49.52,20.37L49.58,20.20L49.50,20.10L49.65,19.84L49.69,19.66L49.78,19.56L50.60,19.82L50.52,20.28L50.43,20.33L50.41,20.50L50.71,20.62L50.76,21.36L50.59,21.90L50.41,22.12L50.29,22.50L50.22,22.26L49.85,22.16L49.53,21.96L49.47,21.81Z"></path><path class="statelist-minimap-highlight statelist-minimap-highlight-ca" d="M7.91,28.74L8.02,28.74L8.18,28.95L7.99,28.94ZM6.79,27.71L7.33,27.86L7.28,27.92L6.95,27.88ZM6.35,27.58L6.65,27.70L6.54,27.86L6.33,27.68ZM5.50,17.19L5.98,17.34L6.98,17.61L8.25,17.98L9.15,18.22L8.90,19.19L8.53,20.65L8.23,21.80L8.98,22.91L9.89,24.29L10.77,25.62L11.41,26.58L12.19,27.75L12.16,27.91L12.28,28.16L12.35,28.48L12.48,28.63L12.50,28.74L12.17,28.89L12.03,29.07L12.02,29.33L11.95,29.52L11.73,29.70L11.68,30.11L11.84,30.16L11.84,30.39L11.71,30.49L11.56,30.49L10.80,30.40L9.10,30.20L9.11,30.10L9.03,29.80L9.08,29.59L8.99,29.25L8.83,28.99L8.44,28.51L8.31,28.54L8.18,28.47L8.20,28.29L8.14,28.09L7.85,28.05L7.59,27.87L7.48,27.64L7.33,27.45L7.19,27.35L6.94,27.31L6.70,27.16L6.39,27.11L6.25,26.91L6.37,26.58L6.32,26.51L6.43,26.26L6.21,26.05L6.29,25.84L6.19,25.77L6.08,25.52L6.00,25.45L5.77,24.75L5.62,24.54L5.64,24.18L5.75,24.18L5.88,23.95L5.82,23.74L5.63,23.70L5.44,23.35L5.49,23.17L5.45,22.92L5.53,22.63L5.65,22.62L5.61,22.88L5.76,23.04L5.82,22.84L5.72,22.68L5.75,22.51L5.86,22.36L5.77,22.22L5.53,22.55L5.23,22.21L5.27,21.88L5.18,21.62L5.06,21.47L5.01,21.28L4.84,20.96L4.89,20.83L4.89,20.40L5.02,20.18L5.04,19.83L4.92,19.48L4.74,19.19L4.76,18.97L5.22,18.40L5.23,18.21L5.43,17.88L5.45,17.52L5.40,17.42Z"></path><path class="statelist-minimap-highlight statelist-minimap-highlight-dc" d="M48.22,22.95L48.42,22.96L48.32,23.11Z"></path><path class="statelist-minimap-highlight statelist-minimap-highlight-fl" d="M46.48,41.11L46.54,41.00L46.85,40.75L47.10,40.88L46.88,40.96L46.63,41.10ZM42.02,33.81L42.20,34.15L44.02,34.02L44.98,33.96L45.05,34.19L45.20,34.17L45.13,33.71L45.22,33.60L45.45,33.66L45.76,33.67L45.87,34.11L46.12,34.76L46.55,35.48L47.06,36.07L47.15,36.23L47.09,36.39L47.21,36.73L47.44,37.07L47.98,38.06L48.05,38.41L48.07,39.00L48.13,39.32L47.95,39.60L47.99,39.87L47.98,40.15L47.72,40.55L47.50,40.61L47.82,40.25L47.82,40.13L47.48,40.20L47.19,40.33L47.07,40.19L47.07,40.00L46.86,39.70L46.74,39.59L46.46,39.49L46.34,39.50L46.13,39.01L46.03,38.89L45.86,38.94L45.74,38.89L45.60,38.56L45.21,38.01L45.02,37.81L45.16,37.46L45.10,37.29L44.97,37.59L44.78,37.34L44.71,36.95L44.80,36.85L44.87,36.47L44.74,36.12L44.77,36.04L44.60,35.83L44.19,35.65L44.10,35.49L43.91,35.40L43.88,35.22L43.74,35.17L43.56,34.96L43.13,34.79L42.90,34.87L42.65,35.21L42.44,35.38L42.17,35.53L41.93,35.45L41.84,35.48L41.75,35.27L41.77,35.17L41.08,34.82L40.83,34.75L40.40,34.73L40.17,34.77L39.48,34.96L39.54,34.88L39.57,34.49L39.30,34.26L39.32,34.09L41.09,33.93Z"></path><path class="statelist-minimap-highlight statelist-minimap-highlight-ga" d="M40.86,29.01L42.12,28.86L42.81,28.78L43.32,28.69L43.14,28.98L43.14,29.11L43.46,29.31L43.63,29.31L43.85,29.68L44.04,29.90L44.29,30.02L44.49,30.25L44.75,30.40L44.77,30.55L44.98,30.75L45.26,30.88L45.38,31.09L45.44,31.36L45.68,31.50L45.76,31.65L45.83,31.91L46.07,31.97L46.12,32.02L45.89,32.39L45.90,32.51L45.81,32.79L45.80,33.04L45.72,33.16L45.76,33.67L45.45,33.66L45.22,33.60L45.13,33.71L45.20,34.17L45.05,34.19L44.98,33.96L44.02,34.02L42.20,34.15L42.02,33.81L41.88,33.60L41.90,33.15L41.79,32.98L41.76,32.81L41.81,32.64L41.80,32.43L41.95,32.26L41.83,32.19L41.84,32.05L41.72,31.89L41.57,31.56L41.15,30.05Z"></path><path class="statelist-minimap-highlight statelist-minimap-highlight-id" d="M12.93,14.09L12.97,13.87L12.90,13.63L12.94,13.57L13.29,11.99L13.63,10.50L14.41,10.67L14.16,11.86L14.27,12.18L14.34,12.27L14.28,12.61L14.45,12.81L14.56,12.86L14.78,13.39L14.89,13.57L15.05,13.72L15.24,13.76L15.09,14.05L14.96,14.47L15.01,14.56L14.87,14.83L14.83,15.03L15.00,15.16L15.31,14.95L15.42,15.09L15.42,15.43L15.51,15.69L15.60,15.80L15.58,16.06L15.81,16.20L15.85,16.58L15.94,16.70L16.11,16.58L16.31,16.65L16.49,16.57L16.62,16.64L16.84,16.63L17.11,16.69L17.25,16.51L17.34,16.52L17.47,16.82L17.53,16.86L17.31,18.26L17.05,19.86L16.11,19.70L14.59,19.44L14.39,19.40L12.78,19.07L11.76,18.84L12.04,17.61L12.26,16.65L12.45,16.29L12.22,15.93L12.47,15.57L12.59,15.52L12.71,15.37L12.95,14.94L13.21,14.62L13.14,14.40L12.99,14.29Z"></path><path class="statelist-minimap-highlight statelist-minimap-highlight-il" d="M34.78,22.83L34.84,22.53L35.04,22.45L35.06,22.26L35.18,22.09L35.16,21.90L35.01,21.74L35.08,21.52L35.38,21.47L35.69,21.27L35.71,21.09L35.82,21.00L35.81,20.64L35.56,20.44L35.54,20.34L35.35,20.17L37.08,20.07L37.89,20.01L37.88,20.24L38.04,20.51L38.22,20.95L38.35,22.39L38.47,23.84L38.42,24.16L38.52,24.31L38.57,24.57L38.31,25.15L38.18,25.25L38.23,25.35L38.15,25.50L38.17,25.79L38.06,25.98L38.17,26.17L37.79,26.31L37.76,26.45L37.86,26.62L37.82,26.72L37.37,26.56L37.15,26.77L37.20,26.88L36.97,26.82L36.81,26.48L36.87,26.37L36.78,26.23L36.76,26.02L36.43,25.79L36.06,25.58L35.91,25.41L35.90,25.30L36.05,24.94L36.02,24.80L36.11,24.64L35.76,24.52L35.59,24.58L35.50,24.17L35.20,23.95L35.13,23.85L34.87,23.62L34.80,23.48L34.71,23.09Z"></path><path class="statelist-minimap-highlight statelist-minimap-highlight-ia" d="M30.16,19.08L31.57,19.08L32.35,19.07L33.69,19.03L34.78,18.98L34.80,19.13L34.93,19.28L34.84,19.43L34.89,19.71L35.07,19.97L35.29,20.03L35.35,20.17L35.54,20.34L35.56,20.44L35.81,20.64L35.82,21.00L35.71,21.09L35.69,21.27L35.38,21.47L35.08,21.52L35.01,21.74L35.16,21.90L35.18,22.09L35.06,22.26L35.04,22.45L34.84,22.53L34.78,22.83L34.71,22.80L34.49,22.55L33.20,22.63L31.91,22.68L30.78,22.67L30.67,22.49L30.73,22.30L30.69,22.14L30.69,21.93L30.63,21.60L30.45,21.41L30.50,21.19L30.25,20.72L30.16,20.32L30.01,19.97L30.17,19.56L30.10,19.43L30.10,19.23Z"></path><path class="statelist-minimap-highlight statelist-minimap-highlight-ky" d="M37.20,26.88L37.15,26.77L37.37,26.56L37.82,26.72L37.86,26.62L37.76,26.45L37.79,26.31L38.17,26.17L38.06,25.98L38.17,25.79L38.31,25.63L38.55,25.69L38.74,25.56L38.98,25.66L39.31,25.44L39.41,25.56L39.61,25.53L39.58,25.36L39.75,25.21L39.88,25.35L40.05,25.40L40.15,25.32L40.22,24.99L40.34,24.96L40.41,24.76L40.56,24.63L40.50,24.43L40.66,24.38L40.75,24.43L40.95,24.29L41.09,24.27L41.10,24.15L40.97,23.96L41.03,23.88L41.24,23.89L41.37,23.82L41.51,23.92L41.65,24.18L41.99,24.20L42.17,24.33L42.30,24.22L42.55,24.32L42.89,24.08L42.96,24.26L43.08,24.30L43.23,24.45L43.25,24.80L43.42,24.97L43.41,25.05L43.63,25.30L43.88,25.44L43.97,25.44L43.66,25.82L43.33,26.06L43.20,26.37L43.04,26.43L43.00,26.57L42.50,26.81L42.49,26.84L41.43,26.94L40.94,26.97L40.38,27.03L39.76,27.06L38.46,27.21L38.25,27.17L38.28,27.39L36.84,27.50L37.04,27.33L37.19,27.27Z"></path><path class="statelist-minimap-highlight statelist-minimap-highlight-la" d="M32.55,31.98L34.40,31.94L35.48,31.89L35.58,31.97L35.55,32.21L35.63,32.58L35.77,32.69L35.67,32.99L35.54,33.22L35.36,33.38L35.29,33.70L35.21,33.76L35.20,33.95L35.10,34.09L35.19,34.31L35.11,34.37L36.03,34.33L37.10,34.26L37.01,34.60L37.07,34.81L37.16,34.90L37.29,35.21L37.39,35.25L37.06,35.47L37.22,35.64L37.48,35.39L37.75,35.36L37.71,35.60L37.55,35.74L37.55,35.85L37.35,35.95L37.50,36.19L37.80,36.25L38.02,36.44L37.88,36.62L37.65,36.59L37.51,36.42L37.34,36.34L37.12,36.32L36.73,36.63L36.50,36.68L36.05,36.71L35.96,36.58L35.60,36.50L35.46,36.20L35.31,36.16L35.15,35.91L34.96,35.97L35.11,36.13L35.01,36.25L34.74,36.12L34.47,36.20L34.08,36.12L33.55,35.94L33.17,35.96L32.86,36.05L32.76,35.92L32.99,35.60L32.98,35.15L32.95,35.01L33.04,34.84L33.14,34.53L33.13,34.22L32.98,34.08L32.98,33.99L32.80,33.73L32.83,33.59L32.72,33.36L32.58,33.24Z"></path><path class="statelist-minimap-highlight statelist-minimap-highlight-md" d="M45.87,22.41L46.87,22.22L47.71,22.06L49.23,21.74L49.65,23.24L50.25,23.12L50.19,23.67L49.84,23.79L49.81,23.85L49.59,23.87L49.53,23.55L49.21,23.54L49.05,23.33L49.01,23.10L48.94,22.98L48.91,22.80L48.99,22.59L48.94,22.53L48.99,22.19L48.79,22.49L48.83,22.81L48.78,23.06L48.87,23.31L49.02,23.47L49.06,23.65L49.01,23.81L48.89,23.72L48.62,23.70L48.43,23.52L48.27,23.63L48.19,23.45L48.28,23.31L48.32,23.11L48.42,22.96L48.22,22.95L48.01,22.84L47.87,22.84L47.83,22.67L47.57,22.59L47.41,22.29L47.16,22.23L46.89,22.34L46.84,22.47L46.61,22.48L46.53,22.39L46.41,22.61L46.28,22.64L46.13,22.87L45.97,23.03Z"></path><path class="statelist-minimap-highlight statelist-minimap-highlight-mi" d="M39.33,15.87L39.47,15.74L39.61,15.74L39.52,16.02L39.42,16.05ZM41.88,20.51L40.67,20.71L40.66,20.63L39.78,20.73L38.85,20.83L39.04,20.61L39.21,20.18L39.28,19.82L39.28,19.54L39.19,19.15L39.03,18.86L38.87,18.50L38.95,18.24L38.85,17.99L39.03,17.62L39.04,17.34L39.00,17.18L39.13,17.12L39.14,16.91L39.36,16.80L39.47,16.55L39.59,16.78L39.70,16.68L39.67,16.41L39.93,16.17L39.85,16.02L40.04,15.77L40.16,15.73L40.40,15.85L40.62,15.86L40.73,16.00L40.89,15.99L41.37,16.19L41.51,16.48L41.49,16.66L41.56,16.89L41.56,17.33L41.41,17.44L41.40,17.69L41.16,17.84L41.13,18.13L41.38,18.27L41.51,18.08L41.57,17.84L41.96,17.60L42.08,17.64L42.26,17.86L42.41,18.34L42.46,18.58L42.59,18.83L42.57,19.29L42.28,19.45L42.25,19.69L42.11,19.79L42.11,20.04L41.88,20.42ZM36.15,13.51L36.61,13.18L36.67,13.31L36.45,13.42L36.42,13.50L36.21,13.60ZM35.26,15.20L35.57,15.05L35.74,14.88L36.08,14.81L36.30,14.62L36.45,14.58L36.50,14.46L36.74,14.27L36.87,14.11L37.02,14.00L37.26,13.94L37.26,14.12L37.07,14.29L36.88,14.65L36.95,14.71L37.13,14.58L37.34,14.63L37.61,14.76L37.83,15.08L38.16,15.02L38.31,15.10L38.39,14.97L38.51,15.04L38.84,14.78L39.39,14.71L39.57,14.60L39.77,14.67L39.85,14.90L40.56,14.77L40.61,15.19L40.82,15.32L40.87,15.23L41.06,15.23L41.14,15.43L40.67,15.43L40.43,15.51L40.21,15.51L40.08,15.64L39.88,15.48L39.76,15.44L39.42,15.44L39.31,15.60L39.13,15.67L38.99,15.63L38.82,15.68L38.77,15.81L38.62,15.98L38.41,15.87L38.27,16.06L38.09,16.09L37.80,16.81L37.66,16.70L37.71,16.48L37.54,16.52L37.57,16.12L37.48,16.03L37.26,15.97L37.26,15.84L36.90,15.75L36.66,15.77L36.41,15.64L35.53,15.46L35.44,15.27Z"></path><path class="statelist-minimap-highlight statelist-minimap-highlight-mn" d="M29.56,12.38L30.23,12.38L31.25,12.38L31.24,11.92L31.52,11.99L31.63,12.52L31.62,12.63L31.83,12.75L32.32,12.81L32.35,12.94L32.63,12.91L32.84,12.78L33.05,12.79L33.41,13.00L33.54,13.27L33.62,13.10L33.80,13.09L33.86,13.22L34.08,13.27L34.23,13.44L34.47,13.40L34.79,13.19L34.92,13.36L35.38,13.31L35.61,13.44L35.54,13.64L35.08,13.83L34.82,14.02L34.60,14.24L34.35,14.55L33.87,14.98L33.91,15.10L33.68,15.16L33.71,15.88L33.35,16.12L33.23,16.33L33.23,16.50L33.33,16.52L33.44,16.66L33.34,16.85L33.37,17.27L33.32,17.48L33.56,17.71L33.77,17.75L33.84,17.86L34.08,17.95L34.15,18.11L34.44,18.35L34.55,18.38L34.74,18.65L34.78,18.98L33.69,19.03L32.35,19.07L31.57,19.08L30.16,19.08L30.17,17.81L30.17,16.87L29.95,16.71L29.86,16.45L30.06,16.25L30.08,16.10L30.05,15.64L29.96,15.49L29.89,15.25L29.92,14.91L29.88,14.71L29.86,14.11L29.62,13.38L29.62,12.94L29.66,12.78Z"></path><path class="statelist-minimap-highlight statelist-minimap-highlight-mo" d="M30.78,22.67L31.91,22.68L33.20,22.63L34.49,22.55L34.71,22.80L34.78,22.83L34.71,23.09L34.80,23.48L34.87,23.62L35.13,23.85L35.20,23.95L35.50,24.17L35.59,24.58L35.76,24.52L36.11,24.64L36.02,24.80L36.05,24.94L35.90,25.30L35.91,25.41L36.06,25.58L36.43,25.79L36.76,26.02L36.78,26.23L36.87,26.37L36.81,26.48L36.97,26.82L37.20,26.88L37.19,27.27L37.04,27.33L36.84,27.50L36.87,27.69L36.69,28.12L36.07,28.17L36.14,28.02L36.35,27.77L36.24,27.54L35.30,27.59L34.11,27.64L32.54,27.69L31.90,27.70L31.90,27.09L31.88,25.56L31.87,24.48L31.69,24.36L31.39,23.94L31.62,23.70L31.53,23.51L31.41,23.56L31.20,23.39L31.05,23.10L30.88,23.00Z"></path><path class="statelist-minimap-highlight statelist-minimap-highlight-ny" d="M45.07,19.36L45.56,18.90L45.61,18.74L45.76,18.58L45.68,18.42L45.50,18.27L45.47,18.05L45.90,17.84L46.25,17.76L46.59,17.74L46.80,17.83L46.97,17.74L47.31,17.69L47.52,17.54L47.71,17.29L47.86,17.24L47.80,16.91L47.61,16.80L47.65,16.45L47.90,16.21L48.01,15.97L48.35,15.47L48.67,15.21L49.18,15.12L49.92,14.92L49.99,15.16L49.99,15.39L50.13,15.58L50.16,15.81L50.12,16.09L50.28,16.40L50.25,16.54L50.44,16.65L50.61,17.50L50.64,17.60L50.62,18.44L50.65,18.48L50.81,19.39L50.90,19.48L50.72,19.66L50.81,19.79L50.79,19.94L51.05,19.77L51.21,19.79L51.30,19.69L51.76,19.54L51.92,19.32L52.01,19.39L52.33,19.38L51.47,20.01L51.06,20.22L50.82,20.29L50.68,20.38L50.56,20.34L50.41,20.50L50.43,20.33L50.52,20.28L50.60,19.82L49.78,19.56L49.73,19.48L49.49,19.45L49.42,19.37L49.28,19.06L49.14,19.04L49.04,18.92L48.05,19.13L46.84,19.37L45.75,19.58L45.13,19.68Z"></path><path class="statelist-minimap-highlight statelist-minimap-highlight-or" d="M7.57,12.35L7.74,12.55L7.89,12.54L8.03,12.71L8.06,12.88L8.00,13.22L8.08,13.33L8.37,13.50L8.80,13.41L9.03,13.45L9.38,13.65L9.81,13.64L9.87,13.71L10.12,13.74L10.35,13.68L10.78,13.68L11.08,13.72L11.22,13.67L12.93,14.09L12.99,14.29L13.14,14.40L13.21,14.62L12.95,14.94L12.71,15.37L12.59,15.52L12.47,15.57L12.22,15.93L12.45,16.29L12.26,16.65L12.04,17.61L11.76,18.84L10.22,18.49L9.15,18.22L8.25,17.98L6.98,17.61L5.98,17.34L5.50,17.19L5.44,17.08L5.42,16.84L5.56,16.36L5.51,16.10L5.62,15.99L5.81,15.65L6.04,15.35L6.24,14.95L6.57,14.13L6.62,13.93L6.82,13.55L6.94,13.15L7.05,12.90L7.19,12.39Z"></path><path class="statelist-minimap-highlight statelist-minimap-highlight-tn" d="M36.69,28.12L36.87,27.69L36.84,27.50L38.28,27.39L38.25,27.17L38.46,27.21L39.76,27.06L40.38,27.03L40.94,26.97L41.43,26.94L42.49,26.84L42.50,26.81L43.31,26.71L44.42,26.56L44.41,26.78L44.25,26.94L44.17,27.17L43.99,27.15L43.81,27.27L43.69,27.45L43.60,27.33L43.47,27.44L43.31,27.72L43.14,27.77L42.84,28.06L42.57,28.09L42.35,28.31L42.30,28.52L42.12,28.57L42.12,28.86L40.86,29.01L39.69,29.13L38.88,29.19L38.30,29.25L37.07,29.34L36.20,29.40L36.41,29.23L36.37,29.01L36.51,28.70L36.50,28.51L36.72,28.36L36.78,28.22Z"></path><path class="statelist-minimap-highlight statelist-minimap-highlight-tx" d="M23.75,27.46L25.09,27.55L26.67,27.63L26.63,28.71L26.57,30.02L26.64,30.00L26.86,30.25L26.98,30.22L27.28,30.26L27.36,30.47L27.62,30.50L27.81,30.59L27.98,30.58L28.08,30.68L28.19,30.57L28.46,30.64L28.47,30.77L28.61,30.78L28.68,30.96L28.88,30.79L29.11,31.00L29.35,31.02L29.60,30.85L29.70,30.98L29.96,31.00L30.20,31.17L30.41,31.00L30.74,30.96L31.01,30.88L31.12,30.95L31.28,30.94L31.34,30.84L31.59,30.97L31.73,31.10L32.09,31.23L32.22,31.32L32.40,31.28L32.54,31.32L32.55,31.98L32.58,33.24L32.72,33.36L32.83,33.59L32.80,33.73L32.98,33.99L32.98,34.08L33.13,34.22L33.14,34.53L33.04,34.84L32.95,35.01L32.98,35.15L32.99,35.60L32.76,35.92L32.86,36.05L32.62,36.08L32.06,36.34L31.92,36.51L31.60,36.74L31.22,37.08L30.35,37.53L30.09,37.75L29.88,37.87L29.60,38.10L29.32,38.48L29.15,38.83L29.05,39.28L29.11,39.71L29.24,40.19L29.29,40.60L29.08,40.65L28.98,40.75L28.74,40.55L28.57,40.48L28.13,40.47L27.86,40.30L27.63,40.24L27.46,40.08L27.13,40.00L26.98,39.49L26.79,39.26L26.81,39.10L26.71,38.91L26.76,38.79L26.69,38.54L26.54,38.48L26.39,38.32L26.31,38.09L26.16,37.90L25.95,37.73L25.83,37.33L25.73,37.22L25.70,37.04L25.61,36.92L25.57,36.68L25.18,36.22L24.98,36.13L24.84,35.86L24.67,35.78L24.57,35.81L24.24,35.74L24.13,35.76L23.90,35.63L23.79,35.76L23.49,35.77L23.33,36.03L23.24,36.36L23.00,36.54L22.94,36.66L22.78,36.65L22.26,36.27L22.07,36.20L21.90,36.08L21.51,35.69L21.40,35.39L21.40,35.02L21.26,34.79L21.24,34.61L21.14,34.43L20.83,34.22L20.60,33.99L20.54,33.85L20.40,33.75L20.24,33.49L20.02,33.35L19.81,32.96L19.70,32.91L19.60,32.79L19.64,32.64L20.27,32.71L21.66,32.84L23.29,32.98L23.36,31.94L23.50,30.43L23.60,29.08L23.72,27.46Z"></path><path class="statelist-minimap-highlight statelist-minimap-highlight-va" d="M49.81,23.85L49.84,23.79L50.19,23.67L50.10,23.91L49.97,24.07L49.95,24.45L49.87,24.80L49.74,24.94L49.65,24.72L49.66,24.38L49.71,24.08ZM43.97,25.44L43.97,25.54L44.13,25.73L44.31,25.81L44.42,25.78L44.59,25.59L44.74,25.70L45.01,25.57L45.33,25.30L45.42,25.35L45.56,25.19L45.53,25.01L45.59,24.82L45.76,24.52L45.78,24.34L45.89,24.21L45.95,23.81L46.14,23.94L46.32,23.96L46.45,23.63L46.50,23.40L46.64,23.47L46.70,23.29L46.87,23.12L46.97,22.91L46.96,22.53L47.51,22.84L47.57,22.59L47.83,22.67L47.87,22.84L48.01,22.84L48.22,22.95L48.32,23.11L48.28,23.31L48.17,23.34L48.14,23.55L48.23,23.70L48.42,23.63L48.54,23.79L48.88,23.80L49.10,23.97L49.29,24.04L49.26,24.32L49.40,24.61L49.41,24.75L49.32,24.87L49.47,25.02L49.50,25.16L49.77,25.16L49.99,25.58L48.99,25.80L47.47,26.10L46.51,26.27L45.76,26.40L44.42,26.56L43.31,26.71L42.50,26.81L43.00,26.57L43.04,26.43L43.20,26.37L43.33,26.06L43.66,25.82Z"></path><path class="statelist-minimap-highlight statelist-minimap-highlight-wi" d="M33.91,15.10L34.08,15.11L34.61,14.89L34.81,14.69L34.96,14.81L34.86,15.01L34.98,15.12L35.26,15.20L35.44,15.27L35.53,15.46L36.41,15.64L36.66,15.77L36.90,15.75L37.26,15.84L37.26,15.97L37.48,16.03L37.57,16.12L37.54,16.52L37.71,16.48L37.66,16.70L37.80,16.81L37.77,16.96L37.62,17.00L37.50,17.30L37.50,17.43L37.69,17.38L37.83,17.11L37.94,17.06L38.08,16.80L38.25,16.79L37.98,17.42L37.92,17.75L37.97,17.89L37.85,18.05L37.80,18.31L37.85,18.55L37.73,19.02L37.75,19.37L37.89,19.65L37.89,20.01L37.08,20.07L35.35,20.17L35.29,20.03L35.07,19.97L34.89,19.71L34.84,19.43L34.93,19.28L34.80,19.13L34.78,18.98L34.74,18.65L34.55,18.38L34.44,18.35L34.15,18.11L34.08,17.95L33.84,17.86L33.77,17.75L33.56,17.71L33.32,17.48L33.37,17.27L33.34,16.85L33.44,16.66L33.33,16.52L33.23,16.50L33.23,16.33L33.35,16.12L33.71,15.88L33.68,15.16Z"></path><path class="statelist-minimap-highlight statelist-minimap-highlight-ak" d="M1.85,40.51L1.92,40.56L1.98,40.68L1.95,40.70L1.90,40.58ZM0.77,39.60L0.86,39.63L0.80,39.67ZM0.65,39.30L0.70,39.31L0.80,39.37L0.85,39.45L0.71,39.43L0.70,39.37ZM13.68,39.46L13.72,39.37L13.69,39.27L13.79,39.24L13.89,39.28L13.92,39.34L14.03,39.41L14.13,39.54L14.23,39.61L14.29,39.77L14.28,39.81L14.22,39.82L14.18,39.80L14.09,39.87L13.98,39.79L13.94,39.70L13.84,39.68L13.77,39.64L13.77,39.52L13.74,39.47ZM13.46,39.10L13.54,38.97L13.68,38.97L13.72,38.95L13.80,39.02L13.88,39.06L13.88,39.11L13.80,39.15L13.78,39.19L13.68,39.22L13.65,39.26L13.65,39.39L13.60,39.43L13.55,39.31L13.54,39.23L13.51,39.22ZM13.14,38.51L13.25,38.58L13.35,38.59L13.45,38.68L13.49,38.76L13.49,38.89L13.41,39.04L13.37,39.02L13.35,38.89L13.29,38.79L13.22,38.63ZM12.84,38.76L12.87,38.70L12.86,38.66L12.93,38.63L13.00,38.63L13.11,38.65L13.19,38.66L13.20,38.72L13.28,38.87L13.31,38.97L13.42,39.18L13.48,39.37L13.44,39.39L13.33,39.26L13.20,39.19L13.22,39.10L13.08,39.05L13.06,38.98L12.96,38.91L12.90,38.83L12.85,38.80ZM8.77,39.56L8.83,39.47L8.90,39.43L8.95,39.43L8.97,39.37L9.00,39.34L9.09,39.31L9.08,39.26L9.20,39.11L9.25,39.08L9.26,39.02L9.32,39.01L9.28,39.10L9.31,39.13L9.37,39.11L9.44,39.16L9.43,39.21L9.28,39.24L9.23,39.27L9.22,39.33L9.31,39.30L9.32,39.35L9.31,39.40L9.37,39.46L9.33,39.51L9.28,39.52L9.25,39.59L9.19,39.60L9.21,39.66L9.06,39.76L8.99,39.79L8.95,39.85L8.83,39.71L8.81,39.60ZM8.75,39.96L8.83,39.88L8.93,39.88L8.95,39.94L8.83,39.93ZM7.42,40.54L7.45,40.43L7.52,40.39L7.53,40.43L7.61,40.44L7.67,40.56L7.64,40.58L7.60,40.50L7.54,40.48L7.47,40.50ZM7.29,40.35L7.33,40.32L7.37,40.33L7.44,40.30L7.46,40.34L7.36,40.38L7.29,40.43ZM7.38,38.93L7.39,38.90L7.48,38.88L7.42,38.96ZM6.76,40.63L6.88,40.70L6.84,40.72L6.77,40.70ZM5.95,40.65L6.06,40.62L6.11,40.67L6.07,40.70L5.94,40.71ZM6.13,38.06L6.15,38.05L6.25,38.08L6.26,38.05L6.36,38.03L6.41,38.01L6.42,38.06L6.50,38.09L6.47,38.18L6.49,38.25L6.38,38.26L6.32,38.25L6.23,38.20L6.13,38.12ZM5.45,40.92L5.59,40.88L5.68,40.78L5.65,40.74L5.69,40.70L5.79,40.69L5.81,40.73L5.91,40.79L5.89,40.83L5.81,40.86L5.71,40.93L5.61,40.92L5.48,40.96ZM6.48,35.74L6.51,35.72L6.64,35.67L6.74,35.62L7.00,35.51L7.18,35.47L7.28,35.48L7.32,35.50L7.26,35.57L7.24,35.65L7.27,35.71L7.43,35.72L7.50,35.75L7.54,35.74L7.59,35.77L7.66,35.67L7.71,35.70L7.73,35.66L7.63,35.61L7.57,35.48L7.51,35.45L7.50,35.34L7.33,35.27L7.32,35.13L7.31,35.07L7.13,34.84L7.04,34.77L7.03,34.74L6.95,34.67L7.01,34.64L7.05,34.52L7.06,34.46L7.16,34.49L7.36,34.49L7.48,34.42L7.54,34.35L7.57,34.23L7.61,34.14L7.73,34.00L7.80,33.95L7.88,33.98L7.95,33.95L8.05,33.88L8.14,33.79L8.29,33.80L8.37,33.79L8.46,33.74L8.56,33.61L8.59,33.61L8.73,33.67L8.73,33.76L8.80,33.68L8.87,33.74L8.87,33.81L8.93,33.84L8.97,33.79L9.06,33.77L9.18,33.80L9.21,33.82L9.18,33.90L9.28,33.93L9.28,33.97L9.36,33.99L9.45,33.95L9.49,33.97L9.55,33.93L9.61,33.92L9.69,33.95L9.73,33.95L9.78,34.00L9.85,34.00L9.87,34.03L9.96,34.04L10.05,34.02L10.13,34.03L10.26,34.08L10.34,34.08L10.44,34.00L10.53,33.97L10.61,34.00L10.67,34.05L10.78,34.08L10.83,34.11L10.90,34.12L10.99,34.59L11.21,35.70L11.54,37.36L11.68,38.03L11.78,38.04L11.78,38.00L11.90,38.04L11.94,37.96L12.07,37.92L12.07,38.04L12.11,38.07L12.19,38.09L12.23,38.15L12.49,38.31L12.56,38.44L12.66,38.31L12.71,38.29L12.72,38.23L12.70,38.16L12.71,38.10L12.79,38.05L12.87,37.96L12.99,38.03L13.00,38.09L13.04,38.15L13.10,38.14L13.16,38.18L13.24,38.28L13.34,38.30L13.48,38.39L13.47,38.42L13.56,38.49L13.60,38.55L13.66,38.60L13.78,38.71L13.88,38.81L13.87,38.87L13.95,38.86L13.96,38.94L14.03,38.95L14.06,39.02L14.12,39.00L14.26,39.04L14.32,39.04L14.42,39.06L14.44,39.10L14.52,39.08L14.56,39.12L14.56,39.21L14.60,39.30L14.67,39.41L14.64,39.58L14.60,39.66L14.52,39.68L14.47,39.59L14.42,39.69L14.34,39.68L14.32,39.61L14.29,39.61L14.24,39.56L14.22,39.49L14.12,39.46L14.08,39.40L14.11,39.34L14.06,39.33L13.99,39.29L13.93,39.29L13.92,39.25L13.82,39.23L13.83,39.18L13.90,39.14L13.93,39.09L13.88,39.02L13.81,38.99L13.76,38.93L13.66,38.93L13.60,38.89L13.60,38.83L13.57,38.77L13.44,38.63L13.38,38.59L13.34,38.54L13.23,38.55L13.19,38.50L13.11,38.50L13.14,38.60L13.09,38.59L13.06,38.56L12.98,38.56L12.92,38.58L12.84,38.64L12.81,38.68L12.56,38.58L12.46,38.52L12.45,38.48L12.38,38.43L12.28,38.41L12.21,38.38L12.09,38.35L11.98,38.30L12.03,38.25L12.01,38.17L11.97,38.17L11.89,38.26L11.77,38.26L11.63,38.23L11.58,38.20L11.33,38.19L11.15,38.24L11.10,38.27L11.04,38.23L10.99,38.24L10.92,38.20L10.86,38.20L10.82,38.16L10.76,38.16L10.71,38.19L10.63,38.16L10.55,38.20L10.51,38.24L10.44,38.22L10.38,38.31L10.34,38.43L10.26,38.42L10.24,38.39L10.13,38.41L9.99,38.40L9.91,38.49L9.83,38.53L9.73,38.69L9.64,38.70L9.58,38.75L9.50,38.74L9.51,38.79L9.46,38.81L9.42,38.79L9.39,38.73L9.41,38.67L9.53,38.60L9.46,38.57L9.41,38.52L9.44,38.42L9.50,38.33L9.52,38.20L9.49,38.11L9.56,38.08L9.69,37.96L9.74,38.02L9.78,38.03L9.83,37.96L9.76,37.91L9.73,37.86L9.63,37.87L9.58,37.89L9.53,37.97L9.47,37.98L9.41,38.05L9.39,38.11L9.30,38.22L9.29,38.30L9.26,38.32L9.25,38.40L9.23,38.46L9.17,38.48L9.15,38.56L9.11,38.59L9.05,38.59L9.02,38.66L8.95,38.69L8.91,38.80L8.94,38.83L9.02,38.82L9.11,38.91L9.04,39.01L8.98,39.02L8.90,39.23L8.82,39.28L8.75,39.27L8.70,39.30L8.64,39.41L8.58,39.38L8.55,39.47L8.48,39.48L8.41,39.53L8.41,39.63L8.36,39.71L8.29,39.75L8.24,39.75L8.12,39.80L8.13,39.86L8.03,39.84L8.05,39.90L7.94,39.91L7.89,39.96L7.97,40.01L7.91,40.05L7.89,40.11L7.73,40.13L7.73,40.17L7.62,40.23L7.55,40.17L7.50,40.17L7.48,40.21L7.41,40.24L7.37,40.29L7.26,40.28L7.19,40.32L7.14,40.31L7.17,40.20L7.12,40.20L7.09,40.29L7.04,40.34L7.01,40.41L6.94,40.43L6.93,40.50L6.88,40.49L6.89,40.43L6.79,40.46L6.76,40.43L6.68,40.48L6.72,40.54L6.59,40.56L6.47,40.54L6.42,40.56L6.39,40.60L6.31,40.62L6.26,40.59L6.25,40.53L6.30,40.51L6.35,40.44L6.56,40.37L6.68,40.40L6.68,40.36L6.79,40.32L6.86,40.27L6.98,40.14L7.08,40.08L7.25,40.05L7.33,40.05L7.38,40.07L7.44,39.95L7.58,39.85L7.65,39.82L7.79,39.74L7.86,39.76L7.86,39.68L7.96,39.56L8.01,39.53L8.05,39.48L8.11,39.45L8.10,39.41L8.17,39.06L8.27,38.95L8.26,38.90L8.03,38.99L7.98,38.93L7.90,38.88L7.87,38.95L7.90,39.04L7.86,39.08L7.82,39.06L7.76,38.91L7.70,38.83L7.67,38.88L7.60,38.85L7.56,38.81L7.57,38.76L7.47,38.82L7.33,38.88L7.32,38.91L7.23,38.95L7.22,38.87L7.24,38.76L7.20,38.64L7.22,38.61L7.29,38.55L7.21,38.30L7.15,38.26L7.14,38.32L6.93,38.37L6.83,38.35L6.79,38.33L6.80,38.27L6.75,38.21L6.70,38.12L6.65,38.09L6.58,38.01L6.58,37.98L6.67,37.94L6.67,37.84L6.68,37.78L6.57,37.73L6.58,37.67L6.53,37.61L6.57,37.58L6.49,37.51L6.53,37.43L6.62,37.43L6.61,37.38L6.64,37.31L6.81,37.11L6.91,36.93L6.95,36.90L7.03,36.88L7.09,36.91L7.15,37.00L7.21,37.00L7.32,36.90L7.36,36.85L7.30,36.78L7.36,36.77L7.43,36.86L7.58,36.86L7.67,36.75L7.66,36.62L7.66,36.55L7.61,36.47L7.63,36.43L7.71,36.38L7.71,36.34L7.66,36.26L7.61,36.31L7.56,36.30L7.46,36.33L7.39,36.38L7.33,36.39L7.27,36.43L7.23,36.36L7.18,36.34L7.07,36.33L6.97,36.36L6.88,36.33L6.72,36.26L6.69,36.18L6.71,36.12L6.64,36.01L6.72,36.00L6.74,35.94L6.57,35.87L6.48,35.78ZM5.02,41.06L5.17,40.98L5.19,40.93L5.24,40.89L5.28,40.91L5.32,40.83L5.41,40.81L5.46,40.84L5.44,40.89L5.31,40.93L5.25,41.00L5.16,41.04ZM4.80,41.01L4.83,40.96L4.89,40.98L4.91,41.04ZM5.60,36.45L5.63,36.38L5.77,36.49L5.84,36.46L5.89,36.46L5.93,36.51L5.93,36.57L6.02,36.64L6.16,36.70L6.12,36.76L6.04,36.73L5.98,36.76L5.96,36.80L5.89,36.70L5.85,36.68L5.83,36.62L5.76,36.55L5.70,36.55L5.65,36.57L5.60,36.53ZM5.03,37.56L5.05,37.65L5.10,37.71L5.07,37.74L5.01,37.64ZM3.42,40.93L3.53,40.94L3.58,40.95L3.65,40.94L3.66,40.90L3.75,40.88L3.78,40.93L3.75,41.00L3.88,41.03L3.87,41.09L3.68,41.00L3.64,41.02L3.41,40.95ZM2.95,40.94L3.02,40.85L3.09,40.84L3.07,40.91L3.18,40.93L3.19,40.85L3.24,40.85L3.28,40.95L3.21,40.98L3.08,40.97L3.00,40.99ZM2.78,40.85L2.90,40.87L2.92,40.91L2.77,40.89ZM2.68,40.74L2.74,40.76L2.74,40.79L2.81,40.81L2.72,40.86Z"></path><path class="statelist-minimap-highlight statelist-minimap-highlight-az" d="M11.56,30.49L11.71,30.49L11.84,30.39L11.84,30.16L11.68,30.11L11.73,29.70L11.95,29.52L12.02,29.33L12.03,29.07L12.17,28.89L12.50,28.74L12.48,28.63L12.35,28.48L12.28,28.16L12.16,27.91L12.19,27.75L12.28,27.60L12.27,27.20L12.36,26.40L12.72,26.42L12.75,26.53L12.90,26.60L13.04,26.42L13.22,25.44L14.25,25.63L15.86,25.91L17.08,26.10L17.99,26.23L17.84,27.31L17.65,28.72L17.47,30.04L17.28,31.38L17.04,33.14L16.23,33.02L14.95,32.83L13.72,32.12L12.40,31.34L11.41,30.74L11.44,30.59Z"></path><path class="statelist-minimap-highlight statelist-minimap-highlight-ar" d="M31.90,27.70L32.54,27.69L34.11,27.64L35.30,27.59L36.24,27.54L36.35,27.77L36.14,28.02L36.07,28.17L36.69,28.12L36.78,28.22L36.72,28.36L36.50,28.51L36.51,28.70L36.37,29.01L36.41,29.23L36.20,29.40L36.27,29.50L36.06,29.66L35.96,29.88L35.98,30.13L35.83,30.20L35.68,30.38L35.53,30.82L35.57,30.95L35.40,31.25L35.51,31.41L35.56,31.60L35.48,31.89L34.40,31.94L32.55,31.98L32.54,31.32L32.40,31.28L32.22,31.32L32.09,31.23L32.10,30.00L32.11,29.09Z"></path><path class="statelist-minimap-highlight statelist-minimap-highlight-co" d="M18.67,21.34L20.19,21.53L21.26,21.66L22.48,21.79L23.20,21.85L25.03,21.98L24.96,23.21L24.86,24.82L24.78,26.00L24.72,26.92L23.80,26.84L22.13,26.71L20.91,26.59L20.08,26.49L18.99,26.36L17.99,26.23L18.19,24.81L18.20,24.67L18.35,23.63L18.47,22.72Z"></path><path class="statelist-minimap-highlight statelist-minimap-highlight-in" d="M38.22,20.95L38.47,21.03L38.85,20.83L39.78,20.73L40.66,20.63L40.67,20.71L40.87,22.35L41.03,23.88L40.97,23.96L41.10,24.15L41.09,24.27L40.95,24.29L40.75,24.43L40.66,24.38L40.50,24.43L40.56,24.63L40.41,24.76L40.34,24.96L40.22,24.99L40.15,25.32L40.05,25.40L39.88,25.35L39.75,25.21L39.58,25.36L39.61,25.53L39.41,25.56L39.31,25.44L38.98,25.66L38.74,25.56L38.55,25.69L38.31,25.63L38.17,25.79L38.15,25.50L38.23,25.35L38.18,25.25L38.31,25.15L38.57,24.57L38.52,24.31L38.42,24.16L38.47,23.84L38.35,22.39Z"></path><path class="statelist-minimap-highlight statelist-minimap-highlight-ct" d="M50.65,18.48L52.14,18.16L52.33,18.86L52.30,18.99L52.27,18.98L51.72,19.23L51.37,19.30L51.00,19.66L50.81,19.79L50.72,19.66L50.90,19.48L50.81,19.39Z"></path><path class="statelist-minimap-highlight statelist-minimap-highlight-hi" d="M20.20,40.00L20.36,39.87L20.45,39.70L20.38,39.42L20.56,39.46L20.72,39.58L21.09,39.71L21.31,39.90L21.44,40.17L21.63,40.30L21.55,40.41L21.23,40.62L21.11,40.61L20.83,40.78L20.71,40.98L20.58,40.98L20.36,40.83L20.39,40.53ZM19.45,38.61L19.54,38.48L19.70,38.64L19.97,38.59L20.18,38.75L20.25,38.88L20.10,38.97L19.76,39.00L19.71,38.77L19.53,38.74ZM19.04,38.62L19.17,38.61L19.32,38.74L19.14,38.84ZM17.69,37.81L17.82,37.80L18.00,37.65L18.14,37.87L18.28,37.96L18.30,38.20L18.08,38.14L17.84,38.15L17.69,37.92ZM15.92,37.21L16.16,37.02L16.36,37.01L16.48,37.15L16.43,37.35L16.31,37.45L16.13,37.42L15.96,37.32Z"></path><path class="statelist-minimap-highlight statelist-minimap-highlight-ne" d="M23.41,19.40L24.34,19.47L25.16,19.53L26.12,19.59L26.83,19.62L28.34,19.67L28.39,19.76L28.82,19.97L28.91,19.85L29.04,19.88L29.46,19.88L29.55,19.97L29.94,20.12L30.01,20.30L30.16,20.32L30.25,20.72L30.50,21.19L30.45,21.41L30.63,21.60L30.69,21.93L30.69,22.14L30.73,22.30L30.67,22.49L30.78,22.67L30.88,23.00L31.05,23.10L31.20,23.39L30.13,23.39L28.64,23.37L27.03,23.32L25.87,23.27L24.96,23.21L25.03,21.98L23.20,21.85L23.33,20.32Z"></path><path class="statelist-minimap-highlight statelist-minimap-highlight-nm" d="M17.99,26.23L18.99,26.36L20.08,26.49L20.91,26.59L22.13,26.71L23.80,26.84L23.75,27.46L23.72,27.46L23.60,29.08L23.50,30.43L23.36,31.94L23.29,32.98L21.66,32.84L20.27,32.71L19.64,32.64L19.60,32.79L19.70,32.91L17.98,32.71L17.90,33.25L17.04,33.14L17.28,31.38L17.47,30.04L17.65,28.72L17.84,27.31Z"></path><path class="statelist-minimap-highlight statelist-minimap-highlight-nc" d="M44.42,26.56L45.76,26.40L46.51,26.27L47.47,26.10L48.99,25.80L49.99,25.58L50.24,26.08L50.56,26.49L50.63,26.65L50.66,27.11L50.31,27.32L50.13,27.52L49.90,27.92L49.85,28.09L49.63,27.99L49.24,28.15L48.82,28.58L48.68,28.85L48.62,29.25L48.43,29.22L48.19,29.27L48.05,29.36L46.72,28.41L45.62,28.57L45.61,28.43L45.43,28.25L45.31,28.21L43.96,28.35L43.32,28.69L42.81,28.78L42.12,28.86L42.12,28.57L42.30,28.52L42.35,28.31L42.57,28.09L42.84,28.06L43.14,27.77L43.31,27.72L43.47,27.44L43.60,27.33L43.69,27.45L43.81,27.27L43.99,27.15L44.17,27.17L44.25,26.94L44.41,26.78Z"></path><path class="statelist-minimap-highlight statelist-minimap-highlight-oh" d="M40.67,20.71L41.88,20.51L42.25,20.63L42.38,20.71L42.46,20.61L42.69,20.78L42.83,20.81L43.23,20.59L43.46,20.59L43.82,20.20L44.46,19.82L44.73,21.45L44.60,21.54L44.72,21.87L44.61,22.37L44.62,22.62L44.40,22.99L44.22,23.15L44.11,23.08L43.93,23.28L43.84,23.53L43.89,23.65L43.79,23.73L43.67,23.62L43.52,23.93L43.59,24.16L43.50,24.19L43.47,24.38L43.23,24.45L43.08,24.30L42.96,24.26L42.89,24.08L42.55,24.32L42.30,24.22L42.17,24.33L41.99,24.20L41.65,24.18L41.51,23.92L41.37,23.82L41.24,23.89L41.03,23.88L40.87,22.35Z"></path><path class="statelist-minimap-highlight statelist-minimap-highlight-me" d="M51.72,14.09L51.93,13.87L52.04,13.54L52.21,13.21L52.14,13.14L52.09,12.87L52.11,12.68L52.20,12.53L52.16,12.20L52.53,11.14L52.68,11.14L52.74,11.34L52.88,11.39L53.09,11.24L53.25,11.05L53.38,11.04L53.81,11.25L54.22,12.56L54.29,12.87L54.54,12.90L54.67,12.98L54.70,13.27L55.06,13.36L55.30,13.66L55.10,14.00L54.97,14.04L54.70,14.36L54.49,14.46L54.32,14.86L53.99,15.08L53.85,14.87L53.83,15.19L53.67,15.39L53.19,15.62L53.01,15.80L52.90,16.23L52.80,16.31L52.81,16.51L52.75,16.66L52.41,16.35L52.36,16.11L51.94,14.75Z"></path><path class="statelist-minimap-highlight statelist-minimap-highlight-ma" d="M53.19,18.71L53.35,18.51L53.53,18.62ZM50.64,17.60L51.35,17.45L52.36,17.22L52.45,17.05L52.72,16.91L52.76,17.01L52.95,17.21L52.82,17.36L52.75,17.56L53.00,17.67L53.13,17.80L53.15,17.95L53.30,18.09L53.56,18.14L53.83,17.95L53.81,18.13L53.55,18.26L53.24,18.53L53.05,18.46L52.89,18.61L52.83,18.42L52.62,18.32L52.50,18.05L52.14,18.16L50.65,18.48L50.62,18.44Z"></path><path class="statelist-minimap-highlight statelist-minimap-highlight-ms" d="M35.48,31.89L35.56,31.60L35.51,31.41L35.40,31.25L35.57,30.95L35.53,30.82L35.68,30.38L35.83,30.20L35.98,30.13L35.96,29.88L36.06,29.66L36.27,29.50L36.20,29.40L37.07,29.34L38.30,29.25L38.40,29.37L38.38,30.40L38.36,31.48L38.33,33.03L38.44,34.02L38.55,34.93L38.48,35.00L38.03,34.94L37.56,35.10L37.39,35.25L37.29,35.21L37.16,34.90L37.07,34.81L37.01,34.60L37.10,34.26L36.03,34.33L35.11,34.37L35.19,34.31L35.10,34.09L35.20,33.95L35.21,33.76L35.29,33.70L35.36,33.38L35.54,33.22L35.67,32.99L35.77,32.69L35.63,32.58L35.55,32.21L35.58,31.97Z"></path><path class="statelist-minimap-highlight statelist-minimap-highlight-mt" d="M14.41,10.67L15.08,10.82L16.28,11.06L18.04,11.37L19.10,11.53L20.04,11.66L21.30,11.83L22.42,11.95L23.37,12.05L24.04,12.11L23.92,13.55L23.79,15.12L23.73,15.80L23.63,16.96L23.62,16.96L22.79,16.88L21.72,16.78L21.19,16.71L19.70,16.53L18.53,16.36L17.93,16.28L17.64,16.22L17.53,16.86L17.47,16.82L17.34,16.52L17.25,16.51L17.11,16.69L16.84,16.63L16.62,16.64L16.49,16.57L16.31,16.65L16.11,16.58L15.94,16.70L15.85,16.58L15.81,16.20L15.58,16.06L15.60,15.80L15.51,15.69L15.42,15.43L15.42,15.09L15.31,14.95L15.00,15.16L14.83,15.03L14.87,14.83L15.01,14.56L14.96,14.47L15.09,14.05L15.24,13.76L15.05,13.72L14.89,13.57L14.78,13.39L14.56,12.86L14.45,12.81L14.28,12.61L14.34,12.27L14.27,12.18L14.16,11.86Z"></path><path class="statelist-minimap-highlight statelist-minimap-highlight-ok" d="M23.80,26.84L24.72,26.92L25.87,26.98L27.54,27.05L29.15,27.09L30.77,27.10L31.90,27.09L31.90,27.70L32.11,29.09L32.10,30.00L32.09,31.23L31.73,31.10L31.59,30.97L31.34,30.84L31.28,30.94L31.12,30.95L31.01,30.88L30.74,30.96L30.41,31.00L30.20,31.17L29.96,31.00L29.70,30.98L29.60,30.85L29.35,31.02L29.11,31.00L28.88,30.79L28.68,30.96L28.61,30.78L28.47,30.77L28.46,30.64L28.19,30.57L28.08,30.68L27.98,30.58L27.81,30.59L27.62,30.50L27.36,30.47L27.28,30.26L26.98,30.22L26.86,30.25L26.64,30.00L26.57,30.02L26.63,28.71L26.67,27.63L25.09,27.55L23.75,27.46Z"></path><path class="statelist-minimap-highlight statelist-minimap-highlight-sc" d="M43.32,28.69L43.96,28.35L45.31,28.21L45.43,28.25L45.61,28.43L45.62,28.57L46.72,28.41L48.05,29.36L47.84,29.50L47.70,29.69L47.56,30.02L47.53,30.33L47.42,30.54L47.22,30.67L46.96,30.95L46.86,31.13L46.71,31.19L46.54,31.34L46.41,31.34L46.45,31.55L46.32,31.63L46.07,31.97L45.83,31.91L45.76,31.65L45.68,31.50L45.44,31.36L45.38,31.09L45.26,30.88L44.98,30.75L44.77,30.55L44.75,30.40L44.49,30.25L44.29,30.02L44.04,29.90L43.85,29.68L43.63,29.31L43.46,29.31L43.14,29.11L43.14,28.98Z"></path><path class="statelist-minimap-highlight statelist-minimap-highlight-sd" d="M23.62,16.96L23.63,16.96L23.73,15.80L25.39,15.93L26.51,15.99L27.60,16.04L29.05,16.09L30.08,16.10L30.06,16.25L29.86,16.45L29.95,16.71L30.17,16.87L30.17,17.81L30.16,19.08L30.10,19.23L30.10,19.43L30.17,19.56L30.01,19.97L30.16,20.32L30.01,20.30L29.94,20.12L29.55,19.97L29.46,19.88L29.04,19.88L28.91,19.85L28.82,19.97L28.39,19.76L28.34,19.67L26.83,19.62L26.12,19.59L25.16,19.53L24.34,19.47L23.41,19.40L23.54,17.87Z"></path><path class="statelist-minimap-highlight statelist-minimap-highlight-ut" d="M14.39,19.40L14.59,19.44L16.11,19.70L17.05,19.86L16.86,21.08L18.06,21.26L18.67,21.34L18.47,22.72L18.35,23.63L18.20,24.67L18.19,24.81L17.99,26.23L17.08,26.10L15.86,25.91L14.25,25.63L13.22,25.44L13.43,24.37L13.69,23.01L14.02,21.33L14.21,20.35Z"></path><path class="statelist-minimap-highlight statelist-minimap-highlight-wa" d="M8.65,9.61L8.78,9.63L8.92,9.55L9.03,9.74L8.85,10.00L8.66,9.84ZM13.63,10.50L13.29,11.99L12.94,13.57L12.90,13.63L12.97,13.87L12.93,14.09L11.22,13.67L11.08,13.72L10.78,13.68L10.35,13.68L10.12,13.74L9.87,13.71L9.81,13.64L9.38,13.65L9.03,13.45L8.80,13.41L8.37,13.50L8.08,13.33L8.00,13.22L8.06,12.88L8.03,12.71L7.89,12.54L7.74,12.55L7.57,12.35L7.46,12.26L7.29,12.30L7.14,12.21L7.30,11.67L7.37,10.99L7.33,10.89L7.38,10.48L7.27,10.10L7.30,9.87L7.44,9.61L7.83,10.00L8.63,10.35L8.84,10.34L9.09,9.85L9.13,9.34L9.92,9.57L11.29,9.94L12.20,10.17Z"></path><path class="statelist-minimap-highlight statelist-minimap-highlight-wv" d="M43.23,24.45L43.47,24.38L43.50,24.19L43.59,24.16L43.52,23.93L43.67,23.62L43.79,23.73L43.89,23.65L43.84,23.53L43.93,23.28L44.11,23.08L44.22,23.15L44.40,22.99L44.62,22.62L44.61,22.37L44.72,21.87L44.60,21.54L44.73,21.45L44.91,22.56L45.87,22.41L45.97,23.03L46.13,22.87L46.28,22.64L46.41,22.61L46.53,22.39L46.61,22.48L46.84,22.47L46.89,22.34L47.16,22.23L47.41,22.29L47.57,22.59L47.51,22.84L46.96,22.53L46.97,22.91L46.87,23.12L46.70,23.29L46.64,23.47L46.50,23.40L46.45,23.63L46.32,23.96L46.14,23.94L45.95,23.81L45.89,24.21L45.78,24.34L45.76,24.52L45.59,24.82L45.53,25.01L45.56,25.19L45.42,25.35L45.33,25.30L45.01,25.57L44.74,25.70L44.59,25.59L44.42,25.78L44.31,25.81L44.13,25.73L43.97,25.54L43.97,25.44L43.88,25.44L43.63,25.30L43.41,25.05L43.42,24.97L43.25,24.80Z"></path><path class="statelist-minimap-highlight statelist-minimap-highlight-wy" d="M23.62,16.96L23.54,17.87L23.41,19.40L23.33,20.32L23.20,21.85L22.48,21.79L21.26,21.66L20.19,21.53L18.67,21.34L18.06,21.26L16.86,21.08L17.05,19.86L17.31,18.26L17.53,16.86L17.64,16.22L17.93,16.28L18.53,16.36L19.70,16.53L21.19,16.71L21.72,16.78L22.79,16.88Z"></path><path class="statelist-minimap-highlight statelist-minimap-highlight-de" d="M49.56,21.57L49.47,21.81L49.53,21.96L49.51,22.04L49.70,22.22L49.77,22.47L49.89,22.62L50.12,22.72L50.25,23.12L49.65,23.24L49.23,21.74L49.41,21.56Z"></path><path class="statelist-minimap-highlight statelist-minimap-highlight-ri" d="M52.30,18.99L52.33,18.86L52.14,18.16L52.50,18.05L52.62,18.32L52.83,18.42L52.89,18.61L52.64,18.73L52.62,18.84Z"></path><path class="statelist-minimap-highlight statelist-minimap-highlight-al" d="M38.30,29.25L38.88,29.19L39.69,29.13L40.86,29.01L41.15,30.05L41.57,31.56L41.72,31.89L41.84,32.05L41.83,32.19L41.95,32.26L41.80,32.43L41.81,32.64L41.76,32.81L41.79,32.98L41.90,33.15L41.88,33.60L42.02,33.81L41.09,33.93L39.32,34.09L39.30,34.26L39.57,34.49L39.54,34.88L39.48,34.96L39.17,35.05L39.19,34.93L39.03,34.74L39.01,34.54L38.88,34.57L38.83,34.97L38.55,34.93L38.44,34.02L38.33,33.03L38.36,31.48L38.38,30.40L38.40,29.37Z"></path><path class="statelist-minimap-highlight statelist-minimap-highlight-nd" d="M24.04,12.11L25.52,12.22L26.40,12.27L27.39,12.32L28.23,12.35L29.56,12.38L29.66,12.78L29.62,12.94L29.62,13.38L29.86,14.11L29.88,14.71L29.92,14.91L29.89,15.25L29.96,15.49L30.05,15.64L30.08,16.10L29.05,16.09L27.60,16.04L26.51,15.99L25.39,15.93L23.73,15.80L23.79,15.12L23.92,13.55Z"></path><path class="statelist-minimap-highlight statelist-minimap-highlight-pa" d="M44.46,19.82L44.62,19.72L45.07,19.36L45.13,19.68L45.75,19.58L46.84,19.37L48.05,19.13L49.04,18.92L49.14,19.04L49.28,19.06L49.42,19.37L49.49,19.45L49.73,19.48L49.78,19.56L49.69,19.66L49.65,19.84L49.50,20.10L49.58,20.20L49.52,20.37L49.56,20.60L49.66,20.61L49.72,20.76L50.09,21.01L49.77,21.34L49.79,21.40L49.56,21.57L49.41,21.56L49.23,21.74L47.71,22.06L46.87,22.22L45.87,22.41L44.91,22.56L44.73,21.45Z"></path><path class="statelist-minimap-highlight statelist-minimap-highlight-vt" d="M49.92,14.92L50.75,14.72L51.46,14.52L51.50,14.64L51.44,14.87L51.54,14.99L51.55,15.15L51.40,15.38L51.22,15.50L51.29,15.72L51.26,16.10L51.16,16.42L51.28,17.11L51.21,17.19L51.25,17.37L51.35,17.45L50.64,17.60L50.61,17.50L50.44,16.65L50.25,16.54L50.28,16.40L50.12,16.09L50.16,15.81L50.13,15.58L49.99,15.39L49.99,15.16Z"></path><path class="statelist-minimap-highlight statelist-minimap-highlight-pr"></path><path class="statelist-minimap-highlight statelist-minimap-highlight-ks" d="M24.96,23.21L25.87,23.27L27.03,23.32L28.64,23.37L30.13,23.39L31.20,23.39L31.41,23.56L31.53,23.51L31.62,23.70L31.39,23.94L31.69,24.36L31.87,24.48L31.88,25.56L31.90,27.09L30.77,27.10L29.15,27.09L27.54,27.05L25.87,26.98L24.72,26.92L24.78,26.00L24.86,24.82Z"></path><path class="statelist-minimap-highlight statelist-minimap-highlight-nv" d="M9.15,18.22L10.22,18.49L11.76,18.84L12.78,19.07L14.39,19.40L14.21,20.35L14.02,21.33L13.69,23.01L13.43,24.37L13.22,25.44L13.04,26.42L12.90,26.60L12.75,26.53L12.72,26.42L12.36,26.40L12.27,27.20L12.28,27.60L12.19,27.75L11.41,26.58L10.77,25.62L9.89,24.29L8.98,22.91L8.23,21.80L8.53,20.65L8.90,19.19Z"></path><path class="statelist-minimap-highlight statelist-minimap-highlight-nh" d="M51.46,14.52L51.48,14.28L51.55,14.13L51.72,14.09L51.94,14.75L52.36,16.11L52.41,16.35L52.75,16.66L52.72,16.91L52.45,17.05L52.36,17.22L51.35,17.45L51.25,17.37L51.21,17.19L51.28,17.11L51.16,16.42L51.26,16.10L51.29,15.72L51.22,15.50L51.40,15.38L51.55,15.15L51.54,14.99L51.44,14.87L51.50,14.64Z"></path><path class="statelist-minimap-highlight statelist-minimap-highlight-nj" d="M49.56,21.57L49.79,21.40L49.77,21.34L50.09,21.01L49.72,20.76L49.66,20.61L49.56,20.60L49.52,20.37L49.58,20.20L49.50,20.10L49.65,19.84L49.69,19.66L49.78,19.56L50.60,19.82L50.52,20.28L50.43,20.33L50.41,20.50L50.71,20.62L50.76,21.36L50.59,21.90L50.41,22.12L50.29,22.50L50.22,22.26L49.85,22.16L49.53,21.96L49.47,21.81Z"></path></g>
</svg>