<svg class="poll" width="{{ width }}" height="{{ height }}" viewBox="0 0 {{ width }} {{ height }}" xmlns="http://www.w3.org/2000/svg" xmlns:xlink="http://www.w3.org/1999/xlink" preserveAspectRatio="xMinYMin meet">
{% if not fontless %}
<style>

@font-face{src:url("https://origami-build.ft.com/v2/files/o-fonts-assets@1.3.0/MetricWeb-Thin.woff?#iefix") format("woff");font-family:MetricWeb;font-weight:100;font-style:normal}@font-face{src:url(//build.origami.ft.com/v2/files/o-fonts-assets@1.3.0/MetricWeb-Light.woff?#iefix) format("woff");font-family:MetricWeb;font-weight:200;font-style:normal}

@font-face{src:url("https://origami-build.ft.com/v2/files/o-fonts-assets@1.3.0/MetricWeb-LightItalic.woff?#iefix") format("woff");font-family:MetricWeb;font-weight:200;font-style:italic}@font-face{src:url(//build.origami.ft.com/v2/files/o-fonts-assets@1.3.0/MetricWeb-Regular.woff?#iefix) format("woff");font-family:MetricWeb;font-weight:400;font-style:normal}

@font-face{src:url("https://origami-build.ft.com/v2/files/o-fonts-assets@1.3.0/MetricWeb-RegularItalic.woff?#iefix") format("woff");font-family:MetricWeb;font-weight:400;font-style:italic}@font-face{src:url(//build.origami.ft.com/v2/files/o-fonts-assets@1.3.0/MetricWeb-Medium.woff?#iefix) format("woff");font-family:MetricWeb;font-weight:500;font-style:normal}

@font-face{src:url("https://origami-build.ft.com/v2/files/o-fonts-assets@1.3.0/MetricWeb-Semibold.woff?#iefix") format("woff");font-family:MetricWeb;font-weight:600;font-style:normal}@font-face{src:url(//build.origami.ft.com/v2/files/o-fonts-assets@1.3.0/MetricWeb-Bold.woff?#iefix) format("woff");font-family:MetricWeb;font-weight:700;font-style:normal}

@font-face{src:url("https://origami-build.ft.com/v2/files/o-fonts-assets@1.3.0/MetricWeb-BoldItalic.woff?#iefix") format("woff");font-family:MetricWeb;font-weight:700;font-style:italic}@font-face{src:url(//build.origami.ft.com/v2/files/o-fonts-assets@1.3.0/FinancierDisplayWeb-LightItalic.woff?#iefix) format("woff");font-family:FinancierDisplayWeb;font-weight:200;font-style:italic}

</style>
{% endif %}
<style>
path {
    stroke-width: 1px;
    stroke: #c3bcb0;
    fill: none;
}

.yAxis text {
    text-anchor: end !important;
}

.yAxis path {
    stroke: none;
}

.axisLabel {
    font-size: 14px;
}

text {
    font-family: MetricWeb, sans-serif;
    fill: #6b6e68;
    font-size: 14px;
    pointer-events: none;
    user-select: none;
    font-feature-settings: 'tnum' 1;
}

.headline {
    font-size: 21px;
    fill: #3B3D3B;
}

.sourceline {
    font-size: 11.5px;
}

.yAxis .tick line {
    opacity: 1;
    stroke: #C3BCB0;
    stroke-dasharray: 1,2;
}

.xAxis .tick line {
    opacity: 1;
    stroke: #C3BCB0;
}

.area.above {
  fill: rgb(250, 207, 194);
  stroke: none;
}

.area.below {
  fill: rgb(191, 208, 219);
  stroke: none;
}
</style>
{% if background != 'none' %}
<rect x="0" y="0" width="{{width}}" height="{{height}}" fill="#{{ background }}"></rect>
{% endif %}
{{ svgContent | safe }}
{% if logo %}
<g transform='translate({{ width-34 }}, {{ height - 21 }})' width="29" height="16">
    <path style="fill: #dacfc5;" d="M0,16h7.6v-0.6c-0.5,0-0.9,0-1.2-0.1c-0.3,0-0.5-0.1-0.7-0.3c-0.2-0.1-0.3-0.3-0.4-0.6c-0.1-0.2-0.1-0.6-0.1-1V8.2h1.2c1.1,0,1.9,0.2,2.3,0.5c0.5,0.3,0.8,0.9,1,1.9h0.6V5H9.8C9.7,5.6,9.5,6,9.3,6.3c-0.2,0.3-0.5,0.5-1,0.6C7.9,7,7.3,7.1,6.5,7.1H5.3V2c0-0.3,0.1-0.5,0.2-0.7c0.1-0.1,0.3-0.2,0.7-0.2h2.4c0.8,0,1.4,0,1.9,0.1c0.5,0.1,0.9,0.2,1.2,0.4c0.3,0.2,0.6,0.4,0.7,0.7c0.2,0.3,0.3,0.7,0.5,1.1h0.7L13.4,0H0v0.6c0.4,0,0.8,0.1,1,0.1c0.2,0,0.4,0.1,0.6,0.3C1.8,1.1,1.9,1.3,2,1.5c0.1,0.2,0.1,0.6,0.1,1v10.9c0,0.4,0,0.8-0.1,1c-0.1,0.2-0.2,0.4-0.4,0.6c-0.2,0.1-0.4,0.2-0.6,0.3c-0.2,0-0.6,0.1-1,0.1V16z M14.2,3.5H15c0.3-0.9,0.6-1.5,1-1.8c0.4-0.4,1.1-0.5,1.9-0.5h2v12.3c0,0.4,0,0.8-0.1,1c-0.1,0.2-0.2,0.4-0.4,0.6c-0.2,0.1-0.4,0.2-0.7,0.3c-0.3,0-0.6,0.1-1.1,0.1V16h7.7v-0.6c-0.5,0-0.9,0-1.1-0.1c-0.3,0-0.5-0.1-0.7-0.3c-0.2-0.1-0.3-0.3-0.4-0.6c-0.1-0.2-0.1-0.6-0.1-1V1.2h2c0.8,0,1.5,0.2,1.9,0.5c0.4,0.4,0.8,1,1,1.8h0.8L28.5,0H14.6L14.2,3.5z"></path>
</g>
{% endif %}
</svg>
